%TF.GenerationSoftware,KiCad,Pcbnew,9.0.9*%
%TF.CreationDate,2026-10-02T14:55:20+08:00*%
%TF.ProjectId,esp32_sensor_carrier,65737033-325f-4736-956e-736f725f6361,rev?*%
%TF.SameCoordinates,Original*%
%TF.FileFunction,Legend,Bot*%
%TF.FilePolarity,Positive*%
%FSLAX46Y46*%
G04 Gerber Fmt 4.6, Leading zero omitted, Abs format (unit mm)*
G04 Created by KiCad (PCBNEW 9.0.9) date 2026-10-02 14:55:20*
%MOMM*%
%LPD*%
G01*
G04 APERTURE LIST*
%ADD10C,0.120000*%
G04 APERTURE END LIST*
D10*
X63421427Y-39846985D02*
X63292856Y-39889842D01*
X63292856Y-39889842D02*
X63078570Y-39889842D01*
X63078570Y-39889842D02*
X62992856Y-39846985D01*
X62992856Y-39846985D02*
X62949998Y-39804127D01*
X62949998Y-39804127D02*
X62907141Y-39718413D01*
X62907141Y-39718413D02*
X62907141Y-39632699D01*
X62907141Y-39632699D02*
X62949998Y-39546985D01*
X62949998Y-39546985D02*
X62992856Y-39504127D01*
X62992856Y-39504127D02*
X63078570Y-39461270D01*
X63078570Y-39461270D02*
X63249998Y-39418413D01*
X63249998Y-39418413D02*
X63335713Y-39375556D01*
X63335713Y-39375556D02*
X63378570Y-39332699D01*
X63378570Y-39332699D02*
X63421427Y-39246985D01*
X63421427Y-39246985D02*
X63421427Y-39161270D01*
X63421427Y-39161270D02*
X63378570Y-39075556D01*
X63378570Y-39075556D02*
X63335713Y-39032699D01*
X63335713Y-39032699D02*
X63249998Y-38989842D01*
X63249998Y-38989842D02*
X63035713Y-38989842D01*
X63035713Y-38989842D02*
X62907141Y-39032699D01*
X62521427Y-39889842D02*
X62521427Y-38989842D01*
X62521427Y-38989842D02*
X62307141Y-38989842D01*
X62307141Y-38989842D02*
X62178570Y-39032699D01*
X62178570Y-39032699D02*
X62092855Y-39118413D01*
X62092855Y-39118413D02*
X62049998Y-39204127D01*
X62049998Y-39204127D02*
X62007141Y-39375556D01*
X62007141Y-39375556D02*
X62007141Y-39504127D01*
X62007141Y-39504127D02*
X62049998Y-39675556D01*
X62049998Y-39675556D02*
X62092855Y-39761270D01*
X62092855Y-39761270D02*
X62178570Y-39846985D01*
X62178570Y-39846985D02*
X62307141Y-39889842D01*
X62307141Y-39889842D02*
X62521427Y-39889842D01*
X61664284Y-39632699D02*
X61235713Y-39632699D01*
X61749998Y-39889842D02*
X61449998Y-38989842D01*
X61449998Y-38989842D02*
X61149998Y-39889842D01*
X59692855Y-39032699D02*
X59778570Y-38989842D01*
X59778570Y-38989842D02*
X59907141Y-38989842D01*
X59907141Y-38989842D02*
X60035712Y-39032699D01*
X60035712Y-39032699D02*
X60121427Y-39118413D01*
X60121427Y-39118413D02*
X60164284Y-39204127D01*
X60164284Y-39204127D02*
X60207141Y-39375556D01*
X60207141Y-39375556D02*
X60207141Y-39504127D01*
X60207141Y-39504127D02*
X60164284Y-39675556D01*
X60164284Y-39675556D02*
X60121427Y-39761270D01*
X60121427Y-39761270D02*
X60035712Y-39846985D01*
X60035712Y-39846985D02*
X59907141Y-39889842D01*
X59907141Y-39889842D02*
X59821427Y-39889842D01*
X59821427Y-39889842D02*
X59692855Y-39846985D01*
X59692855Y-39846985D02*
X59649998Y-39804127D01*
X59649998Y-39804127D02*
X59649998Y-39504127D01*
X59649998Y-39504127D02*
X59821427Y-39504127D01*
X59264284Y-39889842D02*
X59264284Y-38989842D01*
X59264284Y-38989842D02*
X58921427Y-38989842D01*
X58921427Y-38989842D02*
X58835712Y-39032699D01*
X58835712Y-39032699D02*
X58792855Y-39075556D01*
X58792855Y-39075556D02*
X58749998Y-39161270D01*
X58749998Y-39161270D02*
X58749998Y-39289842D01*
X58749998Y-39289842D02*
X58792855Y-39375556D01*
X58792855Y-39375556D02*
X58835712Y-39418413D01*
X58835712Y-39418413D02*
X58921427Y-39461270D01*
X58921427Y-39461270D02*
X59264284Y-39461270D01*
X58364284Y-39889842D02*
X58364284Y-38989842D01*
X57764284Y-38989842D02*
X57592856Y-38989842D01*
X57592856Y-38989842D02*
X57507141Y-39032699D01*
X57507141Y-39032699D02*
X57421427Y-39118413D01*
X57421427Y-39118413D02*
X57378570Y-39289842D01*
X57378570Y-39289842D02*
X57378570Y-39589842D01*
X57378570Y-39589842D02*
X57421427Y-39761270D01*
X57421427Y-39761270D02*
X57507141Y-39846985D01*
X57507141Y-39846985D02*
X57592856Y-39889842D01*
X57592856Y-39889842D02*
X57764284Y-39889842D01*
X57764284Y-39889842D02*
X57849999Y-39846985D01*
X57849999Y-39846985D02*
X57935713Y-39761270D01*
X57935713Y-39761270D02*
X57978570Y-39589842D01*
X57978570Y-39589842D02*
X57978570Y-39289842D01*
X57978570Y-39289842D02*
X57935713Y-39118413D01*
X57935713Y-39118413D02*
X57849999Y-39032699D01*
X57849999Y-39032699D02*
X57764284Y-38989842D01*
X56864284Y-39375556D02*
X56949999Y-39332699D01*
X56949999Y-39332699D02*
X56992856Y-39289842D01*
X56992856Y-39289842D02*
X57035713Y-39204127D01*
X57035713Y-39204127D02*
X57035713Y-39161270D01*
X57035713Y-39161270D02*
X56992856Y-39075556D01*
X56992856Y-39075556D02*
X56949999Y-39032699D01*
X56949999Y-39032699D02*
X56864284Y-38989842D01*
X56864284Y-38989842D02*
X56692856Y-38989842D01*
X56692856Y-38989842D02*
X56607142Y-39032699D01*
X56607142Y-39032699D02*
X56564284Y-39075556D01*
X56564284Y-39075556D02*
X56521427Y-39161270D01*
X56521427Y-39161270D02*
X56521427Y-39204127D01*
X56521427Y-39204127D02*
X56564284Y-39289842D01*
X56564284Y-39289842D02*
X56607142Y-39332699D01*
X56607142Y-39332699D02*
X56692856Y-39375556D01*
X56692856Y-39375556D02*
X56864284Y-39375556D01*
X56864284Y-39375556D02*
X56949999Y-39418413D01*
X56949999Y-39418413D02*
X56992856Y-39461270D01*
X56992856Y-39461270D02*
X57035713Y-39546985D01*
X57035713Y-39546985D02*
X57035713Y-39718413D01*
X57035713Y-39718413D02*
X56992856Y-39804127D01*
X56992856Y-39804127D02*
X56949999Y-39846985D01*
X56949999Y-39846985D02*
X56864284Y-39889842D01*
X56864284Y-39889842D02*
X56692856Y-39889842D01*
X56692856Y-39889842D02*
X56607142Y-39846985D01*
X56607142Y-39846985D02*
X56564284Y-39804127D01*
X56564284Y-39804127D02*
X56521427Y-39718413D01*
X56521427Y-39718413D02*
X56521427Y-39546985D01*
X56521427Y-39546985D02*
X56564284Y-39461270D01*
X56564284Y-39461270D02*
X56607142Y-39418413D01*
X56607142Y-39418413D02*
X56692856Y-39375556D01*
X53435714Y-39846985D02*
X53307143Y-39889842D01*
X53307143Y-39889842D02*
X53092857Y-39889842D01*
X53092857Y-39889842D02*
X53007143Y-39846985D01*
X53007143Y-39846985D02*
X52964285Y-39804127D01*
X52964285Y-39804127D02*
X52921428Y-39718413D01*
X52921428Y-39718413D02*
X52921428Y-39632699D01*
X52921428Y-39632699D02*
X52964285Y-39546985D01*
X52964285Y-39546985D02*
X53007143Y-39504127D01*
X53007143Y-39504127D02*
X53092857Y-39461270D01*
X53092857Y-39461270D02*
X53264285Y-39418413D01*
X53264285Y-39418413D02*
X53350000Y-39375556D01*
X53350000Y-39375556D02*
X53392857Y-39332699D01*
X53392857Y-39332699D02*
X53435714Y-39246985D01*
X53435714Y-39246985D02*
X53435714Y-39161270D01*
X53435714Y-39161270D02*
X53392857Y-39075556D01*
X53392857Y-39075556D02*
X53350000Y-39032699D01*
X53350000Y-39032699D02*
X53264285Y-38989842D01*
X53264285Y-38989842D02*
X53050000Y-38989842D01*
X53050000Y-38989842D02*
X52921428Y-39032699D01*
X52021428Y-39804127D02*
X52064285Y-39846985D01*
X52064285Y-39846985D02*
X52192857Y-39889842D01*
X52192857Y-39889842D02*
X52278571Y-39889842D01*
X52278571Y-39889842D02*
X52407142Y-39846985D01*
X52407142Y-39846985D02*
X52492857Y-39761270D01*
X52492857Y-39761270D02*
X52535714Y-39675556D01*
X52535714Y-39675556D02*
X52578571Y-39504127D01*
X52578571Y-39504127D02*
X52578571Y-39375556D01*
X52578571Y-39375556D02*
X52535714Y-39204127D01*
X52535714Y-39204127D02*
X52492857Y-39118413D01*
X52492857Y-39118413D02*
X52407142Y-39032699D01*
X52407142Y-39032699D02*
X52278571Y-38989842D01*
X52278571Y-38989842D02*
X52192857Y-38989842D01*
X52192857Y-38989842D02*
X52064285Y-39032699D01*
X52064285Y-39032699D02*
X52021428Y-39075556D01*
X51207142Y-39889842D02*
X51635714Y-39889842D01*
X51635714Y-39889842D02*
X51635714Y-38989842D01*
X49750000Y-39032699D02*
X49835715Y-38989842D01*
X49835715Y-38989842D02*
X49964286Y-38989842D01*
X49964286Y-38989842D02*
X50092857Y-39032699D01*
X50092857Y-39032699D02*
X50178572Y-39118413D01*
X50178572Y-39118413D02*
X50221429Y-39204127D01*
X50221429Y-39204127D02*
X50264286Y-39375556D01*
X50264286Y-39375556D02*
X50264286Y-39504127D01*
X50264286Y-39504127D02*
X50221429Y-39675556D01*
X50221429Y-39675556D02*
X50178572Y-39761270D01*
X50178572Y-39761270D02*
X50092857Y-39846985D01*
X50092857Y-39846985D02*
X49964286Y-39889842D01*
X49964286Y-39889842D02*
X49878572Y-39889842D01*
X49878572Y-39889842D02*
X49750000Y-39846985D01*
X49750000Y-39846985D02*
X49707143Y-39804127D01*
X49707143Y-39804127D02*
X49707143Y-39504127D01*
X49707143Y-39504127D02*
X49878572Y-39504127D01*
X49321429Y-39889842D02*
X49321429Y-38989842D01*
X49321429Y-38989842D02*
X48978572Y-38989842D01*
X48978572Y-38989842D02*
X48892857Y-39032699D01*
X48892857Y-39032699D02*
X48850000Y-39075556D01*
X48850000Y-39075556D02*
X48807143Y-39161270D01*
X48807143Y-39161270D02*
X48807143Y-39289842D01*
X48807143Y-39289842D02*
X48850000Y-39375556D01*
X48850000Y-39375556D02*
X48892857Y-39418413D01*
X48892857Y-39418413D02*
X48978572Y-39461270D01*
X48978572Y-39461270D02*
X49321429Y-39461270D01*
X48421429Y-39889842D02*
X48421429Y-38989842D01*
X47821429Y-38989842D02*
X47650001Y-38989842D01*
X47650001Y-38989842D02*
X47564286Y-39032699D01*
X47564286Y-39032699D02*
X47478572Y-39118413D01*
X47478572Y-39118413D02*
X47435715Y-39289842D01*
X47435715Y-39289842D02*
X47435715Y-39589842D01*
X47435715Y-39589842D02*
X47478572Y-39761270D01*
X47478572Y-39761270D02*
X47564286Y-39846985D01*
X47564286Y-39846985D02*
X47650001Y-39889842D01*
X47650001Y-39889842D02*
X47821429Y-39889842D01*
X47821429Y-39889842D02*
X47907144Y-39846985D01*
X47907144Y-39846985D02*
X47992858Y-39761270D01*
X47992858Y-39761270D02*
X48035715Y-39589842D01*
X48035715Y-39589842D02*
X48035715Y-39289842D01*
X48035715Y-39289842D02*
X47992858Y-39118413D01*
X47992858Y-39118413D02*
X47907144Y-39032699D01*
X47907144Y-39032699D02*
X47821429Y-38989842D01*
X47007144Y-39889842D02*
X46835715Y-39889842D01*
X46835715Y-39889842D02*
X46750001Y-39846985D01*
X46750001Y-39846985D02*
X46707144Y-39804127D01*
X46707144Y-39804127D02*
X46621429Y-39675556D01*
X46621429Y-39675556D02*
X46578572Y-39504127D01*
X46578572Y-39504127D02*
X46578572Y-39161270D01*
X46578572Y-39161270D02*
X46621429Y-39075556D01*
X46621429Y-39075556D02*
X46664287Y-39032699D01*
X46664287Y-39032699D02*
X46750001Y-38989842D01*
X46750001Y-38989842D02*
X46921429Y-38989842D01*
X46921429Y-38989842D02*
X47007144Y-39032699D01*
X47007144Y-39032699D02*
X47050001Y-39075556D01*
X47050001Y-39075556D02*
X47092858Y-39161270D01*
X47092858Y-39161270D02*
X47092858Y-39375556D01*
X47092858Y-39375556D02*
X47050001Y-39461270D01*
X47050001Y-39461270D02*
X47007144Y-39504127D01*
X47007144Y-39504127D02*
X46921429Y-39546985D01*
X46921429Y-39546985D02*
X46750001Y-39546985D01*
X46750001Y-39546985D02*
X46664287Y-39504127D01*
X46664287Y-39504127D02*
X46621429Y-39461270D01*
X46621429Y-39461270D02*
X46578572Y-39375556D01*
X64557142Y-41338792D02*
X64857142Y-40910220D01*
X65071428Y-41338792D02*
X65071428Y-40438792D01*
X65071428Y-40438792D02*
X64728571Y-40438792D01*
X64728571Y-40438792D02*
X64642856Y-40481649D01*
X64642856Y-40481649D02*
X64599999Y-40524506D01*
X64599999Y-40524506D02*
X64557142Y-40610220D01*
X64557142Y-40610220D02*
X64557142Y-40738792D01*
X64557142Y-40738792D02*
X64599999Y-40824506D01*
X64599999Y-40824506D02*
X64642856Y-40867363D01*
X64642856Y-40867363D02*
X64728571Y-40910220D01*
X64728571Y-40910220D02*
X65071428Y-40910220D01*
X64214285Y-41081649D02*
X63785714Y-41081649D01*
X64299999Y-41338792D02*
X63999999Y-40438792D01*
X63999999Y-40438792D02*
X63699999Y-41338792D01*
X63399999Y-41338792D02*
X63399999Y-40438792D01*
X63399999Y-40438792D02*
X63185713Y-40438792D01*
X63185713Y-40438792D02*
X63057142Y-40481649D01*
X63057142Y-40481649D02*
X62971427Y-40567363D01*
X62971427Y-40567363D02*
X62928570Y-40653077D01*
X62928570Y-40653077D02*
X62885713Y-40824506D01*
X62885713Y-40824506D02*
X62885713Y-40953077D01*
X62885713Y-40953077D02*
X62928570Y-41124506D01*
X62928570Y-41124506D02*
X62971427Y-41210220D01*
X62971427Y-41210220D02*
X63057142Y-41295935D01*
X63057142Y-41295935D02*
X63185713Y-41338792D01*
X63185713Y-41338792D02*
X63399999Y-41338792D01*
X62542856Y-41081649D02*
X62114285Y-41081649D01*
X62628570Y-41338792D02*
X62328570Y-40438792D01*
X62328570Y-40438792D02*
X62028570Y-41338792D01*
X61214284Y-41338792D02*
X61514284Y-40910220D01*
X61728570Y-41338792D02*
X61728570Y-40438792D01*
X61728570Y-40438792D02*
X61385713Y-40438792D01*
X61385713Y-40438792D02*
X61299998Y-40481649D01*
X61299998Y-40481649D02*
X61257141Y-40524506D01*
X61257141Y-40524506D02*
X61214284Y-40610220D01*
X61214284Y-40610220D02*
X61214284Y-40738792D01*
X61214284Y-40738792D02*
X61257141Y-40824506D01*
X61257141Y-40824506D02*
X61299998Y-40867363D01*
X61299998Y-40867363D02*
X61385713Y-40910220D01*
X61385713Y-40910220D02*
X61728570Y-40910220D01*
X59628570Y-41338792D02*
X59928570Y-40910220D01*
X60142856Y-41338792D02*
X60142856Y-40438792D01*
X60142856Y-40438792D02*
X59799999Y-40438792D01*
X59799999Y-40438792D02*
X59714284Y-40481649D01*
X59714284Y-40481649D02*
X59671427Y-40524506D01*
X59671427Y-40524506D02*
X59628570Y-40610220D01*
X59628570Y-40610220D02*
X59628570Y-40738792D01*
X59628570Y-40738792D02*
X59671427Y-40824506D01*
X59671427Y-40824506D02*
X59714284Y-40867363D01*
X59714284Y-40867363D02*
X59799999Y-40910220D01*
X59799999Y-40910220D02*
X60142856Y-40910220D01*
X59328570Y-40438792D02*
X58728570Y-41338792D01*
X58728570Y-40438792D02*
X59328570Y-41338792D01*
X57914284Y-41338792D02*
X58428570Y-41338792D01*
X58171427Y-41338792D02*
X58171427Y-40438792D01*
X58171427Y-40438792D02*
X58257141Y-40567363D01*
X58257141Y-40567363D02*
X58342856Y-40653077D01*
X58342856Y-40653077D02*
X58428570Y-40695935D01*
X57614284Y-40438792D02*
X57014284Y-40438792D01*
X57014284Y-40438792D02*
X57399998Y-41338792D01*
X55342856Y-40395935D02*
X56114284Y-41553077D01*
X54485713Y-40438792D02*
X53971428Y-40438792D01*
X54228570Y-41338792D02*
X54228570Y-40438792D01*
X53757142Y-40438792D02*
X53157142Y-41338792D01*
X53157142Y-40438792D02*
X53757142Y-41338792D01*
X52342856Y-41338792D02*
X52857142Y-41338792D01*
X52599999Y-41338792D02*
X52599999Y-40438792D01*
X52599999Y-40438792D02*
X52685713Y-40567363D01*
X52685713Y-40567363D02*
X52771428Y-40653077D01*
X52771428Y-40653077D02*
X52857142Y-40695935D01*
X51828570Y-40824506D02*
X51914285Y-40781649D01*
X51914285Y-40781649D02*
X51957142Y-40738792D01*
X51957142Y-40738792D02*
X51999999Y-40653077D01*
X51999999Y-40653077D02*
X51999999Y-40610220D01*
X51999999Y-40610220D02*
X51957142Y-40524506D01*
X51957142Y-40524506D02*
X51914285Y-40481649D01*
X51914285Y-40481649D02*
X51828570Y-40438792D01*
X51828570Y-40438792D02*
X51657142Y-40438792D01*
X51657142Y-40438792D02*
X51571428Y-40481649D01*
X51571428Y-40481649D02*
X51528570Y-40524506D01*
X51528570Y-40524506D02*
X51485713Y-40610220D01*
X51485713Y-40610220D02*
X51485713Y-40653077D01*
X51485713Y-40653077D02*
X51528570Y-40738792D01*
X51528570Y-40738792D02*
X51571428Y-40781649D01*
X51571428Y-40781649D02*
X51657142Y-40824506D01*
X51657142Y-40824506D02*
X51828570Y-40824506D01*
X51828570Y-40824506D02*
X51914285Y-40867363D01*
X51914285Y-40867363D02*
X51957142Y-40910220D01*
X51957142Y-40910220D02*
X51999999Y-40995935D01*
X51999999Y-40995935D02*
X51999999Y-41167363D01*
X51999999Y-41167363D02*
X51957142Y-41253077D01*
X51957142Y-41253077D02*
X51914285Y-41295935D01*
X51914285Y-41295935D02*
X51828570Y-41338792D01*
X51828570Y-41338792D02*
X51657142Y-41338792D01*
X51657142Y-41338792D02*
X51571428Y-41295935D01*
X51571428Y-41295935D02*
X51528570Y-41253077D01*
X51528570Y-41253077D02*
X51485713Y-41167363D01*
X51485713Y-41167363D02*
X51485713Y-40995935D01*
X51485713Y-40995935D02*
X51528570Y-40910220D01*
X51528570Y-40910220D02*
X51571428Y-40867363D01*
X51571428Y-40867363D02*
X51657142Y-40824506D01*
X49771428Y-40395935D02*
X50542856Y-41553077D01*
X48614285Y-40438792D02*
X48442857Y-40438792D01*
X48442857Y-40438792D02*
X48357142Y-40481649D01*
X48357142Y-40481649D02*
X48271428Y-40567363D01*
X48271428Y-40567363D02*
X48228571Y-40738792D01*
X48228571Y-40738792D02*
X48228571Y-41038792D01*
X48228571Y-41038792D02*
X48271428Y-41210220D01*
X48271428Y-41210220D02*
X48357142Y-41295935D01*
X48357142Y-41295935D02*
X48442857Y-41338792D01*
X48442857Y-41338792D02*
X48614285Y-41338792D01*
X48614285Y-41338792D02*
X48700000Y-41295935D01*
X48700000Y-41295935D02*
X48785714Y-41210220D01*
X48785714Y-41210220D02*
X48828571Y-41038792D01*
X48828571Y-41038792D02*
X48828571Y-40738792D01*
X48828571Y-40738792D02*
X48785714Y-40567363D01*
X48785714Y-40567363D02*
X48700000Y-40481649D01*
X48700000Y-40481649D02*
X48614285Y-40438792D01*
X47842857Y-40438792D02*
X47842857Y-41167363D01*
X47842857Y-41167363D02*
X47800000Y-41253077D01*
X47800000Y-41253077D02*
X47757143Y-41295935D01*
X47757143Y-41295935D02*
X47671428Y-41338792D01*
X47671428Y-41338792D02*
X47500000Y-41338792D01*
X47500000Y-41338792D02*
X47414285Y-41295935D01*
X47414285Y-41295935D02*
X47371428Y-41253077D01*
X47371428Y-41253077D02*
X47328571Y-41167363D01*
X47328571Y-41167363D02*
X47328571Y-40438792D01*
X47028571Y-40438792D02*
X46514286Y-40438792D01*
X46771428Y-41338792D02*
X46771428Y-40438792D01*
X45742857Y-41338792D02*
X46257143Y-41338792D01*
X46000000Y-41338792D02*
X46000000Y-40438792D01*
X46000000Y-40438792D02*
X46085714Y-40567363D01*
X46085714Y-40567363D02*
X46171429Y-40653077D01*
X46171429Y-40653077D02*
X46257143Y-40695935D01*
X44971429Y-40438792D02*
X45142857Y-40438792D01*
X45142857Y-40438792D02*
X45228571Y-40481649D01*
X45228571Y-40481649D02*
X45271429Y-40524506D01*
X45271429Y-40524506D02*
X45357143Y-40653077D01*
X45357143Y-40653077D02*
X45400000Y-40824506D01*
X45400000Y-40824506D02*
X45400000Y-41167363D01*
X45400000Y-41167363D02*
X45357143Y-41253077D01*
X45357143Y-41253077D02*
X45314286Y-41295935D01*
X45314286Y-41295935D02*
X45228571Y-41338792D01*
X45228571Y-41338792D02*
X45057143Y-41338792D01*
X45057143Y-41338792D02*
X44971429Y-41295935D01*
X44971429Y-41295935D02*
X44928571Y-41253077D01*
X44928571Y-41253077D02*
X44885714Y-41167363D01*
X44885714Y-41167363D02*
X44885714Y-40953077D01*
X44885714Y-40953077D02*
X44928571Y-40867363D01*
X44928571Y-40867363D02*
X44971429Y-40824506D01*
X44971429Y-40824506D02*
X45057143Y-40781649D01*
X45057143Y-40781649D02*
X45228571Y-40781649D01*
X45228571Y-40781649D02*
X45314286Y-40824506D01*
X45314286Y-40824506D02*
X45357143Y-40867363D01*
X45357143Y-40867363D02*
X45400000Y-40953077D01*
X61021427Y-42787742D02*
X61021427Y-41887742D01*
X61021427Y-41887742D02*
X60721427Y-42530599D01*
X60721427Y-42530599D02*
X60421427Y-41887742D01*
X60421427Y-41887742D02*
X60421427Y-42787742D01*
X59392856Y-42873456D02*
X59478570Y-42830599D01*
X59478570Y-42830599D02*
X59564284Y-42744885D01*
X59564284Y-42744885D02*
X59692856Y-42616313D01*
X59692856Y-42616313D02*
X59778570Y-42573456D01*
X59778570Y-42573456D02*
X59864284Y-42573456D01*
X59821427Y-42787742D02*
X59907142Y-42744885D01*
X59907142Y-42744885D02*
X59992856Y-42659170D01*
X59992856Y-42659170D02*
X60035713Y-42487742D01*
X60035713Y-42487742D02*
X60035713Y-42187742D01*
X60035713Y-42187742D02*
X59992856Y-42016313D01*
X59992856Y-42016313D02*
X59907142Y-41930599D01*
X59907142Y-41930599D02*
X59821427Y-41887742D01*
X59821427Y-41887742D02*
X59649999Y-41887742D01*
X59649999Y-41887742D02*
X59564284Y-41930599D01*
X59564284Y-41930599D02*
X59478570Y-42016313D01*
X59478570Y-42016313D02*
X59435713Y-42187742D01*
X59435713Y-42187742D02*
X59435713Y-42487742D01*
X59435713Y-42487742D02*
X59478570Y-42659170D01*
X59478570Y-42659170D02*
X59564284Y-42744885D01*
X59564284Y-42744885D02*
X59649999Y-42787742D01*
X59649999Y-42787742D02*
X59821427Y-42787742D01*
X58407142Y-42530599D02*
X57978571Y-42530599D01*
X58492856Y-42787742D02*
X58192856Y-41887742D01*
X58192856Y-41887742D02*
X57892856Y-42787742D01*
X57592856Y-42787742D02*
X57592856Y-41887742D01*
X57592856Y-41887742D02*
X57378570Y-41887742D01*
X57378570Y-41887742D02*
X57249999Y-41930599D01*
X57249999Y-41930599D02*
X57164284Y-42016313D01*
X57164284Y-42016313D02*
X57121427Y-42102027D01*
X57121427Y-42102027D02*
X57078570Y-42273456D01*
X57078570Y-42273456D02*
X57078570Y-42402027D01*
X57078570Y-42402027D02*
X57121427Y-42573456D01*
X57121427Y-42573456D02*
X57164284Y-42659170D01*
X57164284Y-42659170D02*
X57249999Y-42744885D01*
X57249999Y-42744885D02*
X57378570Y-42787742D01*
X57378570Y-42787742D02*
X57592856Y-42787742D01*
X56178570Y-42702027D02*
X56221427Y-42744885D01*
X56221427Y-42744885D02*
X56349999Y-42787742D01*
X56349999Y-42787742D02*
X56435713Y-42787742D01*
X56435713Y-42787742D02*
X56564284Y-42744885D01*
X56564284Y-42744885D02*
X56649999Y-42659170D01*
X56649999Y-42659170D02*
X56692856Y-42573456D01*
X56692856Y-42573456D02*
X56735713Y-42402027D01*
X56735713Y-42402027D02*
X56735713Y-42273456D01*
X56735713Y-42273456D02*
X56692856Y-42102027D01*
X56692856Y-42102027D02*
X56649999Y-42016313D01*
X56649999Y-42016313D02*
X56564284Y-41930599D01*
X56564284Y-41930599D02*
X56435713Y-41887742D01*
X56435713Y-41887742D02*
X56349999Y-41887742D01*
X56349999Y-41887742D02*
X56221427Y-41930599D01*
X56221427Y-41930599D02*
X56178570Y-41973456D01*
X54721428Y-42187742D02*
X54721428Y-42787742D01*
X54935713Y-41844885D02*
X55149999Y-42487742D01*
X55149999Y-42487742D02*
X54592856Y-42487742D01*
X52921428Y-41844885D02*
X53692856Y-43002027D01*
X51935714Y-42787742D02*
X51935714Y-41887742D01*
X51935714Y-41887742D02*
X51721428Y-41887742D01*
X51721428Y-41887742D02*
X51592857Y-41930599D01*
X51592857Y-41930599D02*
X51507142Y-42016313D01*
X51507142Y-42016313D02*
X51464285Y-42102027D01*
X51464285Y-42102027D02*
X51421428Y-42273456D01*
X51421428Y-42273456D02*
X51421428Y-42402027D01*
X51421428Y-42402027D02*
X51464285Y-42573456D01*
X51464285Y-42573456D02*
X51507142Y-42659170D01*
X51507142Y-42659170D02*
X51592857Y-42744885D01*
X51592857Y-42744885D02*
X51721428Y-42787742D01*
X51721428Y-42787742D02*
X51935714Y-42787742D01*
X50864285Y-41887742D02*
X50692857Y-41887742D01*
X50692857Y-41887742D02*
X50607142Y-41930599D01*
X50607142Y-41930599D02*
X50521428Y-42016313D01*
X50521428Y-42016313D02*
X50478571Y-42187742D01*
X50478571Y-42187742D02*
X50478571Y-42487742D01*
X50478571Y-42487742D02*
X50521428Y-42659170D01*
X50521428Y-42659170D02*
X50607142Y-42744885D01*
X50607142Y-42744885D02*
X50692857Y-42787742D01*
X50692857Y-42787742D02*
X50864285Y-42787742D01*
X50864285Y-42787742D02*
X50950000Y-42744885D01*
X50950000Y-42744885D02*
X51035714Y-42659170D01*
X51035714Y-42659170D02*
X51078571Y-42487742D01*
X51078571Y-42487742D02*
X51078571Y-42187742D01*
X51078571Y-42187742D02*
X51035714Y-42016313D01*
X51035714Y-42016313D02*
X50950000Y-41930599D01*
X50950000Y-41930599D02*
X50864285Y-41887742D01*
X48978571Y-41887742D02*
X49407143Y-41887742D01*
X49407143Y-41887742D02*
X49450000Y-42316313D01*
X49450000Y-42316313D02*
X49407143Y-42273456D01*
X49407143Y-42273456D02*
X49321429Y-42230599D01*
X49321429Y-42230599D02*
X49107143Y-42230599D01*
X49107143Y-42230599D02*
X49021429Y-42273456D01*
X49021429Y-42273456D02*
X48978571Y-42316313D01*
X48978571Y-42316313D02*
X48935714Y-42402027D01*
X48935714Y-42402027D02*
X48935714Y-42616313D01*
X48935714Y-42616313D02*
X48978571Y-42702027D01*
X48978571Y-42702027D02*
X49021429Y-42744885D01*
X49021429Y-42744885D02*
X49107143Y-42787742D01*
X49107143Y-42787742D02*
X49321429Y-42787742D01*
X49321429Y-42787742D02*
X49407143Y-42744885D01*
X49407143Y-42744885D02*
X49450000Y-42702027D01*
X61942856Y-43765263D02*
X61814284Y-43808120D01*
X61814284Y-43808120D02*
X61771427Y-43850977D01*
X61771427Y-43850977D02*
X61728570Y-43936692D01*
X61728570Y-43936692D02*
X61728570Y-44065263D01*
X61728570Y-44065263D02*
X61771427Y-44150977D01*
X61771427Y-44150977D02*
X61814284Y-44193835D01*
X61814284Y-44193835D02*
X61899999Y-44236692D01*
X61899999Y-44236692D02*
X62242856Y-44236692D01*
X62242856Y-44236692D02*
X62242856Y-43336692D01*
X62242856Y-43336692D02*
X61942856Y-43336692D01*
X61942856Y-43336692D02*
X61857142Y-43379549D01*
X61857142Y-43379549D02*
X61814284Y-43422406D01*
X61814284Y-43422406D02*
X61771427Y-43508120D01*
X61771427Y-43508120D02*
X61771427Y-43593835D01*
X61771427Y-43593835D02*
X61814284Y-43679549D01*
X61814284Y-43679549D02*
X61857142Y-43722406D01*
X61857142Y-43722406D02*
X61942856Y-43765263D01*
X61942856Y-43765263D02*
X62242856Y-43765263D01*
X61342856Y-44236692D02*
X61342856Y-43336692D01*
X61342856Y-43765263D02*
X60828570Y-43765263D01*
X60828570Y-44236692D02*
X60828570Y-43336692D01*
X59928570Y-44236692D02*
X60442856Y-44236692D01*
X60185713Y-44236692D02*
X60185713Y-43336692D01*
X60185713Y-43336692D02*
X60271427Y-43465263D01*
X60271427Y-43465263D02*
X60357142Y-43550977D01*
X60357142Y-43550977D02*
X60442856Y-43593835D01*
X59628570Y-43336692D02*
X59028570Y-43336692D01*
X59028570Y-43336692D02*
X59414284Y-44236692D01*
X58257141Y-43336692D02*
X58685713Y-43336692D01*
X58685713Y-43336692D02*
X58728570Y-43765263D01*
X58728570Y-43765263D02*
X58685713Y-43722406D01*
X58685713Y-43722406D02*
X58599999Y-43679549D01*
X58599999Y-43679549D02*
X58385713Y-43679549D01*
X58385713Y-43679549D02*
X58299999Y-43722406D01*
X58299999Y-43722406D02*
X58257141Y-43765263D01*
X58257141Y-43765263D02*
X58214284Y-43850977D01*
X58214284Y-43850977D02*
X58214284Y-44065263D01*
X58214284Y-44065263D02*
X58257141Y-44150977D01*
X58257141Y-44150977D02*
X58299999Y-44193835D01*
X58299999Y-44193835D02*
X58385713Y-44236692D01*
X58385713Y-44236692D02*
X58599999Y-44236692D01*
X58599999Y-44236692D02*
X58685713Y-44193835D01*
X58685713Y-44193835D02*
X58728570Y-44150977D01*
X57657141Y-43336692D02*
X57571427Y-43336692D01*
X57571427Y-43336692D02*
X57485713Y-43379549D01*
X57485713Y-43379549D02*
X57442856Y-43422406D01*
X57442856Y-43422406D02*
X57399998Y-43508120D01*
X57399998Y-43508120D02*
X57357141Y-43679549D01*
X57357141Y-43679549D02*
X57357141Y-43893835D01*
X57357141Y-43893835D02*
X57399998Y-44065263D01*
X57399998Y-44065263D02*
X57442856Y-44150977D01*
X57442856Y-44150977D02*
X57485713Y-44193835D01*
X57485713Y-44193835D02*
X57571427Y-44236692D01*
X57571427Y-44236692D02*
X57657141Y-44236692D01*
X57657141Y-44236692D02*
X57742856Y-44193835D01*
X57742856Y-44193835D02*
X57785713Y-44150977D01*
X57785713Y-44150977D02*
X57828570Y-44065263D01*
X57828570Y-44065263D02*
X57871427Y-43893835D01*
X57871427Y-43893835D02*
X57871427Y-43679549D01*
X57871427Y-43679549D02*
X57828570Y-43508120D01*
X57828570Y-43508120D02*
X57785713Y-43422406D01*
X57785713Y-43422406D02*
X57742856Y-43379549D01*
X57742856Y-43379549D02*
X57657141Y-43336692D01*
X56114284Y-43336692D02*
X56028570Y-43336692D01*
X56028570Y-43336692D02*
X55942856Y-43379549D01*
X55942856Y-43379549D02*
X55899999Y-43422406D01*
X55899999Y-43422406D02*
X55857141Y-43508120D01*
X55857141Y-43508120D02*
X55814284Y-43679549D01*
X55814284Y-43679549D02*
X55814284Y-43893835D01*
X55814284Y-43893835D02*
X55857141Y-44065263D01*
X55857141Y-44065263D02*
X55899999Y-44150977D01*
X55899999Y-44150977D02*
X55942856Y-44193835D01*
X55942856Y-44193835D02*
X56028570Y-44236692D01*
X56028570Y-44236692D02*
X56114284Y-44236692D01*
X56114284Y-44236692D02*
X56199999Y-44193835D01*
X56199999Y-44193835D02*
X56242856Y-44150977D01*
X56242856Y-44150977D02*
X56285713Y-44065263D01*
X56285713Y-44065263D02*
X56328570Y-43893835D01*
X56328570Y-43893835D02*
X56328570Y-43679549D01*
X56328570Y-43679549D02*
X56285713Y-43508120D01*
X56285713Y-43508120D02*
X56242856Y-43422406D01*
X56242856Y-43422406D02*
X56199999Y-43379549D01*
X56199999Y-43379549D02*
X56114284Y-43336692D01*
X55514284Y-44236692D02*
X55042856Y-43636692D01*
X55514284Y-43636692D02*
X55042856Y-44236692D01*
X54742856Y-43422406D02*
X54699999Y-43379549D01*
X54699999Y-43379549D02*
X54614285Y-43336692D01*
X54614285Y-43336692D02*
X54399999Y-43336692D01*
X54399999Y-43336692D02*
X54314285Y-43379549D01*
X54314285Y-43379549D02*
X54271427Y-43422406D01*
X54271427Y-43422406D02*
X54228570Y-43508120D01*
X54228570Y-43508120D02*
X54228570Y-43593835D01*
X54228570Y-43593835D02*
X54271427Y-43722406D01*
X54271427Y-43722406D02*
X54785713Y-44236692D01*
X54785713Y-44236692D02*
X54228570Y-44236692D01*
X53928570Y-43336692D02*
X53371427Y-43336692D01*
X53371427Y-43336692D02*
X53671427Y-43679549D01*
X53671427Y-43679549D02*
X53542856Y-43679549D01*
X53542856Y-43679549D02*
X53457142Y-43722406D01*
X53457142Y-43722406D02*
X53414284Y-43765263D01*
X53414284Y-43765263D02*
X53371427Y-43850977D01*
X53371427Y-43850977D02*
X53371427Y-44065263D01*
X53371427Y-44065263D02*
X53414284Y-44150977D01*
X53414284Y-44150977D02*
X53457142Y-44193835D01*
X53457142Y-44193835D02*
X53542856Y-44236692D01*
X53542856Y-44236692D02*
X53799999Y-44236692D01*
X53799999Y-44236692D02*
X53885713Y-44193835D01*
X53885713Y-44193835D02*
X53928570Y-44150977D01*
X51657142Y-43293835D02*
X52428570Y-44450977D01*
X50499999Y-43336692D02*
X50414285Y-43336692D01*
X50414285Y-43336692D02*
X50328571Y-43379549D01*
X50328571Y-43379549D02*
X50285714Y-43422406D01*
X50285714Y-43422406D02*
X50242856Y-43508120D01*
X50242856Y-43508120D02*
X50199999Y-43679549D01*
X50199999Y-43679549D02*
X50199999Y-43893835D01*
X50199999Y-43893835D02*
X50242856Y-44065263D01*
X50242856Y-44065263D02*
X50285714Y-44150977D01*
X50285714Y-44150977D02*
X50328571Y-44193835D01*
X50328571Y-44193835D02*
X50414285Y-44236692D01*
X50414285Y-44236692D02*
X50499999Y-44236692D01*
X50499999Y-44236692D02*
X50585714Y-44193835D01*
X50585714Y-44193835D02*
X50628571Y-44150977D01*
X50628571Y-44150977D02*
X50671428Y-44065263D01*
X50671428Y-44065263D02*
X50714285Y-43893835D01*
X50714285Y-43893835D02*
X50714285Y-43679549D01*
X50714285Y-43679549D02*
X50671428Y-43508120D01*
X50671428Y-43508120D02*
X50628571Y-43422406D01*
X50628571Y-43422406D02*
X50585714Y-43379549D01*
X50585714Y-43379549D02*
X50499999Y-43336692D01*
X49899999Y-44236692D02*
X49428571Y-43636692D01*
X49899999Y-43636692D02*
X49428571Y-44236692D01*
X48657142Y-43336692D02*
X49085714Y-43336692D01*
X49085714Y-43336692D02*
X49128571Y-43765263D01*
X49128571Y-43765263D02*
X49085714Y-43722406D01*
X49085714Y-43722406D02*
X49000000Y-43679549D01*
X49000000Y-43679549D02*
X48785714Y-43679549D01*
X48785714Y-43679549D02*
X48700000Y-43722406D01*
X48700000Y-43722406D02*
X48657142Y-43765263D01*
X48657142Y-43765263D02*
X48614285Y-43850977D01*
X48614285Y-43850977D02*
X48614285Y-44065263D01*
X48614285Y-44065263D02*
X48657142Y-44150977D01*
X48657142Y-44150977D02*
X48700000Y-44193835D01*
X48700000Y-44193835D02*
X48785714Y-44236692D01*
X48785714Y-44236692D02*
X49000000Y-44236692D01*
X49000000Y-44236692D02*
X49085714Y-44193835D01*
X49085714Y-44193835D02*
X49128571Y-44150977D01*
X47714285Y-44150977D02*
X47757142Y-44193835D01*
X47757142Y-44193835D02*
X47885714Y-44236692D01*
X47885714Y-44236692D02*
X47971428Y-44236692D01*
X47971428Y-44236692D02*
X48099999Y-44193835D01*
X48099999Y-44193835D02*
X48185714Y-44108120D01*
X48185714Y-44108120D02*
X48228571Y-44022406D01*
X48228571Y-44022406D02*
X48271428Y-43850977D01*
X48271428Y-43850977D02*
X48271428Y-43722406D01*
X48271428Y-43722406D02*
X48228571Y-43550977D01*
X48228571Y-43550977D02*
X48185714Y-43465263D01*
X48185714Y-43465263D02*
X48099999Y-43379549D01*
X48099999Y-43379549D02*
X47971428Y-43336692D01*
X47971428Y-43336692D02*
X47885714Y-43336692D01*
X47885714Y-43336692D02*
X47757142Y-43379549D01*
X47757142Y-43379549D02*
X47714285Y-43422406D01*
X61942856Y-45214213D02*
X61814284Y-45257070D01*
X61814284Y-45257070D02*
X61771427Y-45299927D01*
X61771427Y-45299927D02*
X61728570Y-45385642D01*
X61728570Y-45385642D02*
X61728570Y-45514213D01*
X61728570Y-45514213D02*
X61771427Y-45599927D01*
X61771427Y-45599927D02*
X61814284Y-45642785D01*
X61814284Y-45642785D02*
X61899999Y-45685642D01*
X61899999Y-45685642D02*
X62242856Y-45685642D01*
X62242856Y-45685642D02*
X62242856Y-44785642D01*
X62242856Y-44785642D02*
X61942856Y-44785642D01*
X61942856Y-44785642D02*
X61857142Y-44828499D01*
X61857142Y-44828499D02*
X61814284Y-44871356D01*
X61814284Y-44871356D02*
X61771427Y-44957070D01*
X61771427Y-44957070D02*
X61771427Y-45042785D01*
X61771427Y-45042785D02*
X61814284Y-45128499D01*
X61814284Y-45128499D02*
X61857142Y-45171356D01*
X61857142Y-45171356D02*
X61942856Y-45214213D01*
X61942856Y-45214213D02*
X62242856Y-45214213D01*
X61342856Y-45685642D02*
X61342856Y-44785642D01*
X61342856Y-44785642D02*
X61042856Y-45428499D01*
X61042856Y-45428499D02*
X60742856Y-44785642D01*
X60742856Y-44785642D02*
X60742856Y-45685642D01*
X60314285Y-45214213D02*
X60014285Y-45214213D01*
X59885713Y-45685642D02*
X60314285Y-45685642D01*
X60314285Y-45685642D02*
X60314285Y-44785642D01*
X60314285Y-44785642D02*
X59885713Y-44785642D01*
X59114285Y-44785642D02*
X59285713Y-44785642D01*
X59285713Y-44785642D02*
X59371427Y-44828499D01*
X59371427Y-44828499D02*
X59414285Y-44871356D01*
X59414285Y-44871356D02*
X59499999Y-44999927D01*
X59499999Y-44999927D02*
X59542856Y-45171356D01*
X59542856Y-45171356D02*
X59542856Y-45514213D01*
X59542856Y-45514213D02*
X59499999Y-45599927D01*
X59499999Y-45599927D02*
X59457142Y-45642785D01*
X59457142Y-45642785D02*
X59371427Y-45685642D01*
X59371427Y-45685642D02*
X59199999Y-45685642D01*
X59199999Y-45685642D02*
X59114285Y-45642785D01*
X59114285Y-45642785D02*
X59071427Y-45599927D01*
X59071427Y-45599927D02*
X59028570Y-45514213D01*
X59028570Y-45514213D02*
X59028570Y-45299927D01*
X59028570Y-45299927D02*
X59071427Y-45214213D01*
X59071427Y-45214213D02*
X59114285Y-45171356D01*
X59114285Y-45171356D02*
X59199999Y-45128499D01*
X59199999Y-45128499D02*
X59371427Y-45128499D01*
X59371427Y-45128499D02*
X59457142Y-45171356D01*
X59457142Y-45171356D02*
X59499999Y-45214213D01*
X59499999Y-45214213D02*
X59542856Y-45299927D01*
X58514284Y-45171356D02*
X58599999Y-45128499D01*
X58599999Y-45128499D02*
X58642856Y-45085642D01*
X58642856Y-45085642D02*
X58685713Y-44999927D01*
X58685713Y-44999927D02*
X58685713Y-44957070D01*
X58685713Y-44957070D02*
X58642856Y-44871356D01*
X58642856Y-44871356D02*
X58599999Y-44828499D01*
X58599999Y-44828499D02*
X58514284Y-44785642D01*
X58514284Y-44785642D02*
X58342856Y-44785642D01*
X58342856Y-44785642D02*
X58257142Y-44828499D01*
X58257142Y-44828499D02*
X58214284Y-44871356D01*
X58214284Y-44871356D02*
X58171427Y-44957070D01*
X58171427Y-44957070D02*
X58171427Y-44999927D01*
X58171427Y-44999927D02*
X58214284Y-45085642D01*
X58214284Y-45085642D02*
X58257142Y-45128499D01*
X58257142Y-45128499D02*
X58342856Y-45171356D01*
X58342856Y-45171356D02*
X58514284Y-45171356D01*
X58514284Y-45171356D02*
X58599999Y-45214213D01*
X58599999Y-45214213D02*
X58642856Y-45257070D01*
X58642856Y-45257070D02*
X58685713Y-45342785D01*
X58685713Y-45342785D02*
X58685713Y-45514213D01*
X58685713Y-45514213D02*
X58642856Y-45599927D01*
X58642856Y-45599927D02*
X58599999Y-45642785D01*
X58599999Y-45642785D02*
X58514284Y-45685642D01*
X58514284Y-45685642D02*
X58342856Y-45685642D01*
X58342856Y-45685642D02*
X58257142Y-45642785D01*
X58257142Y-45642785D02*
X58214284Y-45599927D01*
X58214284Y-45599927D02*
X58171427Y-45514213D01*
X58171427Y-45514213D02*
X58171427Y-45342785D01*
X58171427Y-45342785D02*
X58214284Y-45257070D01*
X58214284Y-45257070D02*
X58257142Y-45214213D01*
X58257142Y-45214213D02*
X58342856Y-45171356D01*
X57657141Y-45171356D02*
X57742856Y-45128499D01*
X57742856Y-45128499D02*
X57785713Y-45085642D01*
X57785713Y-45085642D02*
X57828570Y-44999927D01*
X57828570Y-44999927D02*
X57828570Y-44957070D01*
X57828570Y-44957070D02*
X57785713Y-44871356D01*
X57785713Y-44871356D02*
X57742856Y-44828499D01*
X57742856Y-44828499D02*
X57657141Y-44785642D01*
X57657141Y-44785642D02*
X57485713Y-44785642D01*
X57485713Y-44785642D02*
X57399999Y-44828499D01*
X57399999Y-44828499D02*
X57357141Y-44871356D01*
X57357141Y-44871356D02*
X57314284Y-44957070D01*
X57314284Y-44957070D02*
X57314284Y-44999927D01*
X57314284Y-44999927D02*
X57357141Y-45085642D01*
X57357141Y-45085642D02*
X57399999Y-45128499D01*
X57399999Y-45128499D02*
X57485713Y-45171356D01*
X57485713Y-45171356D02*
X57657141Y-45171356D01*
X57657141Y-45171356D02*
X57742856Y-45214213D01*
X57742856Y-45214213D02*
X57785713Y-45257070D01*
X57785713Y-45257070D02*
X57828570Y-45342785D01*
X57828570Y-45342785D02*
X57828570Y-45514213D01*
X57828570Y-45514213D02*
X57785713Y-45599927D01*
X57785713Y-45599927D02*
X57742856Y-45642785D01*
X57742856Y-45642785D02*
X57657141Y-45685642D01*
X57657141Y-45685642D02*
X57485713Y-45685642D01*
X57485713Y-45685642D02*
X57399999Y-45642785D01*
X57399999Y-45642785D02*
X57357141Y-45599927D01*
X57357141Y-45599927D02*
X57314284Y-45514213D01*
X57314284Y-45514213D02*
X57314284Y-45342785D01*
X57314284Y-45342785D02*
X57357141Y-45257070D01*
X57357141Y-45257070D02*
X57399999Y-45214213D01*
X57399999Y-45214213D02*
X57485713Y-45171356D01*
X56071427Y-44785642D02*
X55985713Y-44785642D01*
X55985713Y-44785642D02*
X55899999Y-44828499D01*
X55899999Y-44828499D02*
X55857142Y-44871356D01*
X55857142Y-44871356D02*
X55814284Y-44957070D01*
X55814284Y-44957070D02*
X55771427Y-45128499D01*
X55771427Y-45128499D02*
X55771427Y-45342785D01*
X55771427Y-45342785D02*
X55814284Y-45514213D01*
X55814284Y-45514213D02*
X55857142Y-45599927D01*
X55857142Y-45599927D02*
X55899999Y-45642785D01*
X55899999Y-45642785D02*
X55985713Y-45685642D01*
X55985713Y-45685642D02*
X56071427Y-45685642D01*
X56071427Y-45685642D02*
X56157142Y-45642785D01*
X56157142Y-45642785D02*
X56199999Y-45599927D01*
X56199999Y-45599927D02*
X56242856Y-45514213D01*
X56242856Y-45514213D02*
X56285713Y-45342785D01*
X56285713Y-45342785D02*
X56285713Y-45128499D01*
X56285713Y-45128499D02*
X56242856Y-44957070D01*
X56242856Y-44957070D02*
X56199999Y-44871356D01*
X56199999Y-44871356D02*
X56157142Y-44828499D01*
X56157142Y-44828499D02*
X56071427Y-44785642D01*
X55471427Y-45685642D02*
X54999999Y-45085642D01*
X55471427Y-45085642D02*
X54999999Y-45685642D01*
X54742856Y-44785642D02*
X54142856Y-44785642D01*
X54142856Y-44785642D02*
X54528570Y-45685642D01*
X53414285Y-44785642D02*
X53585713Y-44785642D01*
X53585713Y-44785642D02*
X53671427Y-44828499D01*
X53671427Y-44828499D02*
X53714285Y-44871356D01*
X53714285Y-44871356D02*
X53799999Y-44999927D01*
X53799999Y-44999927D02*
X53842856Y-45171356D01*
X53842856Y-45171356D02*
X53842856Y-45514213D01*
X53842856Y-45514213D02*
X53799999Y-45599927D01*
X53799999Y-45599927D02*
X53757142Y-45642785D01*
X53757142Y-45642785D02*
X53671427Y-45685642D01*
X53671427Y-45685642D02*
X53499999Y-45685642D01*
X53499999Y-45685642D02*
X53414285Y-45642785D01*
X53414285Y-45642785D02*
X53371427Y-45599927D01*
X53371427Y-45599927D02*
X53328570Y-45514213D01*
X53328570Y-45514213D02*
X53328570Y-45299927D01*
X53328570Y-45299927D02*
X53371427Y-45214213D01*
X53371427Y-45214213D02*
X53414285Y-45171356D01*
X53414285Y-45171356D02*
X53499999Y-45128499D01*
X53499999Y-45128499D02*
X53671427Y-45128499D01*
X53671427Y-45128499D02*
X53757142Y-45171356D01*
X53757142Y-45171356D02*
X53799999Y-45214213D01*
X53799999Y-45214213D02*
X53842856Y-45299927D01*
X51614285Y-44742785D02*
X52385713Y-45899927D01*
X50457142Y-44785642D02*
X50371428Y-44785642D01*
X50371428Y-44785642D02*
X50285714Y-44828499D01*
X50285714Y-44828499D02*
X50242857Y-44871356D01*
X50242857Y-44871356D02*
X50199999Y-44957070D01*
X50199999Y-44957070D02*
X50157142Y-45128499D01*
X50157142Y-45128499D02*
X50157142Y-45342785D01*
X50157142Y-45342785D02*
X50199999Y-45514213D01*
X50199999Y-45514213D02*
X50242857Y-45599927D01*
X50242857Y-45599927D02*
X50285714Y-45642785D01*
X50285714Y-45642785D02*
X50371428Y-45685642D01*
X50371428Y-45685642D02*
X50457142Y-45685642D01*
X50457142Y-45685642D02*
X50542857Y-45642785D01*
X50542857Y-45642785D02*
X50585714Y-45599927D01*
X50585714Y-45599927D02*
X50628571Y-45514213D01*
X50628571Y-45514213D02*
X50671428Y-45342785D01*
X50671428Y-45342785D02*
X50671428Y-45128499D01*
X50671428Y-45128499D02*
X50628571Y-44957070D01*
X50628571Y-44957070D02*
X50585714Y-44871356D01*
X50585714Y-44871356D02*
X50542857Y-44828499D01*
X50542857Y-44828499D02*
X50457142Y-44785642D01*
X49857142Y-45685642D02*
X49385714Y-45085642D01*
X49857142Y-45085642D02*
X49385714Y-45685642D01*
X49128571Y-44785642D02*
X48528571Y-44785642D01*
X48528571Y-44785642D02*
X48914285Y-45685642D01*
X48271428Y-44785642D02*
X47671428Y-44785642D01*
X47671428Y-44785642D02*
X48057142Y-45685642D01*
X62949998Y-46234592D02*
X62949998Y-46877449D01*
X62949998Y-46877449D02*
X62992855Y-47006020D01*
X62992855Y-47006020D02*
X63078569Y-47091735D01*
X63078569Y-47091735D02*
X63207141Y-47134592D01*
X63207141Y-47134592D02*
X63292855Y-47134592D01*
X62521427Y-47134592D02*
X62521427Y-46234592D01*
X62521427Y-46234592D02*
X62178570Y-46234592D01*
X62178570Y-46234592D02*
X62092855Y-46277449D01*
X62092855Y-46277449D02*
X62049998Y-46320306D01*
X62049998Y-46320306D02*
X62007141Y-46406020D01*
X62007141Y-46406020D02*
X62007141Y-46534592D01*
X62007141Y-46534592D02*
X62049998Y-46620306D01*
X62049998Y-46620306D02*
X62092855Y-46663163D01*
X62092855Y-46663163D02*
X62178570Y-46706020D01*
X62178570Y-46706020D02*
X62521427Y-46706020D01*
X61149998Y-47134592D02*
X61664284Y-47134592D01*
X61407141Y-47134592D02*
X61407141Y-46234592D01*
X61407141Y-46234592D02*
X61492855Y-46363163D01*
X61492855Y-46363163D02*
X61578570Y-46448877D01*
X61578570Y-46448877D02*
X61664284Y-46491735D01*
X60121427Y-46191735D02*
X60892855Y-47348877D01*
X59864284Y-46320306D02*
X59821427Y-46277449D01*
X59821427Y-46277449D02*
X59735713Y-46234592D01*
X59735713Y-46234592D02*
X59521427Y-46234592D01*
X59521427Y-46234592D02*
X59435713Y-46277449D01*
X59435713Y-46277449D02*
X59392855Y-46320306D01*
X59392855Y-46320306D02*
X59349998Y-46406020D01*
X59349998Y-46406020D02*
X59349998Y-46491735D01*
X59349998Y-46491735D02*
X59392855Y-46620306D01*
X59392855Y-46620306D02*
X59907141Y-47134592D01*
X59907141Y-47134592D02*
X59349998Y-47134592D01*
X58964284Y-47048877D02*
X58921427Y-47091735D01*
X58921427Y-47091735D02*
X58964284Y-47134592D01*
X58964284Y-47134592D02*
X59007141Y-47091735D01*
X59007141Y-47091735D02*
X58964284Y-47048877D01*
X58964284Y-47048877D02*
X58964284Y-47134592D01*
X58964284Y-46577449D02*
X58921427Y-46620306D01*
X58921427Y-46620306D02*
X58964284Y-46663163D01*
X58964284Y-46663163D02*
X59007141Y-46620306D01*
X59007141Y-46620306D02*
X58964284Y-46577449D01*
X58964284Y-46577449D02*
X58964284Y-46663163D01*
X57335713Y-47048877D02*
X57378570Y-47091735D01*
X57378570Y-47091735D02*
X57507142Y-47134592D01*
X57507142Y-47134592D02*
X57592856Y-47134592D01*
X57592856Y-47134592D02*
X57721427Y-47091735D01*
X57721427Y-47091735D02*
X57807142Y-47006020D01*
X57807142Y-47006020D02*
X57849999Y-46920306D01*
X57849999Y-46920306D02*
X57892856Y-46748877D01*
X57892856Y-46748877D02*
X57892856Y-46620306D01*
X57892856Y-46620306D02*
X57849999Y-46448877D01*
X57849999Y-46448877D02*
X57807142Y-46363163D01*
X57807142Y-46363163D02*
X57721427Y-46277449D01*
X57721427Y-46277449D02*
X57592856Y-46234592D01*
X57592856Y-46234592D02*
X57507142Y-46234592D01*
X57507142Y-46234592D02*
X57378570Y-46277449D01*
X57378570Y-46277449D02*
X57335713Y-46320306D01*
X56949999Y-46234592D02*
X56949999Y-46963163D01*
X56949999Y-46963163D02*
X56907142Y-47048877D01*
X56907142Y-47048877D02*
X56864285Y-47091735D01*
X56864285Y-47091735D02*
X56778570Y-47134592D01*
X56778570Y-47134592D02*
X56607142Y-47134592D01*
X56607142Y-47134592D02*
X56521427Y-47091735D01*
X56521427Y-47091735D02*
X56478570Y-47048877D01*
X56478570Y-47048877D02*
X56435713Y-46963163D01*
X56435713Y-46963163D02*
X56435713Y-46234592D01*
X56135713Y-46234592D02*
X55621428Y-46234592D01*
X55878570Y-47134592D02*
X55878570Y-46234592D01*
X54164285Y-46277449D02*
X54250000Y-46234592D01*
X54250000Y-46234592D02*
X54378571Y-46234592D01*
X54378571Y-46234592D02*
X54507142Y-46277449D01*
X54507142Y-46277449D02*
X54592857Y-46363163D01*
X54592857Y-46363163D02*
X54635714Y-46448877D01*
X54635714Y-46448877D02*
X54678571Y-46620306D01*
X54678571Y-46620306D02*
X54678571Y-46748877D01*
X54678571Y-46748877D02*
X54635714Y-46920306D01*
X54635714Y-46920306D02*
X54592857Y-47006020D01*
X54592857Y-47006020D02*
X54507142Y-47091735D01*
X54507142Y-47091735D02*
X54378571Y-47134592D01*
X54378571Y-47134592D02*
X54292857Y-47134592D01*
X54292857Y-47134592D02*
X54164285Y-47091735D01*
X54164285Y-47091735D02*
X54121428Y-47048877D01*
X54121428Y-47048877D02*
X54121428Y-46748877D01*
X54121428Y-46748877D02*
X54292857Y-46748877D01*
X53735714Y-47134592D02*
X53735714Y-46234592D01*
X53735714Y-46234592D02*
X53221428Y-47134592D01*
X53221428Y-47134592D02*
X53221428Y-46234592D01*
X52792857Y-47134592D02*
X52792857Y-46234592D01*
X52792857Y-46234592D02*
X52578571Y-46234592D01*
X52578571Y-46234592D02*
X52450000Y-46277449D01*
X52450000Y-46277449D02*
X52364285Y-46363163D01*
X52364285Y-46363163D02*
X52321428Y-46448877D01*
X52321428Y-46448877D02*
X52278571Y-46620306D01*
X52278571Y-46620306D02*
X52278571Y-46748877D01*
X52278571Y-46748877D02*
X52321428Y-46920306D01*
X52321428Y-46920306D02*
X52364285Y-47006020D01*
X52364285Y-47006020D02*
X52450000Y-47091735D01*
X52450000Y-47091735D02*
X52578571Y-47134592D01*
X52578571Y-47134592D02*
X52792857Y-47134592D01*
X50907143Y-46663163D02*
X50778571Y-46706020D01*
X50778571Y-46706020D02*
X50735714Y-46748877D01*
X50735714Y-46748877D02*
X50692857Y-46834592D01*
X50692857Y-46834592D02*
X50692857Y-46963163D01*
X50692857Y-46963163D02*
X50735714Y-47048877D01*
X50735714Y-47048877D02*
X50778571Y-47091735D01*
X50778571Y-47091735D02*
X50864286Y-47134592D01*
X50864286Y-47134592D02*
X51207143Y-47134592D01*
X51207143Y-47134592D02*
X51207143Y-46234592D01*
X51207143Y-46234592D02*
X50907143Y-46234592D01*
X50907143Y-46234592D02*
X50821429Y-46277449D01*
X50821429Y-46277449D02*
X50778571Y-46320306D01*
X50778571Y-46320306D02*
X50735714Y-46406020D01*
X50735714Y-46406020D02*
X50735714Y-46491735D01*
X50735714Y-46491735D02*
X50778571Y-46577449D01*
X50778571Y-46577449D02*
X50821429Y-46620306D01*
X50821429Y-46620306D02*
X50907143Y-46663163D01*
X50907143Y-46663163D02*
X51207143Y-46663163D01*
X49792857Y-47134592D02*
X50092857Y-46706020D01*
X50307143Y-47134592D02*
X50307143Y-46234592D01*
X50307143Y-46234592D02*
X49964286Y-46234592D01*
X49964286Y-46234592D02*
X49878571Y-46277449D01*
X49878571Y-46277449D02*
X49835714Y-46320306D01*
X49835714Y-46320306D02*
X49792857Y-46406020D01*
X49792857Y-46406020D02*
X49792857Y-46534592D01*
X49792857Y-46534592D02*
X49835714Y-46620306D01*
X49835714Y-46620306D02*
X49878571Y-46663163D01*
X49878571Y-46663163D02*
X49964286Y-46706020D01*
X49964286Y-46706020D02*
X50307143Y-46706020D01*
X49407143Y-47134592D02*
X49407143Y-46234592D01*
X48978572Y-47134592D02*
X48978572Y-46234592D01*
X48978572Y-46234592D02*
X48764286Y-46234592D01*
X48764286Y-46234592D02*
X48635715Y-46277449D01*
X48635715Y-46277449D02*
X48550000Y-46363163D01*
X48550000Y-46363163D02*
X48507143Y-46448877D01*
X48507143Y-46448877D02*
X48464286Y-46620306D01*
X48464286Y-46620306D02*
X48464286Y-46748877D01*
X48464286Y-46748877D02*
X48507143Y-46920306D01*
X48507143Y-46920306D02*
X48550000Y-47006020D01*
X48550000Y-47006020D02*
X48635715Y-47091735D01*
X48635715Y-47091735D02*
X48764286Y-47134592D01*
X48764286Y-47134592D02*
X48978572Y-47134592D01*
X47607143Y-46277449D02*
X47692858Y-46234592D01*
X47692858Y-46234592D02*
X47821429Y-46234592D01*
X47821429Y-46234592D02*
X47950000Y-46277449D01*
X47950000Y-46277449D02*
X48035715Y-46363163D01*
X48035715Y-46363163D02*
X48078572Y-46448877D01*
X48078572Y-46448877D02*
X48121429Y-46620306D01*
X48121429Y-46620306D02*
X48121429Y-46748877D01*
X48121429Y-46748877D02*
X48078572Y-46920306D01*
X48078572Y-46920306D02*
X48035715Y-47006020D01*
X48035715Y-47006020D02*
X47950000Y-47091735D01*
X47950000Y-47091735D02*
X47821429Y-47134592D01*
X47821429Y-47134592D02*
X47735715Y-47134592D01*
X47735715Y-47134592D02*
X47607143Y-47091735D01*
X47607143Y-47091735D02*
X47564286Y-47048877D01*
X47564286Y-47048877D02*
X47564286Y-46748877D01*
X47564286Y-46748877D02*
X47735715Y-46748877D01*
X47178572Y-46663163D02*
X46878572Y-46663163D01*
X46750000Y-47134592D02*
X47178572Y-47134592D01*
X47178572Y-47134592D02*
X47178572Y-46234592D01*
X47178572Y-46234592D02*
X46750000Y-46234592D01*
X62521428Y-48112113D02*
X62392856Y-48154970D01*
X62392856Y-48154970D02*
X62349999Y-48197827D01*
X62349999Y-48197827D02*
X62307142Y-48283542D01*
X62307142Y-48283542D02*
X62307142Y-48412113D01*
X62307142Y-48412113D02*
X62349999Y-48497827D01*
X62349999Y-48497827D02*
X62392856Y-48540685D01*
X62392856Y-48540685D02*
X62478571Y-48583542D01*
X62478571Y-48583542D02*
X62821428Y-48583542D01*
X62821428Y-48583542D02*
X62821428Y-47683542D01*
X62821428Y-47683542D02*
X62521428Y-47683542D01*
X62521428Y-47683542D02*
X62435714Y-47726399D01*
X62435714Y-47726399D02*
X62392856Y-47769256D01*
X62392856Y-47769256D02*
X62349999Y-47854970D01*
X62349999Y-47854970D02*
X62349999Y-47940685D01*
X62349999Y-47940685D02*
X62392856Y-48026399D01*
X62392856Y-48026399D02*
X62435714Y-48069256D01*
X62435714Y-48069256D02*
X62521428Y-48112113D01*
X62521428Y-48112113D02*
X62821428Y-48112113D01*
X61921428Y-48112113D02*
X61621428Y-48112113D01*
X61492856Y-48583542D02*
X61921428Y-48583542D01*
X61921428Y-48583542D02*
X61921428Y-47683542D01*
X61921428Y-47683542D02*
X61492856Y-47683542D01*
X60807142Y-48112113D02*
X61107142Y-48112113D01*
X61107142Y-48583542D02*
X61107142Y-47683542D01*
X61107142Y-47683542D02*
X60678570Y-47683542D01*
X60164284Y-47683542D02*
X59992856Y-47683542D01*
X59992856Y-47683542D02*
X59907141Y-47726399D01*
X59907141Y-47726399D02*
X59821427Y-47812113D01*
X59821427Y-47812113D02*
X59778570Y-47983542D01*
X59778570Y-47983542D02*
X59778570Y-48283542D01*
X59778570Y-48283542D02*
X59821427Y-48454970D01*
X59821427Y-48454970D02*
X59907141Y-48540685D01*
X59907141Y-48540685D02*
X59992856Y-48583542D01*
X59992856Y-48583542D02*
X60164284Y-48583542D01*
X60164284Y-48583542D02*
X60249999Y-48540685D01*
X60249999Y-48540685D02*
X60335713Y-48454970D01*
X60335713Y-48454970D02*
X60378570Y-48283542D01*
X60378570Y-48283542D02*
X60378570Y-47983542D01*
X60378570Y-47983542D02*
X60335713Y-47812113D01*
X60335713Y-47812113D02*
X60249999Y-47726399D01*
X60249999Y-47726399D02*
X60164284Y-47683542D01*
X58878570Y-48583542D02*
X59178570Y-48154970D01*
X59392856Y-48583542D02*
X59392856Y-47683542D01*
X59392856Y-47683542D02*
X59049999Y-47683542D01*
X59049999Y-47683542D02*
X58964284Y-47726399D01*
X58964284Y-47726399D02*
X58921427Y-47769256D01*
X58921427Y-47769256D02*
X58878570Y-47854970D01*
X58878570Y-47854970D02*
X58878570Y-47983542D01*
X58878570Y-47983542D02*
X58921427Y-48069256D01*
X58921427Y-48069256D02*
X58964284Y-48112113D01*
X58964284Y-48112113D02*
X59049999Y-48154970D01*
X59049999Y-48154970D02*
X59392856Y-48154970D01*
X58492856Y-48112113D02*
X58192856Y-48112113D01*
X58064284Y-48583542D02*
X58492856Y-48583542D01*
X58492856Y-48583542D02*
X58492856Y-47683542D01*
X58492856Y-47683542D02*
X58064284Y-47683542D01*
X57035713Y-48540685D02*
X56907142Y-48583542D01*
X56907142Y-48583542D02*
X56692856Y-48583542D01*
X56692856Y-48583542D02*
X56607142Y-48540685D01*
X56607142Y-48540685D02*
X56564284Y-48497827D01*
X56564284Y-48497827D02*
X56521427Y-48412113D01*
X56521427Y-48412113D02*
X56521427Y-48326399D01*
X56521427Y-48326399D02*
X56564284Y-48240685D01*
X56564284Y-48240685D02*
X56607142Y-48197827D01*
X56607142Y-48197827D02*
X56692856Y-48154970D01*
X56692856Y-48154970D02*
X56864284Y-48112113D01*
X56864284Y-48112113D02*
X56949999Y-48069256D01*
X56949999Y-48069256D02*
X56992856Y-48026399D01*
X56992856Y-48026399D02*
X57035713Y-47940685D01*
X57035713Y-47940685D02*
X57035713Y-47854970D01*
X57035713Y-47854970D02*
X56992856Y-47769256D01*
X56992856Y-47769256D02*
X56949999Y-47726399D01*
X56949999Y-47726399D02*
X56864284Y-47683542D01*
X56864284Y-47683542D02*
X56649999Y-47683542D01*
X56649999Y-47683542D02*
X56521427Y-47726399D01*
X56135713Y-48112113D02*
X55835713Y-48112113D01*
X55707141Y-48583542D02*
X56135713Y-48583542D01*
X56135713Y-48583542D02*
X56135713Y-47683542D01*
X56135713Y-47683542D02*
X55707141Y-47683542D01*
X54892855Y-48583542D02*
X55321427Y-48583542D01*
X55321427Y-48583542D02*
X55321427Y-47683542D01*
X54592856Y-48112113D02*
X54292856Y-48112113D01*
X54164284Y-48583542D02*
X54592856Y-48583542D01*
X54592856Y-48583542D02*
X54592856Y-47683542D01*
X54592856Y-47683542D02*
X54164284Y-47683542D01*
X53264284Y-48497827D02*
X53307141Y-48540685D01*
X53307141Y-48540685D02*
X53435713Y-48583542D01*
X53435713Y-48583542D02*
X53521427Y-48583542D01*
X53521427Y-48583542D02*
X53649998Y-48540685D01*
X53649998Y-48540685D02*
X53735713Y-48454970D01*
X53735713Y-48454970D02*
X53778570Y-48369256D01*
X53778570Y-48369256D02*
X53821427Y-48197827D01*
X53821427Y-48197827D02*
X53821427Y-48069256D01*
X53821427Y-48069256D02*
X53778570Y-47897827D01*
X53778570Y-47897827D02*
X53735713Y-47812113D01*
X53735713Y-47812113D02*
X53649998Y-47726399D01*
X53649998Y-47726399D02*
X53521427Y-47683542D01*
X53521427Y-47683542D02*
X53435713Y-47683542D01*
X53435713Y-47683542D02*
X53307141Y-47726399D01*
X53307141Y-47726399D02*
X53264284Y-47769256D01*
X53007141Y-47683542D02*
X52492856Y-47683542D01*
X52749998Y-48583542D02*
X52749998Y-47683542D01*
X52192856Y-48583542D02*
X52192856Y-47683542D01*
X51764285Y-48583542D02*
X51764285Y-47683542D01*
X51764285Y-47683542D02*
X51249999Y-48583542D01*
X51249999Y-48583542D02*
X51249999Y-47683542D01*
X50349999Y-47726399D02*
X50435714Y-47683542D01*
X50435714Y-47683542D02*
X50564285Y-47683542D01*
X50564285Y-47683542D02*
X50692856Y-47726399D01*
X50692856Y-47726399D02*
X50778571Y-47812113D01*
X50778571Y-47812113D02*
X50821428Y-47897827D01*
X50821428Y-47897827D02*
X50864285Y-48069256D01*
X50864285Y-48069256D02*
X50864285Y-48197827D01*
X50864285Y-48197827D02*
X50821428Y-48369256D01*
X50821428Y-48369256D02*
X50778571Y-48454970D01*
X50778571Y-48454970D02*
X50692856Y-48540685D01*
X50692856Y-48540685D02*
X50564285Y-48583542D01*
X50564285Y-48583542D02*
X50478571Y-48583542D01*
X50478571Y-48583542D02*
X50349999Y-48540685D01*
X50349999Y-48540685D02*
X50307142Y-48497827D01*
X50307142Y-48497827D02*
X50307142Y-48197827D01*
X50307142Y-48197827D02*
X50478571Y-48197827D01*
X49321428Y-47683542D02*
X48764285Y-47683542D01*
X48764285Y-47683542D02*
X49064285Y-48026399D01*
X49064285Y-48026399D02*
X48935714Y-48026399D01*
X48935714Y-48026399D02*
X48850000Y-48069256D01*
X48850000Y-48069256D02*
X48807142Y-48112113D01*
X48807142Y-48112113D02*
X48764285Y-48197827D01*
X48764285Y-48197827D02*
X48764285Y-48412113D01*
X48764285Y-48412113D02*
X48807142Y-48497827D01*
X48807142Y-48497827D02*
X48850000Y-48540685D01*
X48850000Y-48540685D02*
X48935714Y-48583542D01*
X48935714Y-48583542D02*
X49192857Y-48583542D01*
X49192857Y-48583542D02*
X49278571Y-48540685D01*
X49278571Y-48540685D02*
X49321428Y-48497827D01*
X48507142Y-47683542D02*
X48207142Y-48583542D01*
X48207142Y-48583542D02*
X47907142Y-47683542D01*
X47692856Y-47683542D02*
X47135713Y-47683542D01*
X47135713Y-47683542D02*
X47435713Y-48026399D01*
X47435713Y-48026399D02*
X47307142Y-48026399D01*
X47307142Y-48026399D02*
X47221428Y-48069256D01*
X47221428Y-48069256D02*
X47178570Y-48112113D01*
X47178570Y-48112113D02*
X47135713Y-48197827D01*
X47135713Y-48197827D02*
X47135713Y-48412113D01*
X47135713Y-48412113D02*
X47178570Y-48497827D01*
X47178570Y-48497827D02*
X47221428Y-48540685D01*
X47221428Y-48540685D02*
X47307142Y-48583542D01*
X47307142Y-48583542D02*
X47564285Y-48583542D01*
X47564285Y-48583542D02*
X47649999Y-48540685D01*
X47649999Y-48540685D02*
X47692856Y-48497827D01*
X62221427Y-49132492D02*
X62221427Y-49775349D01*
X62221427Y-49775349D02*
X62264284Y-49903920D01*
X62264284Y-49903920D02*
X62349998Y-49989635D01*
X62349998Y-49989635D02*
X62478570Y-50032492D01*
X62478570Y-50032492D02*
X62564284Y-50032492D01*
X61792856Y-50032492D02*
X61792856Y-49132492D01*
X61792856Y-49132492D02*
X61449999Y-49132492D01*
X61449999Y-49132492D02*
X61364284Y-49175349D01*
X61364284Y-49175349D02*
X61321427Y-49218206D01*
X61321427Y-49218206D02*
X61278570Y-49303920D01*
X61278570Y-49303920D02*
X61278570Y-49432492D01*
X61278570Y-49432492D02*
X61321427Y-49518206D01*
X61321427Y-49518206D02*
X61364284Y-49561063D01*
X61364284Y-49561063D02*
X61449999Y-49603920D01*
X61449999Y-49603920D02*
X61792856Y-49603920D01*
X60978570Y-49132492D02*
X60421427Y-49132492D01*
X60421427Y-49132492D02*
X60721427Y-49475349D01*
X60721427Y-49475349D02*
X60592856Y-49475349D01*
X60592856Y-49475349D02*
X60507142Y-49518206D01*
X60507142Y-49518206D02*
X60464284Y-49561063D01*
X60464284Y-49561063D02*
X60421427Y-49646777D01*
X60421427Y-49646777D02*
X60421427Y-49861063D01*
X60421427Y-49861063D02*
X60464284Y-49946777D01*
X60464284Y-49946777D02*
X60507142Y-49989635D01*
X60507142Y-49989635D02*
X60592856Y-50032492D01*
X60592856Y-50032492D02*
X60849999Y-50032492D01*
X60849999Y-50032492D02*
X60935713Y-49989635D01*
X60935713Y-49989635D02*
X60978570Y-49946777D01*
X60035713Y-49946777D02*
X59992856Y-49989635D01*
X59992856Y-49989635D02*
X60035713Y-50032492D01*
X60035713Y-50032492D02*
X60078570Y-49989635D01*
X60078570Y-49989635D02*
X60035713Y-49946777D01*
X60035713Y-49946777D02*
X60035713Y-50032492D01*
X60035713Y-49475349D02*
X59992856Y-49518206D01*
X59992856Y-49518206D02*
X60035713Y-49561063D01*
X60035713Y-49561063D02*
X60078570Y-49518206D01*
X60078570Y-49518206D02*
X60035713Y-49475349D01*
X60035713Y-49475349D02*
X60035713Y-49561063D01*
X58749999Y-49132492D02*
X58578571Y-49132492D01*
X58578571Y-49132492D02*
X58492856Y-49175349D01*
X58492856Y-49175349D02*
X58407142Y-49261063D01*
X58407142Y-49261063D02*
X58364285Y-49432492D01*
X58364285Y-49432492D02*
X58364285Y-49732492D01*
X58364285Y-49732492D02*
X58407142Y-49903920D01*
X58407142Y-49903920D02*
X58492856Y-49989635D01*
X58492856Y-49989635D02*
X58578571Y-50032492D01*
X58578571Y-50032492D02*
X58749999Y-50032492D01*
X58749999Y-50032492D02*
X58835714Y-49989635D01*
X58835714Y-49989635D02*
X58921428Y-49903920D01*
X58921428Y-49903920D02*
X58964285Y-49732492D01*
X58964285Y-49732492D02*
X58964285Y-49432492D01*
X58964285Y-49432492D02*
X58921428Y-49261063D01*
X58921428Y-49261063D02*
X58835714Y-49175349D01*
X58835714Y-49175349D02*
X58749999Y-49132492D01*
X57978571Y-50032492D02*
X57978571Y-49132492D01*
X57978571Y-49132492D02*
X57464285Y-50032492D01*
X57464285Y-50032492D02*
X57464285Y-49132492D01*
X57035714Y-49561063D02*
X56735714Y-49561063D01*
X56607142Y-50032492D02*
X57035714Y-50032492D01*
X57035714Y-50032492D02*
X57035714Y-49132492D01*
X57035714Y-49132492D02*
X56607142Y-49132492D01*
X55578571Y-49989635D02*
X55450000Y-50032492D01*
X55450000Y-50032492D02*
X55235714Y-50032492D01*
X55235714Y-50032492D02*
X55150000Y-49989635D01*
X55150000Y-49989635D02*
X55107142Y-49946777D01*
X55107142Y-49946777D02*
X55064285Y-49861063D01*
X55064285Y-49861063D02*
X55064285Y-49775349D01*
X55064285Y-49775349D02*
X55107142Y-49689635D01*
X55107142Y-49689635D02*
X55150000Y-49646777D01*
X55150000Y-49646777D02*
X55235714Y-49603920D01*
X55235714Y-49603920D02*
X55407142Y-49561063D01*
X55407142Y-49561063D02*
X55492857Y-49518206D01*
X55492857Y-49518206D02*
X55535714Y-49475349D01*
X55535714Y-49475349D02*
X55578571Y-49389635D01*
X55578571Y-49389635D02*
X55578571Y-49303920D01*
X55578571Y-49303920D02*
X55535714Y-49218206D01*
X55535714Y-49218206D02*
X55492857Y-49175349D01*
X55492857Y-49175349D02*
X55407142Y-49132492D01*
X55407142Y-49132492D02*
X55192857Y-49132492D01*
X55192857Y-49132492D02*
X55064285Y-49175349D01*
X54678571Y-50032492D02*
X54678571Y-49132492D01*
X54678571Y-49561063D02*
X54164285Y-49561063D01*
X54164285Y-50032492D02*
X54164285Y-49132492D01*
X53735714Y-49132492D02*
X53735714Y-49861063D01*
X53735714Y-49861063D02*
X53692857Y-49946777D01*
X53692857Y-49946777D02*
X53650000Y-49989635D01*
X53650000Y-49989635D02*
X53564285Y-50032492D01*
X53564285Y-50032492D02*
X53392857Y-50032492D01*
X53392857Y-50032492D02*
X53307142Y-49989635D01*
X53307142Y-49989635D02*
X53264285Y-49946777D01*
X53264285Y-49946777D02*
X53221428Y-49861063D01*
X53221428Y-49861063D02*
X53221428Y-49132492D01*
X52792857Y-50032492D02*
X52792857Y-49132492D01*
X52792857Y-49132492D02*
X52278571Y-50032492D01*
X52278571Y-50032492D02*
X52278571Y-49132492D01*
X51978571Y-49132492D02*
X51464286Y-49132492D01*
X51721428Y-50032492D02*
X51721428Y-49132492D01*
X50307143Y-49132492D02*
X50135715Y-49132492D01*
X50135715Y-49132492D02*
X50050000Y-49175349D01*
X50050000Y-49175349D02*
X49964286Y-49261063D01*
X49964286Y-49261063D02*
X49921429Y-49432492D01*
X49921429Y-49432492D02*
X49921429Y-49732492D01*
X49921429Y-49732492D02*
X49964286Y-49903920D01*
X49964286Y-49903920D02*
X50050000Y-49989635D01*
X50050000Y-49989635D02*
X50135715Y-50032492D01*
X50135715Y-50032492D02*
X50307143Y-50032492D01*
X50307143Y-50032492D02*
X50392858Y-49989635D01*
X50392858Y-49989635D02*
X50478572Y-49903920D01*
X50478572Y-49903920D02*
X50521429Y-49732492D01*
X50521429Y-49732492D02*
X50521429Y-49432492D01*
X50521429Y-49432492D02*
X50478572Y-49261063D01*
X50478572Y-49261063D02*
X50392858Y-49175349D01*
X50392858Y-49175349D02*
X50307143Y-49132492D01*
X49535715Y-50032492D02*
X49535715Y-49132492D01*
X49535715Y-49132492D02*
X49021429Y-50032492D01*
X49021429Y-50032492D02*
X49021429Y-49132492D01*
X48164286Y-50032492D02*
X48592858Y-50032492D01*
X48592858Y-50032492D02*
X48592858Y-49132492D01*
X47692858Y-49603920D02*
X47692858Y-50032492D01*
X47992858Y-49132492D02*
X47692858Y-49603920D01*
X47692858Y-49603920D02*
X47392858Y-49132492D01*
X63228571Y-51438585D02*
X63100000Y-51481442D01*
X63100000Y-51481442D02*
X62885714Y-51481442D01*
X62885714Y-51481442D02*
X62800000Y-51438585D01*
X62800000Y-51438585D02*
X62757142Y-51395727D01*
X62757142Y-51395727D02*
X62714285Y-51310013D01*
X62714285Y-51310013D02*
X62714285Y-51224299D01*
X62714285Y-51224299D02*
X62757142Y-51138585D01*
X62757142Y-51138585D02*
X62800000Y-51095727D01*
X62800000Y-51095727D02*
X62885714Y-51052870D01*
X62885714Y-51052870D02*
X63057142Y-51010013D01*
X63057142Y-51010013D02*
X63142857Y-50967156D01*
X63142857Y-50967156D02*
X63185714Y-50924299D01*
X63185714Y-50924299D02*
X63228571Y-50838585D01*
X63228571Y-50838585D02*
X63228571Y-50752870D01*
X63228571Y-50752870D02*
X63185714Y-50667156D01*
X63185714Y-50667156D02*
X63142857Y-50624299D01*
X63142857Y-50624299D02*
X63057142Y-50581442D01*
X63057142Y-50581442D02*
X62842857Y-50581442D01*
X62842857Y-50581442D02*
X62714285Y-50624299D01*
X62328571Y-51010013D02*
X62028571Y-51010013D01*
X61899999Y-51481442D02*
X62328571Y-51481442D01*
X62328571Y-51481442D02*
X62328571Y-50581442D01*
X62328571Y-50581442D02*
X61899999Y-50581442D01*
X60999999Y-51481442D02*
X61299999Y-51052870D01*
X61514285Y-51481442D02*
X61514285Y-50581442D01*
X61514285Y-50581442D02*
X61171428Y-50581442D01*
X61171428Y-50581442D02*
X61085713Y-50624299D01*
X61085713Y-50624299D02*
X61042856Y-50667156D01*
X61042856Y-50667156D02*
X60999999Y-50752870D01*
X60999999Y-50752870D02*
X60999999Y-50881442D01*
X60999999Y-50881442D02*
X61042856Y-50967156D01*
X61042856Y-50967156D02*
X61085713Y-51010013D01*
X61085713Y-51010013D02*
X61171428Y-51052870D01*
X61171428Y-51052870D02*
X61514285Y-51052870D01*
X60742856Y-50581442D02*
X60442856Y-51481442D01*
X60442856Y-51481442D02*
X60142856Y-50581442D01*
X59671427Y-50581442D02*
X59499999Y-50581442D01*
X59499999Y-50581442D02*
X59414284Y-50624299D01*
X59414284Y-50624299D02*
X59328570Y-50710013D01*
X59328570Y-50710013D02*
X59285713Y-50881442D01*
X59285713Y-50881442D02*
X59285713Y-51181442D01*
X59285713Y-51181442D02*
X59328570Y-51352870D01*
X59328570Y-51352870D02*
X59414284Y-51438585D01*
X59414284Y-51438585D02*
X59499999Y-51481442D01*
X59499999Y-51481442D02*
X59671427Y-51481442D01*
X59671427Y-51481442D02*
X59757142Y-51438585D01*
X59757142Y-51438585D02*
X59842856Y-51352870D01*
X59842856Y-51352870D02*
X59885713Y-51181442D01*
X59885713Y-51181442D02*
X59885713Y-50881442D01*
X59885713Y-50881442D02*
X59842856Y-50710013D01*
X59842856Y-50710013D02*
X59757142Y-50624299D01*
X59757142Y-50624299D02*
X59671427Y-50581442D01*
X58899999Y-51395727D02*
X58857142Y-51438585D01*
X58857142Y-51438585D02*
X58899999Y-51481442D01*
X58899999Y-51481442D02*
X58942856Y-51438585D01*
X58942856Y-51438585D02*
X58899999Y-51395727D01*
X58899999Y-51395727D02*
X58899999Y-51481442D01*
X58899999Y-50924299D02*
X58857142Y-50967156D01*
X58857142Y-50967156D02*
X58899999Y-51010013D01*
X58899999Y-51010013D02*
X58942856Y-50967156D01*
X58942856Y-50967156D02*
X58899999Y-50924299D01*
X58899999Y-50924299D02*
X58899999Y-51010013D01*
X57785714Y-51481442D02*
X57785714Y-50581442D01*
X57357143Y-51481442D02*
X57357143Y-50581442D01*
X57357143Y-50581442D02*
X56842857Y-51481442D01*
X56842857Y-51481442D02*
X56842857Y-50581442D01*
X56414286Y-51481442D02*
X56414286Y-50581442D01*
X56414286Y-50581442D02*
X56200000Y-50581442D01*
X56200000Y-50581442D02*
X56071429Y-50624299D01*
X56071429Y-50624299D02*
X55985714Y-50710013D01*
X55985714Y-50710013D02*
X55942857Y-50795727D01*
X55942857Y-50795727D02*
X55900000Y-50967156D01*
X55900000Y-50967156D02*
X55900000Y-51095727D01*
X55900000Y-51095727D02*
X55942857Y-51267156D01*
X55942857Y-51267156D02*
X55985714Y-51352870D01*
X55985714Y-51352870D02*
X56071429Y-51438585D01*
X56071429Y-51438585D02*
X56200000Y-51481442D01*
X56200000Y-51481442D02*
X56414286Y-51481442D01*
X55514286Y-51010013D02*
X55214286Y-51010013D01*
X55085714Y-51481442D02*
X55514286Y-51481442D01*
X55514286Y-51481442D02*
X55514286Y-50581442D01*
X55514286Y-50581442D02*
X55085714Y-50581442D01*
X54700000Y-51481442D02*
X54700000Y-50581442D01*
X54700000Y-50581442D02*
X54357143Y-50581442D01*
X54357143Y-50581442D02*
X54271428Y-50624299D01*
X54271428Y-50624299D02*
X54228571Y-50667156D01*
X54228571Y-50667156D02*
X54185714Y-50752870D01*
X54185714Y-50752870D02*
X54185714Y-50881442D01*
X54185714Y-50881442D02*
X54228571Y-50967156D01*
X54228571Y-50967156D02*
X54271428Y-51010013D01*
X54271428Y-51010013D02*
X54357143Y-51052870D01*
X54357143Y-51052870D02*
X54700000Y-51052870D01*
X53800000Y-51010013D02*
X53500000Y-51010013D01*
X53371428Y-51481442D02*
X53800000Y-51481442D01*
X53800000Y-51481442D02*
X53800000Y-50581442D01*
X53800000Y-50581442D02*
X53371428Y-50581442D01*
X52985714Y-51481442D02*
X52985714Y-50581442D01*
X52985714Y-50581442D02*
X52471428Y-51481442D01*
X52471428Y-51481442D02*
X52471428Y-50581442D01*
X52042857Y-51481442D02*
X52042857Y-50581442D01*
X52042857Y-50581442D02*
X51828571Y-50581442D01*
X51828571Y-50581442D02*
X51700000Y-50624299D01*
X51700000Y-50624299D02*
X51614285Y-50710013D01*
X51614285Y-50710013D02*
X51571428Y-50795727D01*
X51571428Y-50795727D02*
X51528571Y-50967156D01*
X51528571Y-50967156D02*
X51528571Y-51095727D01*
X51528571Y-51095727D02*
X51571428Y-51267156D01*
X51571428Y-51267156D02*
X51614285Y-51352870D01*
X51614285Y-51352870D02*
X51700000Y-51438585D01*
X51700000Y-51438585D02*
X51828571Y-51481442D01*
X51828571Y-51481442D02*
X52042857Y-51481442D01*
X51142857Y-51010013D02*
X50842857Y-51010013D01*
X50714285Y-51481442D02*
X51142857Y-51481442D01*
X51142857Y-51481442D02*
X51142857Y-50581442D01*
X51142857Y-50581442D02*
X50714285Y-50581442D01*
X50328571Y-51481442D02*
X50328571Y-50581442D01*
X50328571Y-50581442D02*
X49814285Y-51481442D01*
X49814285Y-51481442D02*
X49814285Y-50581442D01*
X49514285Y-50581442D02*
X49000000Y-50581442D01*
X49257142Y-51481442D02*
X49257142Y-50581442D01*
X47585714Y-50581442D02*
X48014286Y-50581442D01*
X48014286Y-50581442D02*
X48057143Y-51010013D01*
X48057143Y-51010013D02*
X48014286Y-50967156D01*
X48014286Y-50967156D02*
X47928572Y-50924299D01*
X47928572Y-50924299D02*
X47714286Y-50924299D01*
X47714286Y-50924299D02*
X47628572Y-50967156D01*
X47628572Y-50967156D02*
X47585714Y-51010013D01*
X47585714Y-51010013D02*
X47542857Y-51095727D01*
X47542857Y-51095727D02*
X47542857Y-51310013D01*
X47542857Y-51310013D02*
X47585714Y-51395727D01*
X47585714Y-51395727D02*
X47628572Y-51438585D01*
X47628572Y-51438585D02*
X47714286Y-51481442D01*
X47714286Y-51481442D02*
X47928572Y-51481442D01*
X47928572Y-51481442D02*
X48014286Y-51438585D01*
X48014286Y-51438585D02*
X48057143Y-51395727D01*
X47285714Y-50581442D02*
X46985714Y-51481442D01*
X46985714Y-51481442D02*
X46685714Y-50581442D01*
X66142855Y-52930392D02*
X66142855Y-52030392D01*
X66142855Y-52030392D02*
X65842855Y-52673249D01*
X65842855Y-52673249D02*
X65542855Y-52030392D01*
X65542855Y-52030392D02*
X65542855Y-52930392D01*
X65114284Y-52458963D02*
X64814284Y-52458963D01*
X64685712Y-52930392D02*
X65114284Y-52930392D01*
X65114284Y-52930392D02*
X65114284Y-52030392D01*
X65114284Y-52030392D02*
X64685712Y-52030392D01*
X63785712Y-52844677D02*
X63828569Y-52887535D01*
X63828569Y-52887535D02*
X63957141Y-52930392D01*
X63957141Y-52930392D02*
X64042855Y-52930392D01*
X64042855Y-52930392D02*
X64171426Y-52887535D01*
X64171426Y-52887535D02*
X64257141Y-52801820D01*
X64257141Y-52801820D02*
X64299998Y-52716106D01*
X64299998Y-52716106D02*
X64342855Y-52544677D01*
X64342855Y-52544677D02*
X64342855Y-52416106D01*
X64342855Y-52416106D02*
X64299998Y-52244677D01*
X64299998Y-52244677D02*
X64257141Y-52158963D01*
X64257141Y-52158963D02*
X64171426Y-52073249D01*
X64171426Y-52073249D02*
X64042855Y-52030392D01*
X64042855Y-52030392D02*
X63957141Y-52030392D01*
X63957141Y-52030392D02*
X63828569Y-52073249D01*
X63828569Y-52073249D02*
X63785712Y-52116106D01*
X63399998Y-52930392D02*
X63399998Y-52030392D01*
X63399998Y-52458963D02*
X62885712Y-52458963D01*
X62885712Y-52930392D02*
X62885712Y-52030392D01*
X62499998Y-52673249D02*
X62071427Y-52673249D01*
X62585712Y-52930392D02*
X62285712Y-52030392D01*
X62285712Y-52030392D02*
X61985712Y-52930392D01*
X61685712Y-52930392D02*
X61685712Y-52030392D01*
X61685712Y-52030392D02*
X61171426Y-52930392D01*
X61171426Y-52930392D02*
X61171426Y-52030392D01*
X60742855Y-52930392D02*
X60742855Y-52030392D01*
X59799998Y-52844677D02*
X59842855Y-52887535D01*
X59842855Y-52887535D02*
X59971427Y-52930392D01*
X59971427Y-52930392D02*
X60057141Y-52930392D01*
X60057141Y-52930392D02*
X60185712Y-52887535D01*
X60185712Y-52887535D02*
X60271427Y-52801820D01*
X60271427Y-52801820D02*
X60314284Y-52716106D01*
X60314284Y-52716106D02*
X60357141Y-52544677D01*
X60357141Y-52544677D02*
X60357141Y-52416106D01*
X60357141Y-52416106D02*
X60314284Y-52244677D01*
X60314284Y-52244677D02*
X60271427Y-52158963D01*
X60271427Y-52158963D02*
X60185712Y-52073249D01*
X60185712Y-52073249D02*
X60057141Y-52030392D01*
X60057141Y-52030392D02*
X59971427Y-52030392D01*
X59971427Y-52030392D02*
X59842855Y-52073249D01*
X59842855Y-52073249D02*
X59799998Y-52116106D01*
X59457141Y-52673249D02*
X59028570Y-52673249D01*
X59542855Y-52930392D02*
X59242855Y-52030392D01*
X59242855Y-52030392D02*
X58942855Y-52930392D01*
X58214283Y-52930392D02*
X58642855Y-52930392D01*
X58642855Y-52930392D02*
X58642855Y-52030392D01*
X58128570Y-53016106D02*
X57442855Y-53016106D01*
X57228570Y-52930392D02*
X57228570Y-52030392D01*
X57228570Y-52030392D02*
X57014284Y-52030392D01*
X57014284Y-52030392D02*
X56885713Y-52073249D01*
X56885713Y-52073249D02*
X56799998Y-52158963D01*
X56799998Y-52158963D02*
X56757141Y-52244677D01*
X56757141Y-52244677D02*
X56714284Y-52416106D01*
X56714284Y-52416106D02*
X56714284Y-52544677D01*
X56714284Y-52544677D02*
X56757141Y-52716106D01*
X56757141Y-52716106D02*
X56799998Y-52801820D01*
X56799998Y-52801820D02*
X56885713Y-52887535D01*
X56885713Y-52887535D02*
X57014284Y-52930392D01*
X57014284Y-52930392D02*
X57228570Y-52930392D01*
X56328570Y-52930392D02*
X56328570Y-52030392D01*
X55899999Y-52930392D02*
X55899999Y-52030392D01*
X55899999Y-52030392D02*
X55599999Y-52673249D01*
X55599999Y-52673249D02*
X55299999Y-52030392D01*
X55299999Y-52030392D02*
X55299999Y-52930392D01*
X54871428Y-52458963D02*
X54571428Y-52458963D01*
X54442856Y-52930392D02*
X54871428Y-52930392D01*
X54871428Y-52930392D02*
X54871428Y-52030392D01*
X54871428Y-52030392D02*
X54442856Y-52030392D01*
X54057142Y-52930392D02*
X54057142Y-52030392D01*
X54057142Y-52030392D02*
X53542856Y-52930392D01*
X53542856Y-52930392D02*
X53542856Y-52030392D01*
X53157142Y-52887535D02*
X53028571Y-52930392D01*
X53028571Y-52930392D02*
X52814285Y-52930392D01*
X52814285Y-52930392D02*
X52728571Y-52887535D01*
X52728571Y-52887535D02*
X52685713Y-52844677D01*
X52685713Y-52844677D02*
X52642856Y-52758963D01*
X52642856Y-52758963D02*
X52642856Y-52673249D01*
X52642856Y-52673249D02*
X52685713Y-52587535D01*
X52685713Y-52587535D02*
X52728571Y-52544677D01*
X52728571Y-52544677D02*
X52814285Y-52501820D01*
X52814285Y-52501820D02*
X52985713Y-52458963D01*
X52985713Y-52458963D02*
X53071428Y-52416106D01*
X53071428Y-52416106D02*
X53114285Y-52373249D01*
X53114285Y-52373249D02*
X53157142Y-52287535D01*
X53157142Y-52287535D02*
X53157142Y-52201820D01*
X53157142Y-52201820D02*
X53114285Y-52116106D01*
X53114285Y-52116106D02*
X53071428Y-52073249D01*
X53071428Y-52073249D02*
X52985713Y-52030392D01*
X52985713Y-52030392D02*
X52771428Y-52030392D01*
X52771428Y-52030392D02*
X52642856Y-52073249D01*
X52257142Y-52930392D02*
X52257142Y-52030392D01*
X51657142Y-52030392D02*
X51485714Y-52030392D01*
X51485714Y-52030392D02*
X51399999Y-52073249D01*
X51399999Y-52073249D02*
X51314285Y-52158963D01*
X51314285Y-52158963D02*
X51271428Y-52330392D01*
X51271428Y-52330392D02*
X51271428Y-52630392D01*
X51271428Y-52630392D02*
X51314285Y-52801820D01*
X51314285Y-52801820D02*
X51399999Y-52887535D01*
X51399999Y-52887535D02*
X51485714Y-52930392D01*
X51485714Y-52930392D02*
X51657142Y-52930392D01*
X51657142Y-52930392D02*
X51742857Y-52887535D01*
X51742857Y-52887535D02*
X51828571Y-52801820D01*
X51828571Y-52801820D02*
X51871428Y-52630392D01*
X51871428Y-52630392D02*
X51871428Y-52330392D01*
X51871428Y-52330392D02*
X51828571Y-52158963D01*
X51828571Y-52158963D02*
X51742857Y-52073249D01*
X51742857Y-52073249D02*
X51657142Y-52030392D01*
X50885714Y-52930392D02*
X50885714Y-52030392D01*
X50885714Y-52030392D02*
X50371428Y-52930392D01*
X50371428Y-52930392D02*
X50371428Y-52030392D01*
X50157143Y-53016106D02*
X49471428Y-53016106D01*
X49257143Y-52930392D02*
X49257143Y-52030392D01*
X49257143Y-52030392D02*
X48914286Y-52030392D01*
X48914286Y-52030392D02*
X48828571Y-52073249D01*
X48828571Y-52073249D02*
X48785714Y-52116106D01*
X48785714Y-52116106D02*
X48742857Y-52201820D01*
X48742857Y-52201820D02*
X48742857Y-52330392D01*
X48742857Y-52330392D02*
X48785714Y-52416106D01*
X48785714Y-52416106D02*
X48828571Y-52458963D01*
X48828571Y-52458963D02*
X48914286Y-52501820D01*
X48914286Y-52501820D02*
X49257143Y-52501820D01*
X48357143Y-52458963D02*
X48057143Y-52458963D01*
X47928571Y-52930392D02*
X48357143Y-52930392D01*
X48357143Y-52930392D02*
X48357143Y-52030392D01*
X48357143Y-52030392D02*
X47928571Y-52030392D01*
X47542857Y-52930392D02*
X47542857Y-52030392D01*
X47542857Y-52030392D02*
X47028571Y-52930392D01*
X47028571Y-52930392D02*
X47028571Y-52030392D01*
X46600000Y-52930392D02*
X46600000Y-52030392D01*
X46600000Y-52030392D02*
X46385714Y-52030392D01*
X46385714Y-52030392D02*
X46257143Y-52073249D01*
X46257143Y-52073249D02*
X46171428Y-52158963D01*
X46171428Y-52158963D02*
X46128571Y-52244677D01*
X46128571Y-52244677D02*
X46085714Y-52416106D01*
X46085714Y-52416106D02*
X46085714Y-52544677D01*
X46085714Y-52544677D02*
X46128571Y-52716106D01*
X46128571Y-52716106D02*
X46171428Y-52801820D01*
X46171428Y-52801820D02*
X46257143Y-52887535D01*
X46257143Y-52887535D02*
X46385714Y-52930392D01*
X46385714Y-52930392D02*
X46600000Y-52930392D01*
X45700000Y-52930392D02*
X45700000Y-52030392D01*
X45271429Y-52930392D02*
X45271429Y-52030392D01*
X45271429Y-52030392D02*
X44757143Y-52930392D01*
X44757143Y-52930392D02*
X44757143Y-52030392D01*
X43857143Y-52073249D02*
X43942858Y-52030392D01*
X43942858Y-52030392D02*
X44071429Y-52030392D01*
X44071429Y-52030392D02*
X44200000Y-52073249D01*
X44200000Y-52073249D02*
X44285715Y-52158963D01*
X44285715Y-52158963D02*
X44328572Y-52244677D01*
X44328572Y-52244677D02*
X44371429Y-52416106D01*
X44371429Y-52416106D02*
X44371429Y-52544677D01*
X44371429Y-52544677D02*
X44328572Y-52716106D01*
X44328572Y-52716106D02*
X44285715Y-52801820D01*
X44285715Y-52801820D02*
X44200000Y-52887535D01*
X44200000Y-52887535D02*
X44071429Y-52930392D01*
X44071429Y-52930392D02*
X43985715Y-52930392D01*
X43985715Y-52930392D02*
X43857143Y-52887535D01*
X43857143Y-52887535D02*
X43814286Y-52844677D01*
X43814286Y-52844677D02*
X43814286Y-52544677D01*
X43814286Y-52544677D02*
X43985715Y-52544677D01*
X66428571Y-24932569D02*
X66095238Y-24932569D01*
X65952381Y-25456379D02*
X66428571Y-25456379D01*
X66428571Y-25456379D02*
X66428571Y-24456379D01*
X66428571Y-24456379D02*
X65952381Y-24456379D01*
X65571428Y-25408760D02*
X65428571Y-25456379D01*
X65428571Y-25456379D02*
X65190476Y-25456379D01*
X65190476Y-25456379D02*
X65095238Y-25408760D01*
X65095238Y-25408760D02*
X65047619Y-25361140D01*
X65047619Y-25361140D02*
X65000000Y-25265902D01*
X65000000Y-25265902D02*
X65000000Y-25170664D01*
X65000000Y-25170664D02*
X65047619Y-25075426D01*
X65047619Y-25075426D02*
X65095238Y-25027807D01*
X65095238Y-25027807D02*
X65190476Y-24980188D01*
X65190476Y-24980188D02*
X65380952Y-24932569D01*
X65380952Y-24932569D02*
X65476190Y-24884950D01*
X65476190Y-24884950D02*
X65523809Y-24837331D01*
X65523809Y-24837331D02*
X65571428Y-24742093D01*
X65571428Y-24742093D02*
X65571428Y-24646855D01*
X65571428Y-24646855D02*
X65523809Y-24551617D01*
X65523809Y-24551617D02*
X65476190Y-24503998D01*
X65476190Y-24503998D02*
X65380952Y-24456379D01*
X65380952Y-24456379D02*
X65142857Y-24456379D01*
X65142857Y-24456379D02*
X65000000Y-24503998D01*
X64571428Y-25456379D02*
X64571428Y-24456379D01*
X64571428Y-24456379D02*
X64190476Y-24456379D01*
X64190476Y-24456379D02*
X64095238Y-24503998D01*
X64095238Y-24503998D02*
X64047619Y-24551617D01*
X64047619Y-24551617D02*
X64000000Y-24646855D01*
X64000000Y-24646855D02*
X64000000Y-24789712D01*
X64000000Y-24789712D02*
X64047619Y-24884950D01*
X64047619Y-24884950D02*
X64095238Y-24932569D01*
X64095238Y-24932569D02*
X64190476Y-24980188D01*
X64190476Y-24980188D02*
X64571428Y-24980188D01*
X63666666Y-24456379D02*
X63047619Y-24456379D01*
X63047619Y-24456379D02*
X63380952Y-24837331D01*
X63380952Y-24837331D02*
X63238095Y-24837331D01*
X63238095Y-24837331D02*
X63142857Y-24884950D01*
X63142857Y-24884950D02*
X63095238Y-24932569D01*
X63095238Y-24932569D02*
X63047619Y-25027807D01*
X63047619Y-25027807D02*
X63047619Y-25265902D01*
X63047619Y-25265902D02*
X63095238Y-25361140D01*
X63095238Y-25361140D02*
X63142857Y-25408760D01*
X63142857Y-25408760D02*
X63238095Y-25456379D01*
X63238095Y-25456379D02*
X63523809Y-25456379D01*
X63523809Y-25456379D02*
X63619047Y-25408760D01*
X63619047Y-25408760D02*
X63666666Y-25361140D01*
X62666666Y-24551617D02*
X62619047Y-24503998D01*
X62619047Y-24503998D02*
X62523809Y-24456379D01*
X62523809Y-24456379D02*
X62285714Y-24456379D01*
X62285714Y-24456379D02*
X62190476Y-24503998D01*
X62190476Y-24503998D02*
X62142857Y-24551617D01*
X62142857Y-24551617D02*
X62095238Y-24646855D01*
X62095238Y-24646855D02*
X62095238Y-24742093D01*
X62095238Y-24742093D02*
X62142857Y-24884950D01*
X62142857Y-24884950D02*
X62714285Y-25456379D01*
X62714285Y-25456379D02*
X62095238Y-25456379D01*
X60952380Y-25408760D02*
X60809523Y-25456379D01*
X60809523Y-25456379D02*
X60571428Y-25456379D01*
X60571428Y-25456379D02*
X60476190Y-25408760D01*
X60476190Y-25408760D02*
X60428571Y-25361140D01*
X60428571Y-25361140D02*
X60380952Y-25265902D01*
X60380952Y-25265902D02*
X60380952Y-25170664D01*
X60380952Y-25170664D02*
X60428571Y-25075426D01*
X60428571Y-25075426D02*
X60476190Y-25027807D01*
X60476190Y-25027807D02*
X60571428Y-24980188D01*
X60571428Y-24980188D02*
X60761904Y-24932569D01*
X60761904Y-24932569D02*
X60857142Y-24884950D01*
X60857142Y-24884950D02*
X60904761Y-24837331D01*
X60904761Y-24837331D02*
X60952380Y-24742093D01*
X60952380Y-24742093D02*
X60952380Y-24646855D01*
X60952380Y-24646855D02*
X60904761Y-24551617D01*
X60904761Y-24551617D02*
X60857142Y-24503998D01*
X60857142Y-24503998D02*
X60761904Y-24456379D01*
X60761904Y-24456379D02*
X60523809Y-24456379D01*
X60523809Y-24456379D02*
X60380952Y-24503998D01*
X59952380Y-24932569D02*
X59619047Y-24932569D01*
X59476190Y-25456379D02*
X59952380Y-25456379D01*
X59952380Y-25456379D02*
X59952380Y-24456379D01*
X59952380Y-24456379D02*
X59476190Y-24456379D01*
X59047618Y-25456379D02*
X59047618Y-24456379D01*
X59047618Y-24456379D02*
X58476190Y-25456379D01*
X58476190Y-25456379D02*
X58476190Y-24456379D01*
X58047618Y-25408760D02*
X57904761Y-25456379D01*
X57904761Y-25456379D02*
X57666666Y-25456379D01*
X57666666Y-25456379D02*
X57571428Y-25408760D01*
X57571428Y-25408760D02*
X57523809Y-25361140D01*
X57523809Y-25361140D02*
X57476190Y-25265902D01*
X57476190Y-25265902D02*
X57476190Y-25170664D01*
X57476190Y-25170664D02*
X57523809Y-25075426D01*
X57523809Y-25075426D02*
X57571428Y-25027807D01*
X57571428Y-25027807D02*
X57666666Y-24980188D01*
X57666666Y-24980188D02*
X57857142Y-24932569D01*
X57857142Y-24932569D02*
X57952380Y-24884950D01*
X57952380Y-24884950D02*
X57999999Y-24837331D01*
X57999999Y-24837331D02*
X58047618Y-24742093D01*
X58047618Y-24742093D02*
X58047618Y-24646855D01*
X58047618Y-24646855D02*
X57999999Y-24551617D01*
X57999999Y-24551617D02*
X57952380Y-24503998D01*
X57952380Y-24503998D02*
X57857142Y-24456379D01*
X57857142Y-24456379D02*
X57619047Y-24456379D01*
X57619047Y-24456379D02*
X57476190Y-24503998D01*
X56857142Y-24456379D02*
X56666666Y-24456379D01*
X56666666Y-24456379D02*
X56571428Y-24503998D01*
X56571428Y-24503998D02*
X56476190Y-24599236D01*
X56476190Y-24599236D02*
X56428571Y-24789712D01*
X56428571Y-24789712D02*
X56428571Y-25123045D01*
X56428571Y-25123045D02*
X56476190Y-25313521D01*
X56476190Y-25313521D02*
X56571428Y-25408760D01*
X56571428Y-25408760D02*
X56666666Y-25456379D01*
X56666666Y-25456379D02*
X56857142Y-25456379D01*
X56857142Y-25456379D02*
X56952380Y-25408760D01*
X56952380Y-25408760D02*
X57047618Y-25313521D01*
X57047618Y-25313521D02*
X57095237Y-25123045D01*
X57095237Y-25123045D02*
X57095237Y-24789712D01*
X57095237Y-24789712D02*
X57047618Y-24599236D01*
X57047618Y-24599236D02*
X56952380Y-24503998D01*
X56952380Y-24503998D02*
X56857142Y-24456379D01*
X55428571Y-25456379D02*
X55761904Y-24980188D01*
X55999999Y-25456379D02*
X55999999Y-24456379D01*
X55999999Y-24456379D02*
X55619047Y-24456379D01*
X55619047Y-24456379D02*
X55523809Y-24503998D01*
X55523809Y-24503998D02*
X55476190Y-24551617D01*
X55476190Y-24551617D02*
X55428571Y-24646855D01*
X55428571Y-24646855D02*
X55428571Y-24789712D01*
X55428571Y-24789712D02*
X55476190Y-24884950D01*
X55476190Y-24884950D02*
X55523809Y-24932569D01*
X55523809Y-24932569D02*
X55619047Y-24980188D01*
X55619047Y-24980188D02*
X55999999Y-24980188D01*
X53666666Y-25361140D02*
X53714285Y-25408760D01*
X53714285Y-25408760D02*
X53857142Y-25456379D01*
X53857142Y-25456379D02*
X53952380Y-25456379D01*
X53952380Y-25456379D02*
X54095237Y-25408760D01*
X54095237Y-25408760D02*
X54190475Y-25313521D01*
X54190475Y-25313521D02*
X54238094Y-25218283D01*
X54238094Y-25218283D02*
X54285713Y-25027807D01*
X54285713Y-25027807D02*
X54285713Y-24884950D01*
X54285713Y-24884950D02*
X54238094Y-24694474D01*
X54238094Y-24694474D02*
X54190475Y-24599236D01*
X54190475Y-24599236D02*
X54095237Y-24503998D01*
X54095237Y-24503998D02*
X53952380Y-24456379D01*
X53952380Y-24456379D02*
X53857142Y-24456379D01*
X53857142Y-24456379D02*
X53714285Y-24503998D01*
X53714285Y-24503998D02*
X53666666Y-24551617D01*
X53285713Y-25170664D02*
X52809523Y-25170664D01*
X53380951Y-25456379D02*
X53047618Y-24456379D01*
X53047618Y-24456379D02*
X52714285Y-25456379D01*
X51809523Y-25456379D02*
X52142856Y-24980188D01*
X52380951Y-25456379D02*
X52380951Y-24456379D01*
X52380951Y-24456379D02*
X51999999Y-24456379D01*
X51999999Y-24456379D02*
X51904761Y-24503998D01*
X51904761Y-24503998D02*
X51857142Y-24551617D01*
X51857142Y-24551617D02*
X51809523Y-24646855D01*
X51809523Y-24646855D02*
X51809523Y-24789712D01*
X51809523Y-24789712D02*
X51857142Y-24884950D01*
X51857142Y-24884950D02*
X51904761Y-24932569D01*
X51904761Y-24932569D02*
X51999999Y-24980188D01*
X51999999Y-24980188D02*
X52380951Y-24980188D01*
X50809523Y-25456379D02*
X51142856Y-24980188D01*
X51380951Y-25456379D02*
X51380951Y-24456379D01*
X51380951Y-24456379D02*
X50999999Y-24456379D01*
X50999999Y-24456379D02*
X50904761Y-24503998D01*
X50904761Y-24503998D02*
X50857142Y-24551617D01*
X50857142Y-24551617D02*
X50809523Y-24646855D01*
X50809523Y-24646855D02*
X50809523Y-24789712D01*
X50809523Y-24789712D02*
X50857142Y-24884950D01*
X50857142Y-24884950D02*
X50904761Y-24932569D01*
X50904761Y-24932569D02*
X50999999Y-24980188D01*
X50999999Y-24980188D02*
X51380951Y-24980188D01*
X50380951Y-25456379D02*
X50380951Y-24456379D01*
X49904761Y-24932569D02*
X49571428Y-24932569D01*
X49428571Y-25456379D02*
X49904761Y-25456379D01*
X49904761Y-25456379D02*
X49904761Y-24456379D01*
X49904761Y-24456379D02*
X49428571Y-24456379D01*
X48428571Y-25456379D02*
X48761904Y-24980188D01*
X48999999Y-25456379D02*
X48999999Y-24456379D01*
X48999999Y-24456379D02*
X48619047Y-24456379D01*
X48619047Y-24456379D02*
X48523809Y-24503998D01*
X48523809Y-24503998D02*
X48476190Y-24551617D01*
X48476190Y-24551617D02*
X48428571Y-24646855D01*
X48428571Y-24646855D02*
X48428571Y-24789712D01*
X48428571Y-24789712D02*
X48476190Y-24884950D01*
X48476190Y-24884950D02*
X48523809Y-24932569D01*
X48523809Y-24932569D02*
X48619047Y-24980188D01*
X48619047Y-24980188D02*
X48999999Y-24980188D01*
X45904761Y-25456379D02*
X46238094Y-24980188D01*
X46476189Y-25456379D02*
X46476189Y-24456379D01*
X46476189Y-24456379D02*
X46095237Y-24456379D01*
X46095237Y-24456379D02*
X45999999Y-24503998D01*
X45999999Y-24503998D02*
X45952380Y-24551617D01*
X45952380Y-24551617D02*
X45904761Y-24646855D01*
X45904761Y-24646855D02*
X45904761Y-24789712D01*
X45904761Y-24789712D02*
X45952380Y-24884950D01*
X45952380Y-24884950D02*
X45999999Y-24932569D01*
X45999999Y-24932569D02*
X46095237Y-24980188D01*
X46095237Y-24980188D02*
X46476189Y-24980188D01*
X44952380Y-25456379D02*
X45523808Y-25456379D01*
X45238094Y-25456379D02*
X45238094Y-24456379D01*
X45238094Y-24456379D02*
X45333332Y-24599236D01*
X45333332Y-24599236D02*
X45428570Y-24694474D01*
X45428570Y-24694474D02*
X45523808Y-24742093D01*
X44523808Y-25361140D02*
X44476189Y-25408760D01*
X44476189Y-25408760D02*
X44523808Y-25456379D01*
X44523808Y-25456379D02*
X44571427Y-25408760D01*
X44571427Y-25408760D02*
X44523808Y-25361140D01*
X44523808Y-25361140D02*
X44523808Y-25456379D01*
X43523809Y-25456379D02*
X44095237Y-25456379D01*
X43809523Y-25456379D02*
X43809523Y-24456379D01*
X43809523Y-24456379D02*
X43904761Y-24599236D01*
X43904761Y-24599236D02*
X43999999Y-24694474D01*
X43999999Y-24694474D02*
X44095237Y-24742093D01*
M02*
