%TF.GenerationSoftware,KiCad,Pcbnew,9.0.9*%
%TF.CreationDate,2026-10-02T14:55:20+08:00*%
%TF.ProjectId,esp32_sensor_carrier,65737033-325f-4736-956e-736f725f6361,rev?*%
%TF.SameCoordinates,Original*%
%TF.FileFunction,Legend,Top*%
%TF.FilePolarity,Positive*%
%FSLAX46Y46*%
G04 Gerber Fmt 4.6, Leading zero omitted, Abs format (unit mm)*
G04 Created by KiCad (PCBNEW 9.0.9) date 2026-10-02 14:55:20*
%MOMM*%
%LPD*%
G01*
G04 APERTURE LIST*
%ADD10C,0.120000*%
%ADD11C,0.100000*%
G04 APERTURE END LIST*
D10*
X2000000Y-49000000D02*
X2000000Y-50000000D01*
X2000000Y-49000000D02*
X3000000Y-49000000D01*
X2000000Y-65000000D02*
X2000000Y-64000000D01*
X2000000Y-65000000D02*
X3000000Y-65000000D01*
X7000000Y-7000000D02*
X7000000Y-8000000D01*
X7000000Y-7000000D02*
X8000000Y-7000000D01*
X7000000Y-22000000D02*
X7000000Y-21000000D01*
X7000000Y-22000000D02*
X8000000Y-22000000D01*
X24000000Y-49000000D02*
X23000000Y-49000000D01*
X24000000Y-49000000D02*
X24000000Y-50000000D01*
X24000000Y-65000000D02*
X23000000Y-65000000D01*
X24000000Y-65000000D02*
X24000000Y-64000000D01*
X30000000Y-7000000D02*
X29000000Y-7000000D01*
X30000000Y-7000000D02*
X30000000Y-8000000D01*
X30000000Y-22000000D02*
X29000000Y-22000000D01*
X30000000Y-22000000D02*
X30000000Y-21000000D01*
X80000000Y-7000000D02*
X80000000Y-8000000D01*
X80000000Y-7000000D02*
X81000000Y-7000000D01*
X80000000Y-22000000D02*
X80000000Y-21000000D01*
X80000000Y-22000000D02*
X81000000Y-22000000D01*
X80000000Y-37000000D02*
X80000000Y-38000000D01*
X80000000Y-37000000D02*
X81000000Y-37000000D01*
X80000000Y-69000000D02*
X80000000Y-68000000D01*
X80000000Y-69000000D02*
X81000000Y-69000000D01*
X104000000Y-7000000D02*
X103000000Y-7000000D01*
X104000000Y-7000000D02*
X104000000Y-8000000D01*
X104000000Y-22000000D02*
X103000000Y-22000000D01*
X104000000Y-22000000D02*
X104000000Y-21000000D01*
X106000000Y-37000000D02*
X105000000Y-37000000D01*
X106000000Y-37000000D02*
X106000000Y-38000000D01*
X106000000Y-69000000D02*
X105000000Y-69000000D01*
X106000000Y-69000000D02*
X106000000Y-68000000D01*
X6847619Y-43063855D02*
X6466667Y-43063855D01*
X6466667Y-43063855D02*
X6428571Y-43444807D01*
X6428571Y-43444807D02*
X6466667Y-43406712D01*
X6466667Y-43406712D02*
X6542857Y-43368617D01*
X6542857Y-43368617D02*
X6733333Y-43368617D01*
X6733333Y-43368617D02*
X6809524Y-43406712D01*
X6809524Y-43406712D02*
X6847619Y-43444807D01*
X6847619Y-43444807D02*
X6885714Y-43520998D01*
X6885714Y-43520998D02*
X6885714Y-43711474D01*
X6885714Y-43711474D02*
X6847619Y-43787664D01*
X6847619Y-43787664D02*
X6809524Y-43825760D01*
X6809524Y-43825760D02*
X6733333Y-43863855D01*
X6733333Y-43863855D02*
X6542857Y-43863855D01*
X6542857Y-43863855D02*
X6466667Y-43825760D01*
X6466667Y-43825760D02*
X6428571Y-43787664D01*
X7114286Y-43063855D02*
X7380953Y-43863855D01*
X7380953Y-43863855D02*
X7647619Y-43063855D01*
X6704761Y-55944807D02*
X6438095Y-55944807D01*
X6438095Y-56363855D02*
X6438095Y-55563855D01*
X6438095Y-55563855D02*
X6819047Y-55563855D01*
X7085713Y-56135283D02*
X7466666Y-56135283D01*
X7009523Y-56363855D02*
X7276190Y-55563855D01*
X7276190Y-55563855D02*
X7542856Y-56363855D01*
X8266666Y-56287664D02*
X8228570Y-56325760D01*
X8228570Y-56325760D02*
X8114285Y-56363855D01*
X8114285Y-56363855D02*
X8038094Y-56363855D01*
X8038094Y-56363855D02*
X7923808Y-56325760D01*
X7923808Y-56325760D02*
X7847618Y-56249569D01*
X7847618Y-56249569D02*
X7809523Y-56173379D01*
X7809523Y-56173379D02*
X7771427Y-56020998D01*
X7771427Y-56020998D02*
X7771427Y-55906712D01*
X7771427Y-55906712D02*
X7809523Y-55754331D01*
X7809523Y-55754331D02*
X7847618Y-55678140D01*
X7847618Y-55678140D02*
X7923808Y-55601950D01*
X7923808Y-55601950D02*
X8038094Y-55563855D01*
X8038094Y-55563855D02*
X8114285Y-55563855D01*
X8114285Y-55563855D02*
X8228570Y-55601950D01*
X8228570Y-55601950D02*
X8266666Y-55640045D01*
X8609523Y-55944807D02*
X8876189Y-55944807D01*
X8990475Y-56363855D02*
X8609523Y-56363855D01*
X8609523Y-56363855D02*
X8609523Y-55563855D01*
X8609523Y-55563855D02*
X8990475Y-55563855D01*
X9942857Y-55563855D02*
X9942857Y-56211474D01*
X9942857Y-56211474D02*
X9980952Y-56287664D01*
X9980952Y-56287664D02*
X10019047Y-56325760D01*
X10019047Y-56325760D02*
X10095238Y-56363855D01*
X10095238Y-56363855D02*
X10247619Y-56363855D01*
X10247619Y-56363855D02*
X10323809Y-56325760D01*
X10323809Y-56325760D02*
X10361904Y-56287664D01*
X10361904Y-56287664D02*
X10400000Y-56211474D01*
X10400000Y-56211474D02*
X10400000Y-55563855D01*
X10780952Y-56363855D02*
X10780952Y-55563855D01*
X10780952Y-55563855D02*
X11085714Y-55563855D01*
X11085714Y-55563855D02*
X11161904Y-55601950D01*
X11161904Y-55601950D02*
X11199999Y-55640045D01*
X11199999Y-55640045D02*
X11238095Y-55716236D01*
X11238095Y-55716236D02*
X11238095Y-55830521D01*
X11238095Y-55830521D02*
X11199999Y-55906712D01*
X11199999Y-55906712D02*
X11161904Y-55944807D01*
X11161904Y-55944807D02*
X11085714Y-55982902D01*
X11085714Y-55982902D02*
X10780952Y-55982902D01*
X12190476Y-56059093D02*
X12800000Y-56059093D01*
X12495238Y-56363855D02*
X12495238Y-55754331D01*
X13104761Y-55563855D02*
X13638095Y-55563855D01*
X13638095Y-55563855D02*
X13104761Y-56363855D01*
X13104761Y-56363855D02*
X13638095Y-56363855D01*
X13752381Y-13363855D02*
X13371429Y-13363855D01*
X13371429Y-13363855D02*
X13371429Y-12563855D01*
X14019048Y-13363855D02*
X14019048Y-12563855D01*
X14819047Y-12601950D02*
X14742857Y-12563855D01*
X14742857Y-12563855D02*
X14628571Y-12563855D01*
X14628571Y-12563855D02*
X14514285Y-12601950D01*
X14514285Y-12601950D02*
X14438095Y-12678140D01*
X14438095Y-12678140D02*
X14400000Y-12754331D01*
X14400000Y-12754331D02*
X14361904Y-12906712D01*
X14361904Y-12906712D02*
X14361904Y-13020998D01*
X14361904Y-13020998D02*
X14400000Y-13173379D01*
X14400000Y-13173379D02*
X14438095Y-13249569D01*
X14438095Y-13249569D02*
X14514285Y-13325760D01*
X14514285Y-13325760D02*
X14628571Y-13363855D01*
X14628571Y-13363855D02*
X14704762Y-13363855D01*
X14704762Y-13363855D02*
X14819047Y-13325760D01*
X14819047Y-13325760D02*
X14857143Y-13287664D01*
X14857143Y-13287664D02*
X14857143Y-13020998D01*
X14857143Y-13020998D02*
X14704762Y-13020998D01*
X15200000Y-13363855D02*
X15200000Y-12563855D01*
X15200000Y-12944807D02*
X15657143Y-12944807D01*
X15657143Y-13363855D02*
X15657143Y-12563855D01*
X15923809Y-12563855D02*
X16380952Y-12563855D01*
X16152380Y-13363855D02*
X16152380Y-12563855D01*
X17180952Y-12563855D02*
X17371428Y-13363855D01*
X17371428Y-13363855D02*
X17523809Y-12792426D01*
X17523809Y-12792426D02*
X17676190Y-13363855D01*
X17676190Y-13363855D02*
X17866667Y-12563855D01*
X18171429Y-13363855D02*
X18171429Y-12563855D01*
X18552381Y-13363855D02*
X18552381Y-12563855D01*
X18552381Y-12563855D02*
X19009524Y-13363855D01*
X19009524Y-13363855D02*
X19009524Y-12563855D01*
X19390476Y-13363855D02*
X19390476Y-12563855D01*
X19390476Y-12563855D02*
X19580952Y-12563855D01*
X19580952Y-12563855D02*
X19695238Y-12601950D01*
X19695238Y-12601950D02*
X19771428Y-12678140D01*
X19771428Y-12678140D02*
X19809523Y-12754331D01*
X19809523Y-12754331D02*
X19847619Y-12906712D01*
X19847619Y-12906712D02*
X19847619Y-13020998D01*
X19847619Y-13020998D02*
X19809523Y-13173379D01*
X19809523Y-13173379D02*
X19771428Y-13249569D01*
X19771428Y-13249569D02*
X19695238Y-13325760D01*
X19695238Y-13325760D02*
X19580952Y-13363855D01*
X19580952Y-13363855D02*
X19390476Y-13363855D01*
X20342857Y-12563855D02*
X20495238Y-12563855D01*
X20495238Y-12563855D02*
X20571428Y-12601950D01*
X20571428Y-12601950D02*
X20647619Y-12678140D01*
X20647619Y-12678140D02*
X20685714Y-12830521D01*
X20685714Y-12830521D02*
X20685714Y-13097188D01*
X20685714Y-13097188D02*
X20647619Y-13249569D01*
X20647619Y-13249569D02*
X20571428Y-13325760D01*
X20571428Y-13325760D02*
X20495238Y-13363855D01*
X20495238Y-13363855D02*
X20342857Y-13363855D01*
X20342857Y-13363855D02*
X20266666Y-13325760D01*
X20266666Y-13325760D02*
X20190476Y-13249569D01*
X20190476Y-13249569D02*
X20152380Y-13097188D01*
X20152380Y-13097188D02*
X20152380Y-12830521D01*
X20152380Y-12830521D02*
X20190476Y-12678140D01*
X20190476Y-12678140D02*
X20266666Y-12601950D01*
X20266666Y-12601950D02*
X20342857Y-12563855D01*
X20952380Y-12563855D02*
X21142856Y-13363855D01*
X21142856Y-13363855D02*
X21295237Y-12792426D01*
X21295237Y-12792426D02*
X21447618Y-13363855D01*
X21447618Y-13363855D02*
X21638095Y-12563855D01*
X22438095Y-12640045D02*
X22590476Y-12525760D01*
X22590476Y-12525760D02*
X22742857Y-12640045D01*
X19390476Y-51563855D02*
X19847619Y-51563855D01*
X19619047Y-52363855D02*
X19619047Y-51563855D01*
X20038095Y-51563855D02*
X20571429Y-52363855D01*
X20571429Y-51563855D02*
X20038095Y-52363855D01*
X19866667Y-54903855D02*
X19600000Y-54522902D01*
X19409524Y-54903855D02*
X19409524Y-54103855D01*
X19409524Y-54103855D02*
X19714286Y-54103855D01*
X19714286Y-54103855D02*
X19790476Y-54141950D01*
X19790476Y-54141950D02*
X19828571Y-54180045D01*
X19828571Y-54180045D02*
X19866667Y-54256236D01*
X19866667Y-54256236D02*
X19866667Y-54370521D01*
X19866667Y-54370521D02*
X19828571Y-54446712D01*
X19828571Y-54446712D02*
X19790476Y-54484807D01*
X19790476Y-54484807D02*
X19714286Y-54522902D01*
X19714286Y-54522902D02*
X19409524Y-54522902D01*
X20133333Y-54103855D02*
X20666667Y-54903855D01*
X20666667Y-54103855D02*
X20133333Y-54903855D01*
X19200000Y-56643855D02*
X19352381Y-56643855D01*
X19352381Y-56643855D02*
X19428571Y-56681950D01*
X19428571Y-56681950D02*
X19504762Y-56758140D01*
X19504762Y-56758140D02*
X19542857Y-56910521D01*
X19542857Y-56910521D02*
X19542857Y-57177188D01*
X19542857Y-57177188D02*
X19504762Y-57329569D01*
X19504762Y-57329569D02*
X19428571Y-57405760D01*
X19428571Y-57405760D02*
X19352381Y-57443855D01*
X19352381Y-57443855D02*
X19200000Y-57443855D01*
X19200000Y-57443855D02*
X19123809Y-57405760D01*
X19123809Y-57405760D02*
X19047619Y-57329569D01*
X19047619Y-57329569D02*
X19009523Y-57177188D01*
X19009523Y-57177188D02*
X19009523Y-56910521D01*
X19009523Y-56910521D02*
X19047619Y-56758140D01*
X19047619Y-56758140D02*
X19123809Y-56681950D01*
X19123809Y-56681950D02*
X19200000Y-56643855D01*
X19885714Y-56643855D02*
X19885714Y-57291474D01*
X19885714Y-57291474D02*
X19923809Y-57367664D01*
X19923809Y-57367664D02*
X19961904Y-57405760D01*
X19961904Y-57405760D02*
X20038095Y-57443855D01*
X20038095Y-57443855D02*
X20190476Y-57443855D01*
X20190476Y-57443855D02*
X20266666Y-57405760D01*
X20266666Y-57405760D02*
X20304761Y-57367664D01*
X20304761Y-57367664D02*
X20342857Y-57291474D01*
X20342857Y-57291474D02*
X20342857Y-56643855D01*
X20609523Y-56643855D02*
X21066666Y-56643855D01*
X20838094Y-57443855D02*
X20838094Y-56643855D01*
X19390476Y-59221950D02*
X19314286Y-59183855D01*
X19314286Y-59183855D02*
X19200000Y-59183855D01*
X19200000Y-59183855D02*
X19085714Y-59221950D01*
X19085714Y-59221950D02*
X19009524Y-59298140D01*
X19009524Y-59298140D02*
X18971429Y-59374331D01*
X18971429Y-59374331D02*
X18933333Y-59526712D01*
X18933333Y-59526712D02*
X18933333Y-59640998D01*
X18933333Y-59640998D02*
X18971429Y-59793379D01*
X18971429Y-59793379D02*
X19009524Y-59869569D01*
X19009524Y-59869569D02*
X19085714Y-59945760D01*
X19085714Y-59945760D02*
X19200000Y-59983855D01*
X19200000Y-59983855D02*
X19276191Y-59983855D01*
X19276191Y-59983855D02*
X19390476Y-59945760D01*
X19390476Y-59945760D02*
X19428572Y-59907664D01*
X19428572Y-59907664D02*
X19428572Y-59640998D01*
X19428572Y-59640998D02*
X19276191Y-59640998D01*
X19771429Y-59983855D02*
X19771429Y-59183855D01*
X19771429Y-59183855D02*
X20228572Y-59983855D01*
X20228572Y-59983855D02*
X20228572Y-59183855D01*
X20609524Y-59983855D02*
X20609524Y-59183855D01*
X20609524Y-59183855D02*
X20800000Y-59183855D01*
X20800000Y-59183855D02*
X20914286Y-59221950D01*
X20914286Y-59221950D02*
X20990476Y-59298140D01*
X20990476Y-59298140D02*
X21028571Y-59374331D01*
X21028571Y-59374331D02*
X21066667Y-59526712D01*
X21066667Y-59526712D02*
X21066667Y-59640998D01*
X21066667Y-59640998D02*
X21028571Y-59793379D01*
X21028571Y-59793379D02*
X20990476Y-59869569D01*
X20990476Y-59869569D02*
X20914286Y-59945760D01*
X20914286Y-59945760D02*
X20800000Y-59983855D01*
X20800000Y-59983855D02*
X20609524Y-59983855D01*
X18933333Y-61723855D02*
X19200000Y-62523855D01*
X19200000Y-62523855D02*
X19466666Y-61723855D01*
X20190476Y-62447664D02*
X20152380Y-62485760D01*
X20152380Y-62485760D02*
X20038095Y-62523855D01*
X20038095Y-62523855D02*
X19961904Y-62523855D01*
X19961904Y-62523855D02*
X19847618Y-62485760D01*
X19847618Y-62485760D02*
X19771428Y-62409569D01*
X19771428Y-62409569D02*
X19733333Y-62333379D01*
X19733333Y-62333379D02*
X19695237Y-62180998D01*
X19695237Y-62180998D02*
X19695237Y-62066712D01*
X19695237Y-62066712D02*
X19733333Y-61914331D01*
X19733333Y-61914331D02*
X19771428Y-61838140D01*
X19771428Y-61838140D02*
X19847618Y-61761950D01*
X19847618Y-61761950D02*
X19961904Y-61723855D01*
X19961904Y-61723855D02*
X20038095Y-61723855D01*
X20038095Y-61723855D02*
X20152380Y-61761950D01*
X20152380Y-61761950D02*
X20190476Y-61800045D01*
X20990476Y-62447664D02*
X20952380Y-62485760D01*
X20952380Y-62485760D02*
X20838095Y-62523855D01*
X20838095Y-62523855D02*
X20761904Y-62523855D01*
X20761904Y-62523855D02*
X20647618Y-62485760D01*
X20647618Y-62485760D02*
X20571428Y-62409569D01*
X20571428Y-62409569D02*
X20533333Y-62333379D01*
X20533333Y-62333379D02*
X20495237Y-62180998D01*
X20495237Y-62180998D02*
X20495237Y-62066712D01*
X20495237Y-62066712D02*
X20533333Y-61914331D01*
X20533333Y-61914331D02*
X20571428Y-61838140D01*
X20571428Y-61838140D02*
X20647618Y-61761950D01*
X20647618Y-61761950D02*
X20761904Y-61723855D01*
X20761904Y-61723855D02*
X20838095Y-61723855D01*
X20838095Y-61723855D02*
X20952380Y-61761950D01*
X20952380Y-61761950D02*
X20990476Y-61800045D01*
X17676189Y-72325760D02*
X17790475Y-72363855D01*
X17790475Y-72363855D02*
X17980951Y-72363855D01*
X17980951Y-72363855D02*
X18057142Y-72325760D01*
X18057142Y-72325760D02*
X18095237Y-72287664D01*
X18095237Y-72287664D02*
X18133332Y-72211474D01*
X18133332Y-72211474D02*
X18133332Y-72135283D01*
X18133332Y-72135283D02*
X18095237Y-72059093D01*
X18095237Y-72059093D02*
X18057142Y-72020998D01*
X18057142Y-72020998D02*
X17980951Y-71982902D01*
X17980951Y-71982902D02*
X17828570Y-71944807D01*
X17828570Y-71944807D02*
X17752380Y-71906712D01*
X17752380Y-71906712D02*
X17714285Y-71868617D01*
X17714285Y-71868617D02*
X17676189Y-71792426D01*
X17676189Y-71792426D02*
X17676189Y-71716236D01*
X17676189Y-71716236D02*
X17714285Y-71640045D01*
X17714285Y-71640045D02*
X17752380Y-71601950D01*
X17752380Y-71601950D02*
X17828570Y-71563855D01*
X17828570Y-71563855D02*
X18019047Y-71563855D01*
X18019047Y-71563855D02*
X18133332Y-71601950D01*
X18476190Y-71944807D02*
X18742856Y-71944807D01*
X18857142Y-72363855D02*
X18476190Y-72363855D01*
X18476190Y-72363855D02*
X18476190Y-71563855D01*
X18476190Y-71563855D02*
X18857142Y-71563855D01*
X19657143Y-72363855D02*
X19390476Y-71982902D01*
X19200000Y-72363855D02*
X19200000Y-71563855D01*
X19200000Y-71563855D02*
X19504762Y-71563855D01*
X19504762Y-71563855D02*
X19580952Y-71601950D01*
X19580952Y-71601950D02*
X19619047Y-71640045D01*
X19619047Y-71640045D02*
X19657143Y-71716236D01*
X19657143Y-71716236D02*
X19657143Y-71830521D01*
X19657143Y-71830521D02*
X19619047Y-71906712D01*
X19619047Y-71906712D02*
X19580952Y-71944807D01*
X19580952Y-71944807D02*
X19504762Y-71982902D01*
X19504762Y-71982902D02*
X19200000Y-71982902D01*
X19885714Y-71563855D02*
X20152381Y-72363855D01*
X20152381Y-72363855D02*
X20419047Y-71563855D01*
X20838095Y-71563855D02*
X20990476Y-71563855D01*
X20990476Y-71563855D02*
X21066666Y-71601950D01*
X21066666Y-71601950D02*
X21142857Y-71678140D01*
X21142857Y-71678140D02*
X21180952Y-71830521D01*
X21180952Y-71830521D02*
X21180952Y-72097188D01*
X21180952Y-72097188D02*
X21142857Y-72249569D01*
X21142857Y-72249569D02*
X21066666Y-72325760D01*
X21066666Y-72325760D02*
X20990476Y-72363855D01*
X20990476Y-72363855D02*
X20838095Y-72363855D01*
X20838095Y-72363855D02*
X20761904Y-72325760D01*
X20761904Y-72325760D02*
X20685714Y-72249569D01*
X20685714Y-72249569D02*
X20647618Y-72097188D01*
X20647618Y-72097188D02*
X20647618Y-71830521D01*
X20647618Y-71830521D02*
X20685714Y-71678140D01*
X20685714Y-71678140D02*
X20761904Y-71601950D01*
X20761904Y-71601950D02*
X20838095Y-71563855D01*
X21523809Y-72287664D02*
X21561904Y-72325760D01*
X21561904Y-72325760D02*
X21523809Y-72363855D01*
X21523809Y-72363855D02*
X21485713Y-72325760D01*
X21485713Y-72325760D02*
X21523809Y-72287664D01*
X21523809Y-72287664D02*
X21523809Y-72363855D01*
X21523809Y-71868617D02*
X21561904Y-71906712D01*
X21561904Y-71906712D02*
X21523809Y-71944807D01*
X21523809Y-71944807D02*
X21485713Y-71906712D01*
X21485713Y-71906712D02*
X21523809Y-71868617D01*
X21523809Y-71868617D02*
X21523809Y-71944807D01*
X22514285Y-71944807D02*
X22780951Y-71944807D01*
X22895237Y-72363855D02*
X22514285Y-72363855D01*
X22514285Y-72363855D02*
X22514285Y-71563855D01*
X22514285Y-71563855D02*
X22895237Y-71563855D01*
X23161904Y-71563855D02*
X23695238Y-72363855D01*
X23695238Y-71563855D02*
X23161904Y-72363855D01*
X23885714Y-71563855D02*
X24342857Y-71563855D01*
X24114285Y-72363855D02*
X24114285Y-71563855D01*
X25600000Y-71563855D02*
X25219048Y-71563855D01*
X25219048Y-71563855D02*
X25180952Y-71944807D01*
X25180952Y-71944807D02*
X25219048Y-71906712D01*
X25219048Y-71906712D02*
X25295238Y-71868617D01*
X25295238Y-71868617D02*
X25485714Y-71868617D01*
X25485714Y-71868617D02*
X25561905Y-71906712D01*
X25561905Y-71906712D02*
X25600000Y-71944807D01*
X25600000Y-71944807D02*
X25638095Y-72020998D01*
X25638095Y-72020998D02*
X25638095Y-72211474D01*
X25638095Y-72211474D02*
X25600000Y-72287664D01*
X25600000Y-72287664D02*
X25561905Y-72325760D01*
X25561905Y-72325760D02*
X25485714Y-72363855D01*
X25485714Y-72363855D02*
X25295238Y-72363855D01*
X25295238Y-72363855D02*
X25219048Y-72325760D01*
X25219048Y-72325760D02*
X25180952Y-72287664D01*
X25866667Y-71563855D02*
X26133334Y-72363855D01*
X26133334Y-72363855D02*
X26400000Y-71563855D01*
X31009523Y-88563855D02*
X31504761Y-88563855D01*
X31504761Y-88563855D02*
X31238095Y-88868617D01*
X31238095Y-88868617D02*
X31352380Y-88868617D01*
X31352380Y-88868617D02*
X31428571Y-88906712D01*
X31428571Y-88906712D02*
X31466666Y-88944807D01*
X31466666Y-88944807D02*
X31504761Y-89020998D01*
X31504761Y-89020998D02*
X31504761Y-89211474D01*
X31504761Y-89211474D02*
X31466666Y-89287664D01*
X31466666Y-89287664D02*
X31428571Y-89325760D01*
X31428571Y-89325760D02*
X31352380Y-89363855D01*
X31352380Y-89363855D02*
X31123809Y-89363855D01*
X31123809Y-89363855D02*
X31047618Y-89325760D01*
X31047618Y-89325760D02*
X31009523Y-89287664D01*
X31733333Y-88563855D02*
X32000000Y-89363855D01*
X32000000Y-89363855D02*
X32266666Y-88563855D01*
X32457142Y-88563855D02*
X32952380Y-88563855D01*
X32952380Y-88563855D02*
X32685714Y-88868617D01*
X32685714Y-88868617D02*
X32799999Y-88868617D01*
X32799999Y-88868617D02*
X32876190Y-88906712D01*
X32876190Y-88906712D02*
X32914285Y-88944807D01*
X32914285Y-88944807D02*
X32952380Y-89020998D01*
X32952380Y-89020998D02*
X32952380Y-89211474D01*
X32952380Y-89211474D02*
X32914285Y-89287664D01*
X32914285Y-89287664D02*
X32876190Y-89325760D01*
X32876190Y-89325760D02*
X32799999Y-89363855D01*
X32799999Y-89363855D02*
X32571428Y-89363855D01*
X32571428Y-89363855D02*
X32495237Y-89325760D01*
X32495237Y-89325760D02*
X32457142Y-89287664D01*
X33990476Y-7563855D02*
X34447619Y-7563855D01*
X34219047Y-8363855D02*
X34219047Y-7563855D01*
X34714286Y-8363855D02*
X34714286Y-7563855D01*
X34714286Y-7563855D02*
X35019048Y-7563855D01*
X35019048Y-7563855D02*
X35095238Y-7601950D01*
X35095238Y-7601950D02*
X35133333Y-7640045D01*
X35133333Y-7640045D02*
X35171429Y-7716236D01*
X35171429Y-7716236D02*
X35171429Y-7830521D01*
X35171429Y-7830521D02*
X35133333Y-7906712D01*
X35133333Y-7906712D02*
X35095238Y-7944807D01*
X35095238Y-7944807D02*
X35019048Y-7982902D01*
X35019048Y-7982902D02*
X34714286Y-7982902D01*
X35895238Y-7563855D02*
X35514286Y-7563855D01*
X35514286Y-7563855D02*
X35476190Y-7944807D01*
X35476190Y-7944807D02*
X35514286Y-7906712D01*
X35514286Y-7906712D02*
X35590476Y-7868617D01*
X35590476Y-7868617D02*
X35780952Y-7868617D01*
X35780952Y-7868617D02*
X35857143Y-7906712D01*
X35857143Y-7906712D02*
X35895238Y-7944807D01*
X35895238Y-7944807D02*
X35933333Y-8020998D01*
X35933333Y-8020998D02*
X35933333Y-8211474D01*
X35933333Y-8211474D02*
X35895238Y-8287664D01*
X35895238Y-8287664D02*
X35857143Y-8325760D01*
X35857143Y-8325760D02*
X35780952Y-8363855D01*
X35780952Y-8363855D02*
X35590476Y-8363855D01*
X35590476Y-8363855D02*
X35514286Y-8325760D01*
X35514286Y-8325760D02*
X35476190Y-8287664D01*
X33990476Y-22063855D02*
X34447619Y-22063855D01*
X34219047Y-22863855D02*
X34219047Y-22063855D01*
X34714286Y-22863855D02*
X34714286Y-22063855D01*
X34714286Y-22063855D02*
X35019048Y-22063855D01*
X35019048Y-22063855D02*
X35095238Y-22101950D01*
X35095238Y-22101950D02*
X35133333Y-22140045D01*
X35133333Y-22140045D02*
X35171429Y-22216236D01*
X35171429Y-22216236D02*
X35171429Y-22330521D01*
X35171429Y-22330521D02*
X35133333Y-22406712D01*
X35133333Y-22406712D02*
X35095238Y-22444807D01*
X35095238Y-22444807D02*
X35019048Y-22482902D01*
X35019048Y-22482902D02*
X34714286Y-22482902D01*
X35857143Y-22330521D02*
X35857143Y-22863855D01*
X35666667Y-22025760D02*
X35476190Y-22597188D01*
X35476190Y-22597188D02*
X35971429Y-22597188D01*
X33990476Y-24563855D02*
X34447619Y-24563855D01*
X34219047Y-25363855D02*
X34219047Y-24563855D01*
X34714286Y-25363855D02*
X34714286Y-24563855D01*
X34714286Y-24563855D02*
X35019048Y-24563855D01*
X35019048Y-24563855D02*
X35095238Y-24601950D01*
X35095238Y-24601950D02*
X35133333Y-24640045D01*
X35133333Y-24640045D02*
X35171429Y-24716236D01*
X35171429Y-24716236D02*
X35171429Y-24830521D01*
X35171429Y-24830521D02*
X35133333Y-24906712D01*
X35133333Y-24906712D02*
X35095238Y-24944807D01*
X35095238Y-24944807D02*
X35019048Y-24982902D01*
X35019048Y-24982902D02*
X34714286Y-24982902D01*
X35476190Y-24640045D02*
X35514286Y-24601950D01*
X35514286Y-24601950D02*
X35590476Y-24563855D01*
X35590476Y-24563855D02*
X35780952Y-24563855D01*
X35780952Y-24563855D02*
X35857143Y-24601950D01*
X35857143Y-24601950D02*
X35895238Y-24640045D01*
X35895238Y-24640045D02*
X35933333Y-24716236D01*
X35933333Y-24716236D02*
X35933333Y-24792426D01*
X35933333Y-24792426D02*
X35895238Y-24906712D01*
X35895238Y-24906712D02*
X35438095Y-25363855D01*
X35438095Y-25363855D02*
X35933333Y-25363855D01*
X33990476Y-28563855D02*
X34447619Y-28563855D01*
X34219047Y-29363855D02*
X34219047Y-28563855D01*
X34714286Y-29363855D02*
X34714286Y-28563855D01*
X34714286Y-28563855D02*
X35019048Y-28563855D01*
X35019048Y-28563855D02*
X35095238Y-28601950D01*
X35095238Y-28601950D02*
X35133333Y-28640045D01*
X35133333Y-28640045D02*
X35171429Y-28716236D01*
X35171429Y-28716236D02*
X35171429Y-28830521D01*
X35171429Y-28830521D02*
X35133333Y-28906712D01*
X35133333Y-28906712D02*
X35095238Y-28944807D01*
X35095238Y-28944807D02*
X35019048Y-28982902D01*
X35019048Y-28982902D02*
X34714286Y-28982902D01*
X35438095Y-28563855D02*
X35933333Y-28563855D01*
X35933333Y-28563855D02*
X35666667Y-28868617D01*
X35666667Y-28868617D02*
X35780952Y-28868617D01*
X35780952Y-28868617D02*
X35857143Y-28906712D01*
X35857143Y-28906712D02*
X35895238Y-28944807D01*
X35895238Y-28944807D02*
X35933333Y-29020998D01*
X35933333Y-29020998D02*
X35933333Y-29211474D01*
X35933333Y-29211474D02*
X35895238Y-29287664D01*
X35895238Y-29287664D02*
X35857143Y-29325760D01*
X35857143Y-29325760D02*
X35780952Y-29363855D01*
X35780952Y-29363855D02*
X35552381Y-29363855D01*
X35552381Y-29363855D02*
X35476190Y-29325760D01*
X35476190Y-29325760D02*
X35438095Y-29287664D01*
X33990476Y-50563855D02*
X34447619Y-50563855D01*
X34219047Y-51363855D02*
X34219047Y-50563855D01*
X34714286Y-51363855D02*
X34714286Y-50563855D01*
X34714286Y-50563855D02*
X35019048Y-50563855D01*
X35019048Y-50563855D02*
X35095238Y-50601950D01*
X35095238Y-50601950D02*
X35133333Y-50640045D01*
X35133333Y-50640045D02*
X35171429Y-50716236D01*
X35171429Y-50716236D02*
X35171429Y-50830521D01*
X35171429Y-50830521D02*
X35133333Y-50906712D01*
X35133333Y-50906712D02*
X35095238Y-50944807D01*
X35095238Y-50944807D02*
X35019048Y-50982902D01*
X35019048Y-50982902D02*
X34714286Y-50982902D01*
X35857143Y-50563855D02*
X35704762Y-50563855D01*
X35704762Y-50563855D02*
X35628571Y-50601950D01*
X35628571Y-50601950D02*
X35590476Y-50640045D01*
X35590476Y-50640045D02*
X35514286Y-50754331D01*
X35514286Y-50754331D02*
X35476190Y-50906712D01*
X35476190Y-50906712D02*
X35476190Y-51211474D01*
X35476190Y-51211474D02*
X35514286Y-51287664D01*
X35514286Y-51287664D02*
X35552381Y-51325760D01*
X35552381Y-51325760D02*
X35628571Y-51363855D01*
X35628571Y-51363855D02*
X35780952Y-51363855D01*
X35780952Y-51363855D02*
X35857143Y-51325760D01*
X35857143Y-51325760D02*
X35895238Y-51287664D01*
X35895238Y-51287664D02*
X35933333Y-51211474D01*
X35933333Y-51211474D02*
X35933333Y-51020998D01*
X35933333Y-51020998D02*
X35895238Y-50944807D01*
X35895238Y-50944807D02*
X35857143Y-50906712D01*
X35857143Y-50906712D02*
X35780952Y-50868617D01*
X35780952Y-50868617D02*
X35628571Y-50868617D01*
X35628571Y-50868617D02*
X35552381Y-50906712D01*
X35552381Y-50906712D02*
X35514286Y-50944807D01*
X35514286Y-50944807D02*
X35476190Y-51020998D01*
X33990476Y-54563855D02*
X34447619Y-54563855D01*
X34219047Y-55363855D02*
X34219047Y-54563855D01*
X34714286Y-55363855D02*
X34714286Y-54563855D01*
X34714286Y-54563855D02*
X35019048Y-54563855D01*
X35019048Y-54563855D02*
X35095238Y-54601950D01*
X35095238Y-54601950D02*
X35133333Y-54640045D01*
X35133333Y-54640045D02*
X35171429Y-54716236D01*
X35171429Y-54716236D02*
X35171429Y-54830521D01*
X35171429Y-54830521D02*
X35133333Y-54906712D01*
X35133333Y-54906712D02*
X35095238Y-54944807D01*
X35095238Y-54944807D02*
X35019048Y-54982902D01*
X35019048Y-54982902D02*
X34714286Y-54982902D01*
X35438095Y-54563855D02*
X35971429Y-54563855D01*
X35971429Y-54563855D02*
X35628571Y-55363855D01*
X33990476Y-58563855D02*
X34447619Y-58563855D01*
X34219047Y-59363855D02*
X34219047Y-58563855D01*
X34714286Y-59363855D02*
X34714286Y-58563855D01*
X34714286Y-58563855D02*
X35019048Y-58563855D01*
X35019048Y-58563855D02*
X35095238Y-58601950D01*
X35095238Y-58601950D02*
X35133333Y-58640045D01*
X35133333Y-58640045D02*
X35171429Y-58716236D01*
X35171429Y-58716236D02*
X35171429Y-58830521D01*
X35171429Y-58830521D02*
X35133333Y-58906712D01*
X35133333Y-58906712D02*
X35095238Y-58944807D01*
X35095238Y-58944807D02*
X35019048Y-58982902D01*
X35019048Y-58982902D02*
X34714286Y-58982902D01*
X35628571Y-58906712D02*
X35552381Y-58868617D01*
X35552381Y-58868617D02*
X35514286Y-58830521D01*
X35514286Y-58830521D02*
X35476190Y-58754331D01*
X35476190Y-58754331D02*
X35476190Y-58716236D01*
X35476190Y-58716236D02*
X35514286Y-58640045D01*
X35514286Y-58640045D02*
X35552381Y-58601950D01*
X35552381Y-58601950D02*
X35628571Y-58563855D01*
X35628571Y-58563855D02*
X35780952Y-58563855D01*
X35780952Y-58563855D02*
X35857143Y-58601950D01*
X35857143Y-58601950D02*
X35895238Y-58640045D01*
X35895238Y-58640045D02*
X35933333Y-58716236D01*
X35933333Y-58716236D02*
X35933333Y-58754331D01*
X35933333Y-58754331D02*
X35895238Y-58830521D01*
X35895238Y-58830521D02*
X35857143Y-58868617D01*
X35857143Y-58868617D02*
X35780952Y-58906712D01*
X35780952Y-58906712D02*
X35628571Y-58906712D01*
X35628571Y-58906712D02*
X35552381Y-58944807D01*
X35552381Y-58944807D02*
X35514286Y-58982902D01*
X35514286Y-58982902D02*
X35476190Y-59059093D01*
X35476190Y-59059093D02*
X35476190Y-59211474D01*
X35476190Y-59211474D02*
X35514286Y-59287664D01*
X35514286Y-59287664D02*
X35552381Y-59325760D01*
X35552381Y-59325760D02*
X35628571Y-59363855D01*
X35628571Y-59363855D02*
X35780952Y-59363855D01*
X35780952Y-59363855D02*
X35857143Y-59325760D01*
X35857143Y-59325760D02*
X35895238Y-59287664D01*
X35895238Y-59287664D02*
X35933333Y-59211474D01*
X35933333Y-59211474D02*
X35933333Y-59059093D01*
X35933333Y-59059093D02*
X35895238Y-58982902D01*
X35895238Y-58982902D02*
X35857143Y-58944807D01*
X35857143Y-58944807D02*
X35780952Y-58906712D01*
X40795238Y-5363855D02*
X40795238Y-4563855D01*
X40795238Y-4563855D02*
X41100000Y-4563855D01*
X41100000Y-4563855D02*
X41176190Y-4601950D01*
X41176190Y-4601950D02*
X41214285Y-4640045D01*
X41214285Y-4640045D02*
X41252381Y-4716236D01*
X41252381Y-4716236D02*
X41252381Y-4830521D01*
X41252381Y-4830521D02*
X41214285Y-4906712D01*
X41214285Y-4906712D02*
X41176190Y-4944807D01*
X41176190Y-4944807D02*
X41100000Y-4982902D01*
X41100000Y-4982902D02*
X40795238Y-4982902D01*
X41595238Y-5363855D02*
X41595238Y-4563855D01*
X41976190Y-5363855D02*
X41976190Y-4563855D01*
X41976190Y-4563855D02*
X42433333Y-5363855D01*
X42433333Y-5363855D02*
X42433333Y-4563855D01*
X43842856Y-5363855D02*
X43385713Y-5363855D01*
X43614285Y-5363855D02*
X43614285Y-4563855D01*
X43614285Y-4563855D02*
X43538094Y-4678140D01*
X43538094Y-4678140D02*
X43461904Y-4754331D01*
X43461904Y-4754331D02*
X43385713Y-4792426D01*
X44609523Y-7183855D02*
X45104761Y-7183855D01*
X45104761Y-7183855D02*
X44838095Y-7488617D01*
X44838095Y-7488617D02*
X44952380Y-7488617D01*
X44952380Y-7488617D02*
X45028571Y-7526712D01*
X45028571Y-7526712D02*
X45066666Y-7564807D01*
X45066666Y-7564807D02*
X45104761Y-7640998D01*
X45104761Y-7640998D02*
X45104761Y-7831474D01*
X45104761Y-7831474D02*
X45066666Y-7907664D01*
X45066666Y-7907664D02*
X45028571Y-7945760D01*
X45028571Y-7945760D02*
X44952380Y-7983855D01*
X44952380Y-7983855D02*
X44723809Y-7983855D01*
X44723809Y-7983855D02*
X44647618Y-7945760D01*
X44647618Y-7945760D02*
X44609523Y-7907664D01*
X45333333Y-7183855D02*
X45600000Y-7983855D01*
X45600000Y-7983855D02*
X45866666Y-7183855D01*
X46057142Y-7183855D02*
X46552380Y-7183855D01*
X46552380Y-7183855D02*
X46285714Y-7488617D01*
X46285714Y-7488617D02*
X46399999Y-7488617D01*
X46399999Y-7488617D02*
X46476190Y-7526712D01*
X46476190Y-7526712D02*
X46514285Y-7564807D01*
X46514285Y-7564807D02*
X46552380Y-7640998D01*
X46552380Y-7640998D02*
X46552380Y-7831474D01*
X46552380Y-7831474D02*
X46514285Y-7907664D01*
X46514285Y-7907664D02*
X46476190Y-7945760D01*
X46476190Y-7945760D02*
X46399999Y-7983855D01*
X46399999Y-7983855D02*
X46171428Y-7983855D01*
X46171428Y-7983855D02*
X46095237Y-7945760D01*
X46095237Y-7945760D02*
X46057142Y-7907664D01*
X44609523Y-9723855D02*
X45104761Y-9723855D01*
X45104761Y-9723855D02*
X44838095Y-10028617D01*
X44838095Y-10028617D02*
X44952380Y-10028617D01*
X44952380Y-10028617D02*
X45028571Y-10066712D01*
X45028571Y-10066712D02*
X45066666Y-10104807D01*
X45066666Y-10104807D02*
X45104761Y-10180998D01*
X45104761Y-10180998D02*
X45104761Y-10371474D01*
X45104761Y-10371474D02*
X45066666Y-10447664D01*
X45066666Y-10447664D02*
X45028571Y-10485760D01*
X45028571Y-10485760D02*
X44952380Y-10523855D01*
X44952380Y-10523855D02*
X44723809Y-10523855D01*
X44723809Y-10523855D02*
X44647618Y-10485760D01*
X44647618Y-10485760D02*
X44609523Y-10447664D01*
X45333333Y-9723855D02*
X45600000Y-10523855D01*
X45600000Y-10523855D02*
X45866666Y-9723855D01*
X46057142Y-9723855D02*
X46552380Y-9723855D01*
X46552380Y-9723855D02*
X46285714Y-10028617D01*
X46285714Y-10028617D02*
X46399999Y-10028617D01*
X46399999Y-10028617D02*
X46476190Y-10066712D01*
X46476190Y-10066712D02*
X46514285Y-10104807D01*
X46514285Y-10104807D02*
X46552380Y-10180998D01*
X46552380Y-10180998D02*
X46552380Y-10371474D01*
X46552380Y-10371474D02*
X46514285Y-10447664D01*
X46514285Y-10447664D02*
X46476190Y-10485760D01*
X46476190Y-10485760D02*
X46399999Y-10523855D01*
X46399999Y-10523855D02*
X46171428Y-10523855D01*
X46171428Y-10523855D02*
X46095237Y-10485760D01*
X46095237Y-10485760D02*
X46057142Y-10447664D01*
X45752381Y-15070521D02*
X45752381Y-15603855D01*
X45561905Y-14765760D02*
X45371428Y-15337188D01*
X45371428Y-15337188D02*
X45866667Y-15337188D01*
X45790476Y-17343855D02*
X45409524Y-17343855D01*
X45409524Y-17343855D02*
X45371428Y-17724807D01*
X45371428Y-17724807D02*
X45409524Y-17686712D01*
X45409524Y-17686712D02*
X45485714Y-17648617D01*
X45485714Y-17648617D02*
X45676190Y-17648617D01*
X45676190Y-17648617D02*
X45752381Y-17686712D01*
X45752381Y-17686712D02*
X45790476Y-17724807D01*
X45790476Y-17724807D02*
X45828571Y-17800998D01*
X45828571Y-17800998D02*
X45828571Y-17991474D01*
X45828571Y-17991474D02*
X45790476Y-18067664D01*
X45790476Y-18067664D02*
X45752381Y-18105760D01*
X45752381Y-18105760D02*
X45676190Y-18143855D01*
X45676190Y-18143855D02*
X45485714Y-18143855D01*
X45485714Y-18143855D02*
X45409524Y-18105760D01*
X45409524Y-18105760D02*
X45371428Y-18067664D01*
X45752381Y-19883855D02*
X45600000Y-19883855D01*
X45600000Y-19883855D02*
X45523809Y-19921950D01*
X45523809Y-19921950D02*
X45485714Y-19960045D01*
X45485714Y-19960045D02*
X45409524Y-20074331D01*
X45409524Y-20074331D02*
X45371428Y-20226712D01*
X45371428Y-20226712D02*
X45371428Y-20531474D01*
X45371428Y-20531474D02*
X45409524Y-20607664D01*
X45409524Y-20607664D02*
X45447619Y-20645760D01*
X45447619Y-20645760D02*
X45523809Y-20683855D01*
X45523809Y-20683855D02*
X45676190Y-20683855D01*
X45676190Y-20683855D02*
X45752381Y-20645760D01*
X45752381Y-20645760D02*
X45790476Y-20607664D01*
X45790476Y-20607664D02*
X45828571Y-20531474D01*
X45828571Y-20531474D02*
X45828571Y-20340998D01*
X45828571Y-20340998D02*
X45790476Y-20264807D01*
X45790476Y-20264807D02*
X45752381Y-20226712D01*
X45752381Y-20226712D02*
X45676190Y-20188617D01*
X45676190Y-20188617D02*
X45523809Y-20188617D01*
X45523809Y-20188617D02*
X45447619Y-20226712D01*
X45447619Y-20226712D02*
X45409524Y-20264807D01*
X45409524Y-20264807D02*
X45371428Y-20340998D01*
X45333333Y-22423855D02*
X45866667Y-22423855D01*
X45866667Y-22423855D02*
X45523809Y-23223855D01*
X45447618Y-28303855D02*
X44990475Y-28303855D01*
X45219047Y-28303855D02*
X45219047Y-27503855D01*
X45219047Y-27503855D02*
X45142856Y-27618140D01*
X45142856Y-27618140D02*
X45066666Y-27694331D01*
X45066666Y-27694331D02*
X44990475Y-27732426D01*
X46133333Y-27503855D02*
X45980952Y-27503855D01*
X45980952Y-27503855D02*
X45904761Y-27541950D01*
X45904761Y-27541950D02*
X45866666Y-27580045D01*
X45866666Y-27580045D02*
X45790476Y-27694331D01*
X45790476Y-27694331D02*
X45752380Y-27846712D01*
X45752380Y-27846712D02*
X45752380Y-28151474D01*
X45752380Y-28151474D02*
X45790476Y-28227664D01*
X45790476Y-28227664D02*
X45828571Y-28265760D01*
X45828571Y-28265760D02*
X45904761Y-28303855D01*
X45904761Y-28303855D02*
X46057142Y-28303855D01*
X46057142Y-28303855D02*
X46133333Y-28265760D01*
X46133333Y-28265760D02*
X46171428Y-28227664D01*
X46171428Y-28227664D02*
X46209523Y-28151474D01*
X46209523Y-28151474D02*
X46209523Y-27960998D01*
X46209523Y-27960998D02*
X46171428Y-27884807D01*
X46171428Y-27884807D02*
X46133333Y-27846712D01*
X46133333Y-27846712D02*
X46057142Y-27808617D01*
X46057142Y-27808617D02*
X45904761Y-27808617D01*
X45904761Y-27808617D02*
X45828571Y-27846712D01*
X45828571Y-27846712D02*
X45790476Y-27884807D01*
X45790476Y-27884807D02*
X45752380Y-27960998D01*
X45447618Y-30843855D02*
X44990475Y-30843855D01*
X45219047Y-30843855D02*
X45219047Y-30043855D01*
X45219047Y-30043855D02*
X45142856Y-30158140D01*
X45142856Y-30158140D02*
X45066666Y-30234331D01*
X45066666Y-30234331D02*
X44990475Y-30272426D01*
X45714285Y-30043855D02*
X46247619Y-30043855D01*
X46247619Y-30043855D02*
X45904761Y-30843855D01*
X45447618Y-33383854D02*
X44990475Y-33383854D01*
X45219047Y-33383854D02*
X45219047Y-32583854D01*
X45219047Y-32583854D02*
X45142856Y-32698139D01*
X45142856Y-32698139D02*
X45066666Y-32774330D01*
X45066666Y-32774330D02*
X44990475Y-32812425D01*
X45904761Y-32926711D02*
X45828571Y-32888616D01*
X45828571Y-32888616D02*
X45790476Y-32850520D01*
X45790476Y-32850520D02*
X45752380Y-32774330D01*
X45752380Y-32774330D02*
X45752380Y-32736235D01*
X45752380Y-32736235D02*
X45790476Y-32660044D01*
X45790476Y-32660044D02*
X45828571Y-32621949D01*
X45828571Y-32621949D02*
X45904761Y-32583854D01*
X45904761Y-32583854D02*
X46057142Y-32583854D01*
X46057142Y-32583854D02*
X46133333Y-32621949D01*
X46133333Y-32621949D02*
X46171428Y-32660044D01*
X46171428Y-32660044D02*
X46209523Y-32736235D01*
X46209523Y-32736235D02*
X46209523Y-32774330D01*
X46209523Y-32774330D02*
X46171428Y-32850520D01*
X46171428Y-32850520D02*
X46133333Y-32888616D01*
X46133333Y-32888616D02*
X46057142Y-32926711D01*
X46057142Y-32926711D02*
X45904761Y-32926711D01*
X45904761Y-32926711D02*
X45828571Y-32964806D01*
X45828571Y-32964806D02*
X45790476Y-33002901D01*
X45790476Y-33002901D02*
X45752380Y-33079092D01*
X45752380Y-33079092D02*
X45752380Y-33231473D01*
X45752380Y-33231473D02*
X45790476Y-33307663D01*
X45790476Y-33307663D02*
X45828571Y-33345759D01*
X45828571Y-33345759D02*
X45904761Y-33383854D01*
X45904761Y-33383854D02*
X46057142Y-33383854D01*
X46057142Y-33383854D02*
X46133333Y-33345759D01*
X46133333Y-33345759D02*
X46171428Y-33307663D01*
X46171428Y-33307663D02*
X46209523Y-33231473D01*
X46209523Y-33231473D02*
X46209523Y-33079092D01*
X46209523Y-33079092D02*
X46171428Y-33002901D01*
X46171428Y-33002901D02*
X46133333Y-32964806D01*
X46133333Y-32964806D02*
X46057142Y-32926711D01*
X45523809Y-35466712D02*
X45447619Y-35428617D01*
X45447619Y-35428617D02*
X45409524Y-35390521D01*
X45409524Y-35390521D02*
X45371428Y-35314331D01*
X45371428Y-35314331D02*
X45371428Y-35276236D01*
X45371428Y-35276236D02*
X45409524Y-35200045D01*
X45409524Y-35200045D02*
X45447619Y-35161950D01*
X45447619Y-35161950D02*
X45523809Y-35123855D01*
X45523809Y-35123855D02*
X45676190Y-35123855D01*
X45676190Y-35123855D02*
X45752381Y-35161950D01*
X45752381Y-35161950D02*
X45790476Y-35200045D01*
X45790476Y-35200045D02*
X45828571Y-35276236D01*
X45828571Y-35276236D02*
X45828571Y-35314331D01*
X45828571Y-35314331D02*
X45790476Y-35390521D01*
X45790476Y-35390521D02*
X45752381Y-35428617D01*
X45752381Y-35428617D02*
X45676190Y-35466712D01*
X45676190Y-35466712D02*
X45523809Y-35466712D01*
X45523809Y-35466712D02*
X45447619Y-35504807D01*
X45447619Y-35504807D02*
X45409524Y-35542902D01*
X45409524Y-35542902D02*
X45371428Y-35619093D01*
X45371428Y-35619093D02*
X45371428Y-35771474D01*
X45371428Y-35771474D02*
X45409524Y-35847664D01*
X45409524Y-35847664D02*
X45447619Y-35885760D01*
X45447619Y-35885760D02*
X45523809Y-35923855D01*
X45523809Y-35923855D02*
X45676190Y-35923855D01*
X45676190Y-35923855D02*
X45752381Y-35885760D01*
X45752381Y-35885760D02*
X45790476Y-35847664D01*
X45790476Y-35847664D02*
X45828571Y-35771474D01*
X45828571Y-35771474D02*
X45828571Y-35619093D01*
X45828571Y-35619093D02*
X45790476Y-35542902D01*
X45790476Y-35542902D02*
X45752381Y-35504807D01*
X45752381Y-35504807D02*
X45676190Y-35466712D01*
X45447619Y-43543855D02*
X45600000Y-43543855D01*
X45600000Y-43543855D02*
X45676190Y-43505760D01*
X45676190Y-43505760D02*
X45714286Y-43467664D01*
X45714286Y-43467664D02*
X45790476Y-43353379D01*
X45790476Y-43353379D02*
X45828571Y-43200998D01*
X45828571Y-43200998D02*
X45828571Y-42896236D01*
X45828571Y-42896236D02*
X45790476Y-42820045D01*
X45790476Y-42820045D02*
X45752381Y-42781950D01*
X45752381Y-42781950D02*
X45676190Y-42743855D01*
X45676190Y-42743855D02*
X45523809Y-42743855D01*
X45523809Y-42743855D02*
X45447619Y-42781950D01*
X45447619Y-42781950D02*
X45409524Y-42820045D01*
X45409524Y-42820045D02*
X45371428Y-42896236D01*
X45371428Y-42896236D02*
X45371428Y-43086712D01*
X45371428Y-43086712D02*
X45409524Y-43162902D01*
X45409524Y-43162902D02*
X45447619Y-43200998D01*
X45447619Y-43200998D02*
X45523809Y-43239093D01*
X45523809Y-43239093D02*
X45676190Y-43239093D01*
X45676190Y-43239093D02*
X45752381Y-43200998D01*
X45752381Y-43200998D02*
X45790476Y-43162902D01*
X45790476Y-43162902D02*
X45828571Y-43086712D01*
X45447618Y-46083855D02*
X44990475Y-46083855D01*
X45219047Y-46083855D02*
X45219047Y-45283855D01*
X45219047Y-45283855D02*
X45142856Y-45398140D01*
X45142856Y-45398140D02*
X45066666Y-45474331D01*
X45066666Y-45474331D02*
X44990475Y-45512426D01*
X45942857Y-45283855D02*
X46019047Y-45283855D01*
X46019047Y-45283855D02*
X46095238Y-45321950D01*
X46095238Y-45321950D02*
X46133333Y-45360045D01*
X46133333Y-45360045D02*
X46171428Y-45436236D01*
X46171428Y-45436236D02*
X46209523Y-45588617D01*
X46209523Y-45588617D02*
X46209523Y-45779093D01*
X46209523Y-45779093D02*
X46171428Y-45931474D01*
X46171428Y-45931474D02*
X46133333Y-46007664D01*
X46133333Y-46007664D02*
X46095238Y-46045760D01*
X46095238Y-46045760D02*
X46019047Y-46083855D01*
X46019047Y-46083855D02*
X45942857Y-46083855D01*
X45942857Y-46083855D02*
X45866666Y-46045760D01*
X45866666Y-46045760D02*
X45828571Y-46007664D01*
X45828571Y-46007664D02*
X45790476Y-45931474D01*
X45790476Y-45931474D02*
X45752380Y-45779093D01*
X45752380Y-45779093D02*
X45752380Y-45588617D01*
X45752380Y-45588617D02*
X45790476Y-45436236D01*
X45790476Y-45436236D02*
X45828571Y-45360045D01*
X45828571Y-45360045D02*
X45866666Y-45321950D01*
X45866666Y-45321950D02*
X45942857Y-45283855D01*
X45447618Y-48623855D02*
X44990475Y-48623855D01*
X45219047Y-48623855D02*
X45219047Y-47823855D01*
X45219047Y-47823855D02*
X45142856Y-47938140D01*
X45142856Y-47938140D02*
X45066666Y-48014331D01*
X45066666Y-48014331D02*
X44990475Y-48052426D01*
X46209523Y-48623855D02*
X45752380Y-48623855D01*
X45980952Y-48623855D02*
X45980952Y-47823855D01*
X45980952Y-47823855D02*
X45904761Y-47938140D01*
X45904761Y-47938140D02*
X45828571Y-48014331D01*
X45828571Y-48014331D02*
X45752380Y-48052426D01*
X45447618Y-51163855D02*
X44990475Y-51163855D01*
X45219047Y-51163855D02*
X45219047Y-50363855D01*
X45219047Y-50363855D02*
X45142856Y-50478140D01*
X45142856Y-50478140D02*
X45066666Y-50554331D01*
X45066666Y-50554331D02*
X44990475Y-50592426D01*
X45752380Y-50440045D02*
X45790476Y-50401950D01*
X45790476Y-50401950D02*
X45866666Y-50363855D01*
X45866666Y-50363855D02*
X46057142Y-50363855D01*
X46057142Y-50363855D02*
X46133333Y-50401950D01*
X46133333Y-50401950D02*
X46171428Y-50440045D01*
X46171428Y-50440045D02*
X46209523Y-50516236D01*
X46209523Y-50516236D02*
X46209523Y-50592426D01*
X46209523Y-50592426D02*
X46171428Y-50706712D01*
X46171428Y-50706712D02*
X45714285Y-51163855D01*
X45714285Y-51163855D02*
X46209523Y-51163855D01*
X45447619Y-57983854D02*
X45066667Y-57983854D01*
X45066667Y-57983854D02*
X45028571Y-58364806D01*
X45028571Y-58364806D02*
X45066667Y-58326711D01*
X45066667Y-58326711D02*
X45142857Y-58288616D01*
X45142857Y-58288616D02*
X45333333Y-58288616D01*
X45333333Y-58288616D02*
X45409524Y-58326711D01*
X45409524Y-58326711D02*
X45447619Y-58364806D01*
X45447619Y-58364806D02*
X45485714Y-58440997D01*
X45485714Y-58440997D02*
X45485714Y-58631473D01*
X45485714Y-58631473D02*
X45447619Y-58707663D01*
X45447619Y-58707663D02*
X45409524Y-58745759D01*
X45409524Y-58745759D02*
X45333333Y-58783854D01*
X45333333Y-58783854D02*
X45142857Y-58783854D01*
X45142857Y-58783854D02*
X45066667Y-58745759D01*
X45066667Y-58745759D02*
X45028571Y-58707663D01*
X45714286Y-57983854D02*
X45980953Y-58783854D01*
X45980953Y-58783854D02*
X46247619Y-57983854D01*
X44990476Y-60561950D02*
X44914286Y-60523855D01*
X44914286Y-60523855D02*
X44800000Y-60523855D01*
X44800000Y-60523855D02*
X44685714Y-60561950D01*
X44685714Y-60561950D02*
X44609524Y-60638140D01*
X44609524Y-60638140D02*
X44571429Y-60714331D01*
X44571429Y-60714331D02*
X44533333Y-60866712D01*
X44533333Y-60866712D02*
X44533333Y-60980998D01*
X44533333Y-60980998D02*
X44571429Y-61133379D01*
X44571429Y-61133379D02*
X44609524Y-61209569D01*
X44609524Y-61209569D02*
X44685714Y-61285760D01*
X44685714Y-61285760D02*
X44800000Y-61323855D01*
X44800000Y-61323855D02*
X44876191Y-61323855D01*
X44876191Y-61323855D02*
X44990476Y-61285760D01*
X44990476Y-61285760D02*
X45028572Y-61247664D01*
X45028572Y-61247664D02*
X45028572Y-60980998D01*
X45028572Y-60980998D02*
X44876191Y-60980998D01*
X45371429Y-61323855D02*
X45371429Y-60523855D01*
X45371429Y-60523855D02*
X45828572Y-61323855D01*
X45828572Y-61323855D02*
X45828572Y-60523855D01*
X46209524Y-61323855D02*
X46209524Y-60523855D01*
X46209524Y-60523855D02*
X46400000Y-60523855D01*
X46400000Y-60523855D02*
X46514286Y-60561950D01*
X46514286Y-60561950D02*
X46590476Y-60638140D01*
X46590476Y-60638140D02*
X46628571Y-60714331D01*
X46628571Y-60714331D02*
X46666667Y-60866712D01*
X46666667Y-60866712D02*
X46666667Y-60980998D01*
X46666667Y-60980998D02*
X46628571Y-61133379D01*
X46628571Y-61133379D02*
X46590476Y-61209569D01*
X46590476Y-61209569D02*
X46514286Y-61285760D01*
X46514286Y-61285760D02*
X46400000Y-61323855D01*
X46400000Y-61323855D02*
X46209524Y-61323855D01*
X48009523Y-57863855D02*
X48009523Y-57063855D01*
X48009523Y-57063855D02*
X48276189Y-57635283D01*
X48276189Y-57635283D02*
X48542856Y-57063855D01*
X48542856Y-57063855D02*
X48542856Y-57863855D01*
X48923809Y-57444807D02*
X49190475Y-57444807D01*
X49304761Y-57863855D02*
X48923809Y-57863855D01*
X48923809Y-57863855D02*
X48923809Y-57063855D01*
X48923809Y-57063855D02*
X49304761Y-57063855D01*
X50104762Y-57787664D02*
X50066666Y-57825760D01*
X50066666Y-57825760D02*
X49952381Y-57863855D01*
X49952381Y-57863855D02*
X49876190Y-57863855D01*
X49876190Y-57863855D02*
X49761904Y-57825760D01*
X49761904Y-57825760D02*
X49685714Y-57749569D01*
X49685714Y-57749569D02*
X49647619Y-57673379D01*
X49647619Y-57673379D02*
X49609523Y-57520998D01*
X49609523Y-57520998D02*
X49609523Y-57406712D01*
X49609523Y-57406712D02*
X49647619Y-57254331D01*
X49647619Y-57254331D02*
X49685714Y-57178140D01*
X49685714Y-57178140D02*
X49761904Y-57101950D01*
X49761904Y-57101950D02*
X49876190Y-57063855D01*
X49876190Y-57063855D02*
X49952381Y-57063855D01*
X49952381Y-57063855D02*
X50066666Y-57101950D01*
X50066666Y-57101950D02*
X50104762Y-57140045D01*
X50447619Y-57863855D02*
X50447619Y-57063855D01*
X50447619Y-57444807D02*
X50904762Y-57444807D01*
X50904762Y-57863855D02*
X50904762Y-57063855D01*
X52352381Y-57787664D02*
X52314285Y-57825760D01*
X52314285Y-57825760D02*
X52200000Y-57863855D01*
X52200000Y-57863855D02*
X52123809Y-57863855D01*
X52123809Y-57863855D02*
X52009523Y-57825760D01*
X52009523Y-57825760D02*
X51933333Y-57749569D01*
X51933333Y-57749569D02*
X51895238Y-57673379D01*
X51895238Y-57673379D02*
X51857142Y-57520998D01*
X51857142Y-57520998D02*
X51857142Y-57406712D01*
X51857142Y-57406712D02*
X51895238Y-57254331D01*
X51895238Y-57254331D02*
X51933333Y-57178140D01*
X51933333Y-57178140D02*
X52009523Y-57101950D01*
X52009523Y-57101950D02*
X52123809Y-57063855D01*
X52123809Y-57063855D02*
X52200000Y-57063855D01*
X52200000Y-57063855D02*
X52314285Y-57101950D01*
X52314285Y-57101950D02*
X52352381Y-57140045D01*
X52695238Y-57863855D02*
X52695238Y-57063855D01*
X52695238Y-57444807D02*
X53152381Y-57444807D01*
X53152381Y-57863855D02*
X53152381Y-57063855D01*
X53533333Y-57444807D02*
X53799999Y-57444807D01*
X53914285Y-57863855D02*
X53533333Y-57863855D01*
X53533333Y-57863855D02*
X53533333Y-57063855D01*
X53533333Y-57063855D02*
X53914285Y-57063855D01*
X54714286Y-57787664D02*
X54676190Y-57825760D01*
X54676190Y-57825760D02*
X54561905Y-57863855D01*
X54561905Y-57863855D02*
X54485714Y-57863855D01*
X54485714Y-57863855D02*
X54371428Y-57825760D01*
X54371428Y-57825760D02*
X54295238Y-57749569D01*
X54295238Y-57749569D02*
X54257143Y-57673379D01*
X54257143Y-57673379D02*
X54219047Y-57520998D01*
X54219047Y-57520998D02*
X54219047Y-57406712D01*
X54219047Y-57406712D02*
X54257143Y-57254331D01*
X54257143Y-57254331D02*
X54295238Y-57178140D01*
X54295238Y-57178140D02*
X54371428Y-57101950D01*
X54371428Y-57101950D02*
X54485714Y-57063855D01*
X54485714Y-57063855D02*
X54561905Y-57063855D01*
X54561905Y-57063855D02*
X54676190Y-57101950D01*
X54676190Y-57101950D02*
X54714286Y-57140045D01*
X55057143Y-57863855D02*
X55057143Y-57063855D01*
X55514286Y-57863855D02*
X55171428Y-57406712D01*
X55514286Y-57063855D02*
X55057143Y-57520998D01*
X56923810Y-57863855D02*
X56657143Y-57482902D01*
X56466667Y-57863855D02*
X56466667Y-57063855D01*
X56466667Y-57063855D02*
X56771429Y-57063855D01*
X56771429Y-57063855D02*
X56847619Y-57101950D01*
X56847619Y-57101950D02*
X56885714Y-57140045D01*
X56885714Y-57140045D02*
X56923810Y-57216236D01*
X56923810Y-57216236D02*
X56923810Y-57330521D01*
X56923810Y-57330521D02*
X56885714Y-57406712D01*
X56885714Y-57406712D02*
X56847619Y-57444807D01*
X56847619Y-57444807D02*
X56771429Y-57482902D01*
X56771429Y-57482902D02*
X56466667Y-57482902D01*
X57266667Y-57444807D02*
X57533333Y-57444807D01*
X57647619Y-57863855D02*
X57266667Y-57863855D01*
X57266667Y-57863855D02*
X57266667Y-57063855D01*
X57266667Y-57063855D02*
X57647619Y-57063855D01*
X58523810Y-57940045D02*
X58447620Y-57901950D01*
X58447620Y-57901950D02*
X58371429Y-57825760D01*
X58371429Y-57825760D02*
X58257143Y-57711474D01*
X58257143Y-57711474D02*
X58180953Y-57673379D01*
X58180953Y-57673379D02*
X58104762Y-57673379D01*
X58142858Y-57863855D02*
X58066667Y-57825760D01*
X58066667Y-57825760D02*
X57990477Y-57749569D01*
X57990477Y-57749569D02*
X57952381Y-57597188D01*
X57952381Y-57597188D02*
X57952381Y-57330521D01*
X57952381Y-57330521D02*
X57990477Y-57178140D01*
X57990477Y-57178140D02*
X58066667Y-57101950D01*
X58066667Y-57101950D02*
X58142858Y-57063855D01*
X58142858Y-57063855D02*
X58295239Y-57063855D01*
X58295239Y-57063855D02*
X58371429Y-57101950D01*
X58371429Y-57101950D02*
X58447620Y-57178140D01*
X58447620Y-57178140D02*
X58485715Y-57330521D01*
X58485715Y-57330521D02*
X58485715Y-57597188D01*
X58485715Y-57597188D02*
X58447620Y-57749569D01*
X58447620Y-57749569D02*
X58371429Y-57825760D01*
X58371429Y-57825760D02*
X58295239Y-57863855D01*
X58295239Y-57863855D02*
X58142858Y-57863855D01*
X58828572Y-57063855D02*
X58828572Y-57711474D01*
X58828572Y-57711474D02*
X58866667Y-57787664D01*
X58866667Y-57787664D02*
X58904762Y-57825760D01*
X58904762Y-57825760D02*
X58980953Y-57863855D01*
X58980953Y-57863855D02*
X59133334Y-57863855D01*
X59133334Y-57863855D02*
X59209524Y-57825760D01*
X59209524Y-57825760D02*
X59247619Y-57787664D01*
X59247619Y-57787664D02*
X59285715Y-57711474D01*
X59285715Y-57711474D02*
X59285715Y-57063855D01*
X59666667Y-57863855D02*
X59666667Y-57063855D01*
X60504762Y-57863855D02*
X60238095Y-57482902D01*
X60047619Y-57863855D02*
X60047619Y-57063855D01*
X60047619Y-57063855D02*
X60352381Y-57063855D01*
X60352381Y-57063855D02*
X60428571Y-57101950D01*
X60428571Y-57101950D02*
X60466666Y-57140045D01*
X60466666Y-57140045D02*
X60504762Y-57216236D01*
X60504762Y-57216236D02*
X60504762Y-57330521D01*
X60504762Y-57330521D02*
X60466666Y-57406712D01*
X60466666Y-57406712D02*
X60428571Y-57444807D01*
X60428571Y-57444807D02*
X60352381Y-57482902D01*
X60352381Y-57482902D02*
X60047619Y-57482902D01*
X60847619Y-57444807D02*
X61114285Y-57444807D01*
X61228571Y-57863855D02*
X60847619Y-57863855D01*
X60847619Y-57863855D02*
X60847619Y-57063855D01*
X60847619Y-57063855D02*
X61228571Y-57063855D01*
X61571429Y-57863855D02*
X61571429Y-57063855D01*
X61571429Y-57063855D02*
X61761905Y-57063855D01*
X61761905Y-57063855D02*
X61876191Y-57101950D01*
X61876191Y-57101950D02*
X61952381Y-57178140D01*
X61952381Y-57178140D02*
X61990476Y-57254331D01*
X61990476Y-57254331D02*
X62028572Y-57406712D01*
X62028572Y-57406712D02*
X62028572Y-57520998D01*
X62028572Y-57520998D02*
X61990476Y-57673379D01*
X61990476Y-57673379D02*
X61952381Y-57749569D01*
X61952381Y-57749569D02*
X61876191Y-57825760D01*
X61876191Y-57825760D02*
X61761905Y-57863855D01*
X61761905Y-57863855D02*
X61571429Y-57863855D01*
X63790476Y-7221950D02*
X63714286Y-7183855D01*
X63714286Y-7183855D02*
X63600000Y-7183855D01*
X63600000Y-7183855D02*
X63485714Y-7221950D01*
X63485714Y-7221950D02*
X63409524Y-7298140D01*
X63409524Y-7298140D02*
X63371429Y-7374331D01*
X63371429Y-7374331D02*
X63333333Y-7526712D01*
X63333333Y-7526712D02*
X63333333Y-7640998D01*
X63333333Y-7640998D02*
X63371429Y-7793379D01*
X63371429Y-7793379D02*
X63409524Y-7869569D01*
X63409524Y-7869569D02*
X63485714Y-7945760D01*
X63485714Y-7945760D02*
X63600000Y-7983855D01*
X63600000Y-7983855D02*
X63676191Y-7983855D01*
X63676191Y-7983855D02*
X63790476Y-7945760D01*
X63790476Y-7945760D02*
X63828572Y-7907664D01*
X63828572Y-7907664D02*
X63828572Y-7640998D01*
X63828572Y-7640998D02*
X63676191Y-7640998D01*
X64171429Y-7983855D02*
X64171429Y-7183855D01*
X64171429Y-7183855D02*
X64628572Y-7983855D01*
X64628572Y-7983855D02*
X64628572Y-7183855D01*
X65009524Y-7983855D02*
X65009524Y-7183855D01*
X65009524Y-7183855D02*
X65200000Y-7183855D01*
X65200000Y-7183855D02*
X65314286Y-7221950D01*
X65314286Y-7221950D02*
X65390476Y-7298140D01*
X65390476Y-7298140D02*
X65428571Y-7374331D01*
X65428571Y-7374331D02*
X65466667Y-7526712D01*
X65466667Y-7526712D02*
X65466667Y-7640998D01*
X65466667Y-7640998D02*
X65428571Y-7793379D01*
X65428571Y-7793379D02*
X65390476Y-7869569D01*
X65390476Y-7869569D02*
X65314286Y-7945760D01*
X65314286Y-7945760D02*
X65200000Y-7983855D01*
X65200000Y-7983855D02*
X65009524Y-7983855D01*
X63790476Y-58021949D02*
X63714286Y-57983854D01*
X63714286Y-57983854D02*
X63600000Y-57983854D01*
X63600000Y-57983854D02*
X63485714Y-58021949D01*
X63485714Y-58021949D02*
X63409524Y-58098139D01*
X63409524Y-58098139D02*
X63371429Y-58174330D01*
X63371429Y-58174330D02*
X63333333Y-58326711D01*
X63333333Y-58326711D02*
X63333333Y-58440997D01*
X63333333Y-58440997D02*
X63371429Y-58593378D01*
X63371429Y-58593378D02*
X63409524Y-58669568D01*
X63409524Y-58669568D02*
X63485714Y-58745759D01*
X63485714Y-58745759D02*
X63600000Y-58783854D01*
X63600000Y-58783854D02*
X63676191Y-58783854D01*
X63676191Y-58783854D02*
X63790476Y-58745759D01*
X63790476Y-58745759D02*
X63828572Y-58707663D01*
X63828572Y-58707663D02*
X63828572Y-58440997D01*
X63828572Y-58440997D02*
X63676191Y-58440997D01*
X64171429Y-58783854D02*
X64171429Y-57983854D01*
X64171429Y-57983854D02*
X64628572Y-58783854D01*
X64628572Y-58783854D02*
X64628572Y-57983854D01*
X65009524Y-58783854D02*
X65009524Y-57983854D01*
X65009524Y-57983854D02*
X65200000Y-57983854D01*
X65200000Y-57983854D02*
X65314286Y-58021949D01*
X65314286Y-58021949D02*
X65390476Y-58098139D01*
X65390476Y-58098139D02*
X65428571Y-58174330D01*
X65428571Y-58174330D02*
X65466667Y-58326711D01*
X65466667Y-58326711D02*
X65466667Y-58440997D01*
X65466667Y-58440997D02*
X65428571Y-58593378D01*
X65428571Y-58593378D02*
X65390476Y-58669568D01*
X65390476Y-58669568D02*
X65314286Y-58745759D01*
X65314286Y-58745759D02*
X65200000Y-58783854D01*
X65200000Y-58783854D02*
X65009524Y-58783854D01*
X63790476Y-60561950D02*
X63714286Y-60523855D01*
X63714286Y-60523855D02*
X63600000Y-60523855D01*
X63600000Y-60523855D02*
X63485714Y-60561950D01*
X63485714Y-60561950D02*
X63409524Y-60638140D01*
X63409524Y-60638140D02*
X63371429Y-60714331D01*
X63371429Y-60714331D02*
X63333333Y-60866712D01*
X63333333Y-60866712D02*
X63333333Y-60980998D01*
X63333333Y-60980998D02*
X63371429Y-61133379D01*
X63371429Y-61133379D02*
X63409524Y-61209569D01*
X63409524Y-61209569D02*
X63485714Y-61285760D01*
X63485714Y-61285760D02*
X63600000Y-61323855D01*
X63600000Y-61323855D02*
X63676191Y-61323855D01*
X63676191Y-61323855D02*
X63790476Y-61285760D01*
X63790476Y-61285760D02*
X63828572Y-61247664D01*
X63828572Y-61247664D02*
X63828572Y-60980998D01*
X63828572Y-60980998D02*
X63676191Y-60980998D01*
X64171429Y-61323855D02*
X64171429Y-60523855D01*
X64171429Y-60523855D02*
X64628572Y-61323855D01*
X64628572Y-61323855D02*
X64628572Y-60523855D01*
X65009524Y-61323855D02*
X65009524Y-60523855D01*
X65009524Y-60523855D02*
X65200000Y-60523855D01*
X65200000Y-60523855D02*
X65314286Y-60561950D01*
X65314286Y-60561950D02*
X65390476Y-60638140D01*
X65390476Y-60638140D02*
X65428571Y-60714331D01*
X65428571Y-60714331D02*
X65466667Y-60866712D01*
X65466667Y-60866712D02*
X65466667Y-60980998D01*
X65466667Y-60980998D02*
X65428571Y-61133379D01*
X65428571Y-61133379D02*
X65390476Y-61209569D01*
X65390476Y-61209569D02*
X65314286Y-61285760D01*
X65314286Y-61285760D02*
X65200000Y-61323855D01*
X65200000Y-61323855D02*
X65009524Y-61323855D01*
X77471428Y-74363855D02*
X77471428Y-75011474D01*
X77471428Y-75011474D02*
X77509523Y-75087664D01*
X77509523Y-75087664D02*
X77547618Y-75125760D01*
X77547618Y-75125760D02*
X77623809Y-75163855D01*
X77623809Y-75163855D02*
X77776190Y-75163855D01*
X77776190Y-75163855D02*
X77852380Y-75125760D01*
X77852380Y-75125760D02*
X77890475Y-75087664D01*
X77890475Y-75087664D02*
X77928571Y-75011474D01*
X77928571Y-75011474D02*
X77928571Y-74363855D01*
X78271427Y-75125760D02*
X78385713Y-75163855D01*
X78385713Y-75163855D02*
X78576189Y-75163855D01*
X78576189Y-75163855D02*
X78652380Y-75125760D01*
X78652380Y-75125760D02*
X78690475Y-75087664D01*
X78690475Y-75087664D02*
X78728570Y-75011474D01*
X78728570Y-75011474D02*
X78728570Y-74935283D01*
X78728570Y-74935283D02*
X78690475Y-74859093D01*
X78690475Y-74859093D02*
X78652380Y-74820998D01*
X78652380Y-74820998D02*
X78576189Y-74782902D01*
X78576189Y-74782902D02*
X78423808Y-74744807D01*
X78423808Y-74744807D02*
X78347618Y-74706712D01*
X78347618Y-74706712D02*
X78309523Y-74668617D01*
X78309523Y-74668617D02*
X78271427Y-74592426D01*
X78271427Y-74592426D02*
X78271427Y-74516236D01*
X78271427Y-74516236D02*
X78309523Y-74440045D01*
X78309523Y-74440045D02*
X78347618Y-74401950D01*
X78347618Y-74401950D02*
X78423808Y-74363855D01*
X78423808Y-74363855D02*
X78614285Y-74363855D01*
X78614285Y-74363855D02*
X78728570Y-74401950D01*
X79338094Y-74744807D02*
X79452380Y-74782902D01*
X79452380Y-74782902D02*
X79490475Y-74820998D01*
X79490475Y-74820998D02*
X79528571Y-74897188D01*
X79528571Y-74897188D02*
X79528571Y-75011474D01*
X79528571Y-75011474D02*
X79490475Y-75087664D01*
X79490475Y-75087664D02*
X79452380Y-75125760D01*
X79452380Y-75125760D02*
X79376190Y-75163855D01*
X79376190Y-75163855D02*
X79071428Y-75163855D01*
X79071428Y-75163855D02*
X79071428Y-74363855D01*
X79071428Y-74363855D02*
X79338094Y-74363855D01*
X79338094Y-74363855D02*
X79414285Y-74401950D01*
X79414285Y-74401950D02*
X79452380Y-74440045D01*
X79452380Y-74440045D02*
X79490475Y-74516236D01*
X79490475Y-74516236D02*
X79490475Y-74592426D01*
X79490475Y-74592426D02*
X79452380Y-74668617D01*
X79452380Y-74668617D02*
X79414285Y-74706712D01*
X79414285Y-74706712D02*
X79338094Y-74744807D01*
X79338094Y-74744807D02*
X79071428Y-74744807D01*
X80442856Y-75125760D02*
X80557142Y-75163855D01*
X80557142Y-75163855D02*
X80747618Y-75163855D01*
X80747618Y-75163855D02*
X80823809Y-75125760D01*
X80823809Y-75125760D02*
X80861904Y-75087664D01*
X80861904Y-75087664D02*
X80899999Y-75011474D01*
X80899999Y-75011474D02*
X80899999Y-74935283D01*
X80899999Y-74935283D02*
X80861904Y-74859093D01*
X80861904Y-74859093D02*
X80823809Y-74820998D01*
X80823809Y-74820998D02*
X80747618Y-74782902D01*
X80747618Y-74782902D02*
X80595237Y-74744807D01*
X80595237Y-74744807D02*
X80519047Y-74706712D01*
X80519047Y-74706712D02*
X80480952Y-74668617D01*
X80480952Y-74668617D02*
X80442856Y-74592426D01*
X80442856Y-74592426D02*
X80442856Y-74516236D01*
X80442856Y-74516236D02*
X80480952Y-74440045D01*
X80480952Y-74440045D02*
X80519047Y-74401950D01*
X80519047Y-74401950D02*
X80595237Y-74363855D01*
X80595237Y-74363855D02*
X80785714Y-74363855D01*
X80785714Y-74363855D02*
X80899999Y-74401950D01*
X81242857Y-74744807D02*
X81509523Y-74744807D01*
X81623809Y-75163855D02*
X81242857Y-75163855D01*
X81242857Y-75163855D02*
X81242857Y-74363855D01*
X81242857Y-74363855D02*
X81623809Y-74363855D01*
X81966667Y-75163855D02*
X81966667Y-74363855D01*
X81966667Y-74363855D02*
X82423810Y-75163855D01*
X82423810Y-75163855D02*
X82423810Y-74363855D01*
X82766666Y-75125760D02*
X82880952Y-75163855D01*
X82880952Y-75163855D02*
X83071428Y-75163855D01*
X83071428Y-75163855D02*
X83147619Y-75125760D01*
X83147619Y-75125760D02*
X83185714Y-75087664D01*
X83185714Y-75087664D02*
X83223809Y-75011474D01*
X83223809Y-75011474D02*
X83223809Y-74935283D01*
X83223809Y-74935283D02*
X83185714Y-74859093D01*
X83185714Y-74859093D02*
X83147619Y-74820998D01*
X83147619Y-74820998D02*
X83071428Y-74782902D01*
X83071428Y-74782902D02*
X82919047Y-74744807D01*
X82919047Y-74744807D02*
X82842857Y-74706712D01*
X82842857Y-74706712D02*
X82804762Y-74668617D01*
X82804762Y-74668617D02*
X82766666Y-74592426D01*
X82766666Y-74592426D02*
X82766666Y-74516236D01*
X82766666Y-74516236D02*
X82804762Y-74440045D01*
X82804762Y-74440045D02*
X82842857Y-74401950D01*
X82842857Y-74401950D02*
X82919047Y-74363855D01*
X82919047Y-74363855D02*
X83109524Y-74363855D01*
X83109524Y-74363855D02*
X83223809Y-74401950D01*
X83719048Y-74363855D02*
X83871429Y-74363855D01*
X83871429Y-74363855D02*
X83947619Y-74401950D01*
X83947619Y-74401950D02*
X84023810Y-74478140D01*
X84023810Y-74478140D02*
X84061905Y-74630521D01*
X84061905Y-74630521D02*
X84061905Y-74897188D01*
X84061905Y-74897188D02*
X84023810Y-75049569D01*
X84023810Y-75049569D02*
X83947619Y-75125760D01*
X83947619Y-75125760D02*
X83871429Y-75163855D01*
X83871429Y-75163855D02*
X83719048Y-75163855D01*
X83719048Y-75163855D02*
X83642857Y-75125760D01*
X83642857Y-75125760D02*
X83566667Y-75049569D01*
X83566667Y-75049569D02*
X83528571Y-74897188D01*
X83528571Y-74897188D02*
X83528571Y-74630521D01*
X83528571Y-74630521D02*
X83566667Y-74478140D01*
X83566667Y-74478140D02*
X83642857Y-74401950D01*
X83642857Y-74401950D02*
X83719048Y-74363855D01*
X84861905Y-75163855D02*
X84595238Y-74782902D01*
X84404762Y-75163855D02*
X84404762Y-74363855D01*
X84404762Y-74363855D02*
X84709524Y-74363855D01*
X84709524Y-74363855D02*
X84785714Y-74401950D01*
X84785714Y-74401950D02*
X84823809Y-74440045D01*
X84823809Y-74440045D02*
X84861905Y-74516236D01*
X84861905Y-74516236D02*
X84861905Y-74630521D01*
X84861905Y-74630521D02*
X84823809Y-74706712D01*
X84823809Y-74706712D02*
X84785714Y-74744807D01*
X84785714Y-74744807D02*
X84709524Y-74782902D01*
X84709524Y-74782902D02*
X84404762Y-74782902D01*
X85814286Y-74744807D02*
X86080952Y-74744807D01*
X86195238Y-75163855D02*
X85814286Y-75163855D01*
X85814286Y-75163855D02*
X85814286Y-74363855D01*
X85814286Y-74363855D02*
X86195238Y-74363855D01*
X86461905Y-74363855D02*
X86995239Y-75163855D01*
X86995239Y-74363855D02*
X86461905Y-75163855D01*
X87185715Y-74363855D02*
X87642858Y-74363855D01*
X87414286Y-75163855D02*
X87414286Y-74363855D01*
X88304762Y-72944807D02*
X88571428Y-72944807D01*
X88685714Y-73363855D02*
X88304762Y-73363855D01*
X88304762Y-73363855D02*
X88304762Y-72563855D01*
X88304762Y-72563855D02*
X88685714Y-72563855D01*
X88952381Y-72563855D02*
X89485715Y-73363855D01*
X89485715Y-72563855D02*
X88952381Y-73363855D01*
X89676191Y-72563855D02*
X90133334Y-72563855D01*
X89904762Y-73363855D02*
X89904762Y-72563855D01*
X91390477Y-72563855D02*
X91009525Y-72563855D01*
X91009525Y-72563855D02*
X90971429Y-72944807D01*
X90971429Y-72944807D02*
X91009525Y-72906712D01*
X91009525Y-72906712D02*
X91085715Y-72868617D01*
X91085715Y-72868617D02*
X91276191Y-72868617D01*
X91276191Y-72868617D02*
X91352382Y-72906712D01*
X91352382Y-72906712D02*
X91390477Y-72944807D01*
X91390477Y-72944807D02*
X91428572Y-73020998D01*
X91428572Y-73020998D02*
X91428572Y-73211474D01*
X91428572Y-73211474D02*
X91390477Y-73287664D01*
X91390477Y-73287664D02*
X91352382Y-73325760D01*
X91352382Y-73325760D02*
X91276191Y-73363855D01*
X91276191Y-73363855D02*
X91085715Y-73363855D01*
X91085715Y-73363855D02*
X91009525Y-73325760D01*
X91009525Y-73325760D02*
X90971429Y-73287664D01*
X91657144Y-72563855D02*
X91923811Y-73363855D01*
X91923811Y-73363855D02*
X92190477Y-72563855D01*
X93219049Y-72563855D02*
X93371430Y-72563855D01*
X93371430Y-72563855D02*
X93447620Y-72601950D01*
X93447620Y-72601950D02*
X93523811Y-72678140D01*
X93523811Y-72678140D02*
X93561906Y-72830521D01*
X93561906Y-72830521D02*
X93561906Y-73097188D01*
X93561906Y-73097188D02*
X93523811Y-73249569D01*
X93523811Y-73249569D02*
X93447620Y-73325760D01*
X93447620Y-73325760D02*
X93371430Y-73363855D01*
X93371430Y-73363855D02*
X93219049Y-73363855D01*
X93219049Y-73363855D02*
X93142858Y-73325760D01*
X93142858Y-73325760D02*
X93066668Y-73249569D01*
X93066668Y-73249569D02*
X93028572Y-73097188D01*
X93028572Y-73097188D02*
X93028572Y-72830521D01*
X93028572Y-72830521D02*
X93066668Y-72678140D01*
X93066668Y-72678140D02*
X93142858Y-72601950D01*
X93142858Y-72601950D02*
X93219049Y-72563855D01*
X93904763Y-73363855D02*
X93904763Y-72563855D01*
X93904763Y-72563855D02*
X94361906Y-73363855D01*
X94361906Y-73363855D02*
X94361906Y-72563855D01*
X95123810Y-73363855D02*
X94742858Y-73363855D01*
X94742858Y-73363855D02*
X94742858Y-72563855D01*
X95542858Y-72982902D02*
X95542858Y-73363855D01*
X95276191Y-72563855D02*
X95542858Y-72982902D01*
X95542858Y-72982902D02*
X95809524Y-72563855D01*
X89838095Y-13135283D02*
X90219048Y-13135283D01*
X89761905Y-13363855D02*
X90028572Y-12563855D01*
X90028572Y-12563855D02*
X90295238Y-13363855D01*
X90561905Y-13363855D02*
X90561905Y-12563855D01*
X91400000Y-13363855D02*
X91133333Y-12982902D01*
X90942857Y-13363855D02*
X90942857Y-12563855D01*
X90942857Y-12563855D02*
X91247619Y-12563855D01*
X91247619Y-12563855D02*
X91323809Y-12601950D01*
X91323809Y-12601950D02*
X91361904Y-12640045D01*
X91361904Y-12640045D02*
X91400000Y-12716236D01*
X91400000Y-12716236D02*
X91400000Y-12830521D01*
X91400000Y-12830521D02*
X91361904Y-12906712D01*
X91361904Y-12906712D02*
X91323809Y-12944807D01*
X91323809Y-12944807D02*
X91247619Y-12982902D01*
X91247619Y-12982902D02*
X90942857Y-12982902D01*
X92619047Y-12944807D02*
X92352381Y-12944807D01*
X92352381Y-13363855D02*
X92352381Y-12563855D01*
X92352381Y-12563855D02*
X92733333Y-12563855D01*
X93419047Y-13363855D02*
X93038095Y-13363855D01*
X93038095Y-13363855D02*
X93038095Y-12563855D01*
X93838095Y-12563855D02*
X93990476Y-12563855D01*
X93990476Y-12563855D02*
X94066666Y-12601950D01*
X94066666Y-12601950D02*
X94142857Y-12678140D01*
X94142857Y-12678140D02*
X94180952Y-12830521D01*
X94180952Y-12830521D02*
X94180952Y-13097188D01*
X94180952Y-13097188D02*
X94142857Y-13249569D01*
X94142857Y-13249569D02*
X94066666Y-13325760D01*
X94066666Y-13325760D02*
X93990476Y-13363855D01*
X93990476Y-13363855D02*
X93838095Y-13363855D01*
X93838095Y-13363855D02*
X93761904Y-13325760D01*
X93761904Y-13325760D02*
X93685714Y-13249569D01*
X93685714Y-13249569D02*
X93647618Y-13097188D01*
X93647618Y-13097188D02*
X93647618Y-12830521D01*
X93647618Y-12830521D02*
X93685714Y-12678140D01*
X93685714Y-12678140D02*
X93761904Y-12601950D01*
X93761904Y-12601950D02*
X93838095Y-12563855D01*
X94447618Y-12563855D02*
X94638094Y-13363855D01*
X94638094Y-13363855D02*
X94790475Y-12792426D01*
X94790475Y-12792426D02*
X94942856Y-13363855D01*
X94942856Y-13363855D02*
X95133333Y-12563855D01*
X95933333Y-12640045D02*
X96085714Y-12525760D01*
X96085714Y-12525760D02*
X96238095Y-12640045D01*
X98990476Y-85863855D02*
X99447619Y-85863855D01*
X99219047Y-86663855D02*
X99219047Y-85863855D01*
X99714286Y-86663855D02*
X99714286Y-85863855D01*
X99714286Y-85863855D02*
X100019048Y-85863855D01*
X100019048Y-85863855D02*
X100095238Y-85901950D01*
X100095238Y-85901950D02*
X100133333Y-85940045D01*
X100133333Y-85940045D02*
X100171429Y-86016236D01*
X100171429Y-86016236D02*
X100171429Y-86130521D01*
X100171429Y-86130521D02*
X100133333Y-86206712D01*
X100133333Y-86206712D02*
X100095238Y-86244807D01*
X100095238Y-86244807D02*
X100019048Y-86282902D01*
X100019048Y-86282902D02*
X99714286Y-86282902D01*
X100933333Y-86663855D02*
X100476190Y-86663855D01*
X100704762Y-86663855D02*
X100704762Y-85863855D01*
X100704762Y-85863855D02*
X100628571Y-85978140D01*
X100628571Y-85978140D02*
X100552381Y-86054331D01*
X100552381Y-86054331D02*
X100476190Y-86092426D01*
X105990476Y-29863855D02*
X106447619Y-29863855D01*
X106219047Y-30663855D02*
X106219047Y-29863855D01*
X106714286Y-30663855D02*
X106714286Y-29863855D01*
X106714286Y-29863855D02*
X107019048Y-29863855D01*
X107019048Y-29863855D02*
X107095238Y-29901950D01*
X107095238Y-29901950D02*
X107133333Y-29940045D01*
X107133333Y-29940045D02*
X107171429Y-30016236D01*
X107171429Y-30016236D02*
X107171429Y-30130521D01*
X107171429Y-30130521D02*
X107133333Y-30206712D01*
X107133333Y-30206712D02*
X107095238Y-30244807D01*
X107095238Y-30244807D02*
X107019048Y-30282902D01*
X107019048Y-30282902D02*
X106714286Y-30282902D01*
X107552381Y-30663855D02*
X107704762Y-30663855D01*
X107704762Y-30663855D02*
X107780952Y-30625760D01*
X107780952Y-30625760D02*
X107819048Y-30587664D01*
X107819048Y-30587664D02*
X107895238Y-30473379D01*
X107895238Y-30473379D02*
X107933333Y-30320998D01*
X107933333Y-30320998D02*
X107933333Y-30016236D01*
X107933333Y-30016236D02*
X107895238Y-29940045D01*
X107895238Y-29940045D02*
X107857143Y-29901950D01*
X107857143Y-29901950D02*
X107780952Y-29863855D01*
X107780952Y-29863855D02*
X107628571Y-29863855D01*
X107628571Y-29863855D02*
X107552381Y-29901950D01*
X107552381Y-29901950D02*
X107514286Y-29940045D01*
X107514286Y-29940045D02*
X107476190Y-30016236D01*
X107476190Y-30016236D02*
X107476190Y-30206712D01*
X107476190Y-30206712D02*
X107514286Y-30282902D01*
X107514286Y-30282902D02*
X107552381Y-30320998D01*
X107552381Y-30320998D02*
X107628571Y-30359093D01*
X107628571Y-30359093D02*
X107780952Y-30359093D01*
X107780952Y-30359093D02*
X107857143Y-30320998D01*
X107857143Y-30320998D02*
X107895238Y-30282902D01*
X107895238Y-30282902D02*
X107933333Y-30206712D01*
X105609523Y-33863855D02*
X106066666Y-33863855D01*
X105838094Y-34663855D02*
X105838094Y-33863855D01*
X106333333Y-34663855D02*
X106333333Y-33863855D01*
X106333333Y-33863855D02*
X106638095Y-33863855D01*
X106638095Y-33863855D02*
X106714285Y-33901950D01*
X106714285Y-33901950D02*
X106752380Y-33940045D01*
X106752380Y-33940045D02*
X106790476Y-34016236D01*
X106790476Y-34016236D02*
X106790476Y-34130521D01*
X106790476Y-34130521D02*
X106752380Y-34206712D01*
X106752380Y-34206712D02*
X106714285Y-34244807D01*
X106714285Y-34244807D02*
X106638095Y-34282902D01*
X106638095Y-34282902D02*
X106333333Y-34282902D01*
X107552380Y-34663855D02*
X107095237Y-34663855D01*
X107323809Y-34663855D02*
X107323809Y-33863855D01*
X107323809Y-33863855D02*
X107247618Y-33978140D01*
X107247618Y-33978140D02*
X107171428Y-34054331D01*
X107171428Y-34054331D02*
X107095237Y-34092426D01*
X108314285Y-34663855D02*
X107857142Y-34663855D01*
X108085714Y-34663855D02*
X108085714Y-33863855D01*
X108085714Y-33863855D02*
X108009523Y-33978140D01*
X108009523Y-33978140D02*
X107933333Y-34054331D01*
X107933333Y-34054331D02*
X107857142Y-34092426D01*
X107009523Y-37863855D02*
X107466666Y-37863855D01*
X107238094Y-38663855D02*
X107238094Y-37863855D01*
X107733333Y-38663855D02*
X107733333Y-37863855D01*
X107733333Y-37863855D02*
X108038095Y-37863855D01*
X108038095Y-37863855D02*
X108114285Y-37901950D01*
X108114285Y-37901950D02*
X108152380Y-37940045D01*
X108152380Y-37940045D02*
X108190476Y-38016236D01*
X108190476Y-38016236D02*
X108190476Y-38130521D01*
X108190476Y-38130521D02*
X108152380Y-38206712D01*
X108152380Y-38206712D02*
X108114285Y-38244807D01*
X108114285Y-38244807D02*
X108038095Y-38282902D01*
X108038095Y-38282902D02*
X107733333Y-38282902D01*
X108952380Y-38663855D02*
X108495237Y-38663855D01*
X108723809Y-38663855D02*
X108723809Y-37863855D01*
X108723809Y-37863855D02*
X108647618Y-37978140D01*
X108647618Y-37978140D02*
X108571428Y-38054331D01*
X108571428Y-38054331D02*
X108495237Y-38092426D01*
X109447619Y-37863855D02*
X109523809Y-37863855D01*
X109523809Y-37863855D02*
X109600000Y-37901950D01*
X109600000Y-37901950D02*
X109638095Y-37940045D01*
X109638095Y-37940045D02*
X109676190Y-38016236D01*
X109676190Y-38016236D02*
X109714285Y-38168617D01*
X109714285Y-38168617D02*
X109714285Y-38359093D01*
X109714285Y-38359093D02*
X109676190Y-38511474D01*
X109676190Y-38511474D02*
X109638095Y-38587664D01*
X109638095Y-38587664D02*
X109600000Y-38625760D01*
X109600000Y-38625760D02*
X109523809Y-38663855D01*
X109523809Y-38663855D02*
X109447619Y-38663855D01*
X109447619Y-38663855D02*
X109371428Y-38625760D01*
X109371428Y-38625760D02*
X109333333Y-38587664D01*
X109333333Y-38587664D02*
X109295238Y-38511474D01*
X109295238Y-38511474D02*
X109257142Y-38359093D01*
X109257142Y-38359093D02*
X109257142Y-38168617D01*
X109257142Y-38168617D02*
X109295238Y-38016236D01*
X109295238Y-38016236D02*
X109333333Y-37940045D01*
X109333333Y-37940045D02*
X109371428Y-37901950D01*
X109371428Y-37901950D02*
X109447619Y-37863855D01*
X9135283Y-22790476D02*
X9135283Y-22409523D01*
X9363855Y-22866666D02*
X8563855Y-22599999D01*
X8563855Y-22599999D02*
X9363855Y-22333333D01*
X9363855Y-22066666D02*
X8563855Y-22066666D01*
X8563855Y-22066666D02*
X8563855Y-21876190D01*
X8563855Y-21876190D02*
X8601950Y-21761904D01*
X8601950Y-21761904D02*
X8678140Y-21685714D01*
X8678140Y-21685714D02*
X8754331Y-21647619D01*
X8754331Y-21647619D02*
X8906712Y-21609523D01*
X8906712Y-21609523D02*
X9020998Y-21609523D01*
X9020998Y-21609523D02*
X9173379Y-21647619D01*
X9173379Y-21647619D02*
X9249569Y-21685714D01*
X9249569Y-21685714D02*
X9325760Y-21761904D01*
X9325760Y-21761904D02*
X9363855Y-21876190D01*
X9363855Y-21876190D02*
X9363855Y-22066666D01*
X9363855Y-21266666D02*
X8563855Y-21266666D01*
X8563855Y-21266666D02*
X8563855Y-21076190D01*
X8563855Y-21076190D02*
X8601950Y-20961904D01*
X8601950Y-20961904D02*
X8678140Y-20885714D01*
X8678140Y-20885714D02*
X8754331Y-20847619D01*
X8754331Y-20847619D02*
X8906712Y-20809523D01*
X8906712Y-20809523D02*
X9020998Y-20809523D01*
X9020998Y-20809523D02*
X9173379Y-20847619D01*
X9173379Y-20847619D02*
X9249569Y-20885714D01*
X9249569Y-20885714D02*
X9325760Y-20961904D01*
X9325760Y-20961904D02*
X9363855Y-21076190D01*
X9363855Y-21076190D02*
X9363855Y-21266666D01*
X9363855Y-20009523D02*
X8982902Y-20276190D01*
X9363855Y-20466666D02*
X8563855Y-20466666D01*
X8563855Y-20466666D02*
X8563855Y-20161904D01*
X8563855Y-20161904D02*
X8601950Y-20085714D01*
X8601950Y-20085714D02*
X8640045Y-20047619D01*
X8640045Y-20047619D02*
X8716236Y-20009523D01*
X8716236Y-20009523D02*
X8830521Y-20009523D01*
X8830521Y-20009523D02*
X8906712Y-20047619D01*
X8906712Y-20047619D02*
X8944807Y-20085714D01*
X8944807Y-20085714D02*
X8982902Y-20161904D01*
X8982902Y-20161904D02*
X8982902Y-20466666D01*
X11865760Y-22371428D02*
X11903855Y-22257142D01*
X11903855Y-22257142D02*
X11903855Y-22066666D01*
X11903855Y-22066666D02*
X11865760Y-21990475D01*
X11865760Y-21990475D02*
X11827664Y-21952380D01*
X11827664Y-21952380D02*
X11751474Y-21914285D01*
X11751474Y-21914285D02*
X11675283Y-21914285D01*
X11675283Y-21914285D02*
X11599093Y-21952380D01*
X11599093Y-21952380D02*
X11560998Y-21990475D01*
X11560998Y-21990475D02*
X11522902Y-22066666D01*
X11522902Y-22066666D02*
X11484807Y-22219047D01*
X11484807Y-22219047D02*
X11446712Y-22295237D01*
X11446712Y-22295237D02*
X11408617Y-22333332D01*
X11408617Y-22333332D02*
X11332426Y-22371428D01*
X11332426Y-22371428D02*
X11256236Y-22371428D01*
X11256236Y-22371428D02*
X11180045Y-22333332D01*
X11180045Y-22333332D02*
X11141950Y-22295237D01*
X11141950Y-22295237D02*
X11103855Y-22219047D01*
X11103855Y-22219047D02*
X11103855Y-22028570D01*
X11103855Y-22028570D02*
X11141950Y-21914285D01*
X11903855Y-21571427D02*
X11103855Y-21571427D01*
X11103855Y-21571427D02*
X11103855Y-21380951D01*
X11103855Y-21380951D02*
X11141950Y-21266665D01*
X11141950Y-21266665D02*
X11218140Y-21190475D01*
X11218140Y-21190475D02*
X11294331Y-21152380D01*
X11294331Y-21152380D02*
X11446712Y-21114284D01*
X11446712Y-21114284D02*
X11560998Y-21114284D01*
X11560998Y-21114284D02*
X11713379Y-21152380D01*
X11713379Y-21152380D02*
X11789569Y-21190475D01*
X11789569Y-21190475D02*
X11865760Y-21266665D01*
X11865760Y-21266665D02*
X11903855Y-21380951D01*
X11903855Y-21380951D02*
X11903855Y-21571427D01*
X11675283Y-20809523D02*
X11675283Y-20428570D01*
X11903855Y-20885713D02*
X11103855Y-20619046D01*
X11103855Y-20619046D02*
X11903855Y-20352380D01*
X14405760Y-22352381D02*
X14443855Y-22238095D01*
X14443855Y-22238095D02*
X14443855Y-22047619D01*
X14443855Y-22047619D02*
X14405760Y-21971428D01*
X14405760Y-21971428D02*
X14367664Y-21933333D01*
X14367664Y-21933333D02*
X14291474Y-21895238D01*
X14291474Y-21895238D02*
X14215283Y-21895238D01*
X14215283Y-21895238D02*
X14139093Y-21933333D01*
X14139093Y-21933333D02*
X14100998Y-21971428D01*
X14100998Y-21971428D02*
X14062902Y-22047619D01*
X14062902Y-22047619D02*
X14024807Y-22200000D01*
X14024807Y-22200000D02*
X13986712Y-22276190D01*
X13986712Y-22276190D02*
X13948617Y-22314285D01*
X13948617Y-22314285D02*
X13872426Y-22352381D01*
X13872426Y-22352381D02*
X13796236Y-22352381D01*
X13796236Y-22352381D02*
X13720045Y-22314285D01*
X13720045Y-22314285D02*
X13681950Y-22276190D01*
X13681950Y-22276190D02*
X13643855Y-22200000D01*
X13643855Y-22200000D02*
X13643855Y-22009523D01*
X13643855Y-22009523D02*
X13681950Y-21895238D01*
X14367664Y-21095237D02*
X14405760Y-21133333D01*
X14405760Y-21133333D02*
X14443855Y-21247618D01*
X14443855Y-21247618D02*
X14443855Y-21323809D01*
X14443855Y-21323809D02*
X14405760Y-21438095D01*
X14405760Y-21438095D02*
X14329569Y-21514285D01*
X14329569Y-21514285D02*
X14253379Y-21552380D01*
X14253379Y-21552380D02*
X14100998Y-21590476D01*
X14100998Y-21590476D02*
X13986712Y-21590476D01*
X13986712Y-21590476D02*
X13834331Y-21552380D01*
X13834331Y-21552380D02*
X13758140Y-21514285D01*
X13758140Y-21514285D02*
X13681950Y-21438095D01*
X13681950Y-21438095D02*
X13643855Y-21323809D01*
X13643855Y-21323809D02*
X13643855Y-21247618D01*
X13643855Y-21247618D02*
X13681950Y-21133333D01*
X13681950Y-21133333D02*
X13720045Y-21095237D01*
X14443855Y-20371428D02*
X14443855Y-20752380D01*
X14443855Y-20752380D02*
X13643855Y-20752380D01*
X16221950Y-22009523D02*
X16183855Y-22085713D01*
X16183855Y-22085713D02*
X16183855Y-22199999D01*
X16183855Y-22199999D02*
X16221950Y-22314285D01*
X16221950Y-22314285D02*
X16298140Y-22390475D01*
X16298140Y-22390475D02*
X16374331Y-22428570D01*
X16374331Y-22428570D02*
X16526712Y-22466666D01*
X16526712Y-22466666D02*
X16640998Y-22466666D01*
X16640998Y-22466666D02*
X16793379Y-22428570D01*
X16793379Y-22428570D02*
X16869569Y-22390475D01*
X16869569Y-22390475D02*
X16945760Y-22314285D01*
X16945760Y-22314285D02*
X16983855Y-22199999D01*
X16983855Y-22199999D02*
X16983855Y-22123808D01*
X16983855Y-22123808D02*
X16945760Y-22009523D01*
X16945760Y-22009523D02*
X16907664Y-21971427D01*
X16907664Y-21971427D02*
X16640998Y-21971427D01*
X16640998Y-21971427D02*
X16640998Y-22123808D01*
X16983855Y-21628570D02*
X16183855Y-21628570D01*
X16183855Y-21628570D02*
X16983855Y-21171427D01*
X16983855Y-21171427D02*
X16183855Y-21171427D01*
X16983855Y-20790475D02*
X16183855Y-20790475D01*
X16183855Y-20790475D02*
X16183855Y-20599999D01*
X16183855Y-20599999D02*
X16221950Y-20485713D01*
X16221950Y-20485713D02*
X16298140Y-20409523D01*
X16298140Y-20409523D02*
X16374331Y-20371428D01*
X16374331Y-20371428D02*
X16526712Y-20333332D01*
X16526712Y-20333332D02*
X16640998Y-20333332D01*
X16640998Y-20333332D02*
X16793379Y-20371428D01*
X16793379Y-20371428D02*
X16869569Y-20409523D01*
X16869569Y-20409523D02*
X16945760Y-20485713D01*
X16945760Y-20485713D02*
X16983855Y-20599999D01*
X16983855Y-20599999D02*
X16983855Y-20790475D01*
X18723855Y-22466666D02*
X19523855Y-22199999D01*
X19523855Y-22199999D02*
X18723855Y-21933333D01*
X19447664Y-21209523D02*
X19485760Y-21247619D01*
X19485760Y-21247619D02*
X19523855Y-21361904D01*
X19523855Y-21361904D02*
X19523855Y-21438095D01*
X19523855Y-21438095D02*
X19485760Y-21552381D01*
X19485760Y-21552381D02*
X19409569Y-21628571D01*
X19409569Y-21628571D02*
X19333379Y-21666666D01*
X19333379Y-21666666D02*
X19180998Y-21704762D01*
X19180998Y-21704762D02*
X19066712Y-21704762D01*
X19066712Y-21704762D02*
X18914331Y-21666666D01*
X18914331Y-21666666D02*
X18838140Y-21628571D01*
X18838140Y-21628571D02*
X18761950Y-21552381D01*
X18761950Y-21552381D02*
X18723855Y-21438095D01*
X18723855Y-21438095D02*
X18723855Y-21361904D01*
X18723855Y-21361904D02*
X18761950Y-21247619D01*
X18761950Y-21247619D02*
X18800045Y-21209523D01*
X19447664Y-20409523D02*
X19485760Y-20447619D01*
X19485760Y-20447619D02*
X19523855Y-20561904D01*
X19523855Y-20561904D02*
X19523855Y-20638095D01*
X19523855Y-20638095D02*
X19485760Y-20752381D01*
X19485760Y-20752381D02*
X19409569Y-20828571D01*
X19409569Y-20828571D02*
X19333379Y-20866666D01*
X19333379Y-20866666D02*
X19180998Y-20904762D01*
X19180998Y-20904762D02*
X19066712Y-20904762D01*
X19066712Y-20904762D02*
X18914331Y-20866666D01*
X18914331Y-20866666D02*
X18838140Y-20828571D01*
X18838140Y-20828571D02*
X18761950Y-20752381D01*
X18761950Y-20752381D02*
X18723855Y-20638095D01*
X18723855Y-20638095D02*
X18723855Y-20561904D01*
X18723855Y-20561904D02*
X18761950Y-20447619D01*
X18761950Y-20447619D02*
X18800045Y-20409523D01*
X83563855Y-22466666D02*
X84363855Y-22199999D01*
X84363855Y-22199999D02*
X83563855Y-21933333D01*
X84287664Y-21209523D02*
X84325760Y-21247619D01*
X84325760Y-21247619D02*
X84363855Y-21361904D01*
X84363855Y-21361904D02*
X84363855Y-21438095D01*
X84363855Y-21438095D02*
X84325760Y-21552381D01*
X84325760Y-21552381D02*
X84249569Y-21628571D01*
X84249569Y-21628571D02*
X84173379Y-21666666D01*
X84173379Y-21666666D02*
X84020998Y-21704762D01*
X84020998Y-21704762D02*
X83906712Y-21704762D01*
X83906712Y-21704762D02*
X83754331Y-21666666D01*
X83754331Y-21666666D02*
X83678140Y-21628571D01*
X83678140Y-21628571D02*
X83601950Y-21552381D01*
X83601950Y-21552381D02*
X83563855Y-21438095D01*
X83563855Y-21438095D02*
X83563855Y-21361904D01*
X83563855Y-21361904D02*
X83601950Y-21247619D01*
X83601950Y-21247619D02*
X83640045Y-21209523D01*
X84287664Y-20409523D02*
X84325760Y-20447619D01*
X84325760Y-20447619D02*
X84363855Y-20561904D01*
X84363855Y-20561904D02*
X84363855Y-20638095D01*
X84363855Y-20638095D02*
X84325760Y-20752381D01*
X84325760Y-20752381D02*
X84249569Y-20828571D01*
X84249569Y-20828571D02*
X84173379Y-20866666D01*
X84173379Y-20866666D02*
X84020998Y-20904762D01*
X84020998Y-20904762D02*
X83906712Y-20904762D01*
X83906712Y-20904762D02*
X83754331Y-20866666D01*
X83754331Y-20866666D02*
X83678140Y-20828571D01*
X83678140Y-20828571D02*
X83601950Y-20752381D01*
X83601950Y-20752381D02*
X83563855Y-20638095D01*
X83563855Y-20638095D02*
X83563855Y-20561904D01*
X83563855Y-20561904D02*
X83601950Y-20447619D01*
X83601950Y-20447619D02*
X83640045Y-20409523D01*
X84563855Y-67466666D02*
X85363855Y-67199999D01*
X85363855Y-67199999D02*
X84563855Y-66933333D01*
X85287664Y-66209523D02*
X85325760Y-66247619D01*
X85325760Y-66247619D02*
X85363855Y-66361904D01*
X85363855Y-66361904D02*
X85363855Y-66438095D01*
X85363855Y-66438095D02*
X85325760Y-66552381D01*
X85325760Y-66552381D02*
X85249569Y-66628571D01*
X85249569Y-66628571D02*
X85173379Y-66666666D01*
X85173379Y-66666666D02*
X85020998Y-66704762D01*
X85020998Y-66704762D02*
X84906712Y-66704762D01*
X84906712Y-66704762D02*
X84754331Y-66666666D01*
X84754331Y-66666666D02*
X84678140Y-66628571D01*
X84678140Y-66628571D02*
X84601950Y-66552381D01*
X84601950Y-66552381D02*
X84563855Y-66438095D01*
X84563855Y-66438095D02*
X84563855Y-66361904D01*
X84563855Y-66361904D02*
X84601950Y-66247619D01*
X84601950Y-66247619D02*
X84640045Y-66209523D01*
X85287664Y-65409523D02*
X85325760Y-65447619D01*
X85325760Y-65447619D02*
X85363855Y-65561904D01*
X85363855Y-65561904D02*
X85363855Y-65638095D01*
X85363855Y-65638095D02*
X85325760Y-65752381D01*
X85325760Y-65752381D02*
X85249569Y-65828571D01*
X85249569Y-65828571D02*
X85173379Y-65866666D01*
X85173379Y-65866666D02*
X85020998Y-65904762D01*
X85020998Y-65904762D02*
X84906712Y-65904762D01*
X84906712Y-65904762D02*
X84754331Y-65866666D01*
X84754331Y-65866666D02*
X84678140Y-65828571D01*
X84678140Y-65828571D02*
X84601950Y-65752381D01*
X84601950Y-65752381D02*
X84563855Y-65638095D01*
X84563855Y-65638095D02*
X84563855Y-65561904D01*
X84563855Y-65561904D02*
X84601950Y-65447619D01*
X84601950Y-65447619D02*
X84640045Y-65409523D01*
X86141950Y-22009523D02*
X86103855Y-22085713D01*
X86103855Y-22085713D02*
X86103855Y-22199999D01*
X86103855Y-22199999D02*
X86141950Y-22314285D01*
X86141950Y-22314285D02*
X86218140Y-22390475D01*
X86218140Y-22390475D02*
X86294331Y-22428570D01*
X86294331Y-22428570D02*
X86446712Y-22466666D01*
X86446712Y-22466666D02*
X86560998Y-22466666D01*
X86560998Y-22466666D02*
X86713379Y-22428570D01*
X86713379Y-22428570D02*
X86789569Y-22390475D01*
X86789569Y-22390475D02*
X86865760Y-22314285D01*
X86865760Y-22314285D02*
X86903855Y-22199999D01*
X86903855Y-22199999D02*
X86903855Y-22123808D01*
X86903855Y-22123808D02*
X86865760Y-22009523D01*
X86865760Y-22009523D02*
X86827664Y-21971427D01*
X86827664Y-21971427D02*
X86560998Y-21971427D01*
X86560998Y-21971427D02*
X86560998Y-22123808D01*
X86903855Y-21628570D02*
X86103855Y-21628570D01*
X86103855Y-21628570D02*
X86903855Y-21171427D01*
X86903855Y-21171427D02*
X86103855Y-21171427D01*
X86903855Y-20790475D02*
X86103855Y-20790475D01*
X86103855Y-20790475D02*
X86103855Y-20599999D01*
X86103855Y-20599999D02*
X86141950Y-20485713D01*
X86141950Y-20485713D02*
X86218140Y-20409523D01*
X86218140Y-20409523D02*
X86294331Y-20371428D01*
X86294331Y-20371428D02*
X86446712Y-20333332D01*
X86446712Y-20333332D02*
X86560998Y-20333332D01*
X86560998Y-20333332D02*
X86713379Y-20371428D01*
X86713379Y-20371428D02*
X86789569Y-20409523D01*
X86789569Y-20409523D02*
X86865760Y-20485713D01*
X86865760Y-20485713D02*
X86903855Y-20599999D01*
X86903855Y-20599999D02*
X86903855Y-20790475D01*
X87141950Y-67009523D02*
X87103855Y-67085713D01*
X87103855Y-67085713D02*
X87103855Y-67199999D01*
X87103855Y-67199999D02*
X87141950Y-67314285D01*
X87141950Y-67314285D02*
X87218140Y-67390475D01*
X87218140Y-67390475D02*
X87294331Y-67428570D01*
X87294331Y-67428570D02*
X87446712Y-67466666D01*
X87446712Y-67466666D02*
X87560998Y-67466666D01*
X87560998Y-67466666D02*
X87713379Y-67428570D01*
X87713379Y-67428570D02*
X87789569Y-67390475D01*
X87789569Y-67390475D02*
X87865760Y-67314285D01*
X87865760Y-67314285D02*
X87903855Y-67199999D01*
X87903855Y-67199999D02*
X87903855Y-67123808D01*
X87903855Y-67123808D02*
X87865760Y-67009523D01*
X87865760Y-67009523D02*
X87827664Y-66971427D01*
X87827664Y-66971427D02*
X87560998Y-66971427D01*
X87560998Y-66971427D02*
X87560998Y-67123808D01*
X87903855Y-66628570D02*
X87103855Y-66628570D01*
X87103855Y-66628570D02*
X87903855Y-66171427D01*
X87903855Y-66171427D02*
X87103855Y-66171427D01*
X87903855Y-65790475D02*
X87103855Y-65790475D01*
X87103855Y-65790475D02*
X87103855Y-65599999D01*
X87103855Y-65599999D02*
X87141950Y-65485713D01*
X87141950Y-65485713D02*
X87218140Y-65409523D01*
X87218140Y-65409523D02*
X87294331Y-65371428D01*
X87294331Y-65371428D02*
X87446712Y-65333332D01*
X87446712Y-65333332D02*
X87560998Y-65333332D01*
X87560998Y-65333332D02*
X87713379Y-65371428D01*
X87713379Y-65371428D02*
X87789569Y-65409523D01*
X87789569Y-65409523D02*
X87865760Y-65485713D01*
X87865760Y-65485713D02*
X87903855Y-65599999D01*
X87903855Y-65599999D02*
X87903855Y-65790475D01*
X89405760Y-22352381D02*
X89443855Y-22238095D01*
X89443855Y-22238095D02*
X89443855Y-22047619D01*
X89443855Y-22047619D02*
X89405760Y-21971428D01*
X89405760Y-21971428D02*
X89367664Y-21933333D01*
X89367664Y-21933333D02*
X89291474Y-21895238D01*
X89291474Y-21895238D02*
X89215283Y-21895238D01*
X89215283Y-21895238D02*
X89139093Y-21933333D01*
X89139093Y-21933333D02*
X89100998Y-21971428D01*
X89100998Y-21971428D02*
X89062902Y-22047619D01*
X89062902Y-22047619D02*
X89024807Y-22200000D01*
X89024807Y-22200000D02*
X88986712Y-22276190D01*
X88986712Y-22276190D02*
X88948617Y-22314285D01*
X88948617Y-22314285D02*
X88872426Y-22352381D01*
X88872426Y-22352381D02*
X88796236Y-22352381D01*
X88796236Y-22352381D02*
X88720045Y-22314285D01*
X88720045Y-22314285D02*
X88681950Y-22276190D01*
X88681950Y-22276190D02*
X88643855Y-22200000D01*
X88643855Y-22200000D02*
X88643855Y-22009523D01*
X88643855Y-22009523D02*
X88681950Y-21895238D01*
X89367664Y-21095237D02*
X89405760Y-21133333D01*
X89405760Y-21133333D02*
X89443855Y-21247618D01*
X89443855Y-21247618D02*
X89443855Y-21323809D01*
X89443855Y-21323809D02*
X89405760Y-21438095D01*
X89405760Y-21438095D02*
X89329569Y-21514285D01*
X89329569Y-21514285D02*
X89253379Y-21552380D01*
X89253379Y-21552380D02*
X89100998Y-21590476D01*
X89100998Y-21590476D02*
X88986712Y-21590476D01*
X88986712Y-21590476D02*
X88834331Y-21552380D01*
X88834331Y-21552380D02*
X88758140Y-21514285D01*
X88758140Y-21514285D02*
X88681950Y-21438095D01*
X88681950Y-21438095D02*
X88643855Y-21323809D01*
X88643855Y-21323809D02*
X88643855Y-21247618D01*
X88643855Y-21247618D02*
X88681950Y-21133333D01*
X88681950Y-21133333D02*
X88720045Y-21095237D01*
X89443855Y-20371428D02*
X89443855Y-20752380D01*
X89443855Y-20752380D02*
X88643855Y-20752380D01*
X90443855Y-67028570D02*
X89643855Y-67028570D01*
X89643855Y-67028570D02*
X89643855Y-66838094D01*
X89643855Y-66838094D02*
X89681950Y-66723808D01*
X89681950Y-66723808D02*
X89758140Y-66647618D01*
X89758140Y-66647618D02*
X89834331Y-66609523D01*
X89834331Y-66609523D02*
X89986712Y-66571427D01*
X89986712Y-66571427D02*
X90100998Y-66571427D01*
X90100998Y-66571427D02*
X90253379Y-66609523D01*
X90253379Y-66609523D02*
X90329569Y-66647618D01*
X90329569Y-66647618D02*
X90405760Y-66723808D01*
X90405760Y-66723808D02*
X90443855Y-66838094D01*
X90443855Y-66838094D02*
X90443855Y-67028570D01*
X89643855Y-66076189D02*
X89643855Y-65923808D01*
X89643855Y-65923808D02*
X89681950Y-65847618D01*
X89681950Y-65847618D02*
X89758140Y-65771427D01*
X89758140Y-65771427D02*
X89910521Y-65733332D01*
X89910521Y-65733332D02*
X90177188Y-65733332D01*
X90177188Y-65733332D02*
X90329569Y-65771427D01*
X90329569Y-65771427D02*
X90405760Y-65847618D01*
X90405760Y-65847618D02*
X90443855Y-65923808D01*
X90443855Y-65923808D02*
X90443855Y-66076189D01*
X90443855Y-66076189D02*
X90405760Y-66152380D01*
X90405760Y-66152380D02*
X90329569Y-66228570D01*
X90329569Y-66228570D02*
X90177188Y-66266666D01*
X90177188Y-66266666D02*
X89910521Y-66266666D01*
X89910521Y-66266666D02*
X89758140Y-66228570D01*
X89758140Y-66228570D02*
X89681950Y-66152380D01*
X89681950Y-66152380D02*
X89643855Y-66076189D01*
X91945760Y-22371428D02*
X91983855Y-22257142D01*
X91983855Y-22257142D02*
X91983855Y-22066666D01*
X91983855Y-22066666D02*
X91945760Y-21990475D01*
X91945760Y-21990475D02*
X91907664Y-21952380D01*
X91907664Y-21952380D02*
X91831474Y-21914285D01*
X91831474Y-21914285D02*
X91755283Y-21914285D01*
X91755283Y-21914285D02*
X91679093Y-21952380D01*
X91679093Y-21952380D02*
X91640998Y-21990475D01*
X91640998Y-21990475D02*
X91602902Y-22066666D01*
X91602902Y-22066666D02*
X91564807Y-22219047D01*
X91564807Y-22219047D02*
X91526712Y-22295237D01*
X91526712Y-22295237D02*
X91488617Y-22333332D01*
X91488617Y-22333332D02*
X91412426Y-22371428D01*
X91412426Y-22371428D02*
X91336236Y-22371428D01*
X91336236Y-22371428D02*
X91260045Y-22333332D01*
X91260045Y-22333332D02*
X91221950Y-22295237D01*
X91221950Y-22295237D02*
X91183855Y-22219047D01*
X91183855Y-22219047D02*
X91183855Y-22028570D01*
X91183855Y-22028570D02*
X91221950Y-21914285D01*
X91983855Y-21571427D02*
X91183855Y-21571427D01*
X91183855Y-21571427D02*
X91183855Y-21380951D01*
X91183855Y-21380951D02*
X91221950Y-21266665D01*
X91221950Y-21266665D02*
X91298140Y-21190475D01*
X91298140Y-21190475D02*
X91374331Y-21152380D01*
X91374331Y-21152380D02*
X91526712Y-21114284D01*
X91526712Y-21114284D02*
X91640998Y-21114284D01*
X91640998Y-21114284D02*
X91793379Y-21152380D01*
X91793379Y-21152380D02*
X91869569Y-21190475D01*
X91869569Y-21190475D02*
X91945760Y-21266665D01*
X91945760Y-21266665D02*
X91983855Y-21380951D01*
X91983855Y-21380951D02*
X91983855Y-21571427D01*
X91755283Y-20809523D02*
X91755283Y-20428570D01*
X91983855Y-20885713D02*
X91183855Y-20619046D01*
X91183855Y-20619046D02*
X91983855Y-20352380D01*
X92755283Y-67009523D02*
X92755283Y-66628570D01*
X92983855Y-67085713D02*
X92183855Y-66819046D01*
X92183855Y-66819046D02*
X92983855Y-66552380D01*
X92183855Y-66133332D02*
X92183855Y-65980951D01*
X92183855Y-65980951D02*
X92221950Y-65904761D01*
X92221950Y-65904761D02*
X92298140Y-65828570D01*
X92298140Y-65828570D02*
X92450521Y-65790475D01*
X92450521Y-65790475D02*
X92717188Y-65790475D01*
X92717188Y-65790475D02*
X92869569Y-65828570D01*
X92869569Y-65828570D02*
X92945760Y-65904761D01*
X92945760Y-65904761D02*
X92983855Y-65980951D01*
X92983855Y-65980951D02*
X92983855Y-66133332D01*
X92983855Y-66133332D02*
X92945760Y-66209523D01*
X92945760Y-66209523D02*
X92869569Y-66285713D01*
X92869569Y-66285713D02*
X92717188Y-66323809D01*
X92717188Y-66323809D02*
X92450521Y-66323809D01*
X92450521Y-66323809D02*
X92298140Y-66285713D01*
X92298140Y-66285713D02*
X92221950Y-66209523D01*
X92221950Y-66209523D02*
X92183855Y-66133332D01*
X94485760Y-22447619D02*
X94523855Y-22333333D01*
X94523855Y-22333333D02*
X94523855Y-22142857D01*
X94523855Y-22142857D02*
X94485760Y-22066666D01*
X94485760Y-22066666D02*
X94447664Y-22028571D01*
X94447664Y-22028571D02*
X94371474Y-21990476D01*
X94371474Y-21990476D02*
X94295283Y-21990476D01*
X94295283Y-21990476D02*
X94219093Y-22028571D01*
X94219093Y-22028571D02*
X94180998Y-22066666D01*
X94180998Y-22066666D02*
X94142902Y-22142857D01*
X94142902Y-22142857D02*
X94104807Y-22295238D01*
X94104807Y-22295238D02*
X94066712Y-22371428D01*
X94066712Y-22371428D02*
X94028617Y-22409523D01*
X94028617Y-22409523D02*
X93952426Y-22447619D01*
X93952426Y-22447619D02*
X93876236Y-22447619D01*
X93876236Y-22447619D02*
X93800045Y-22409523D01*
X93800045Y-22409523D02*
X93761950Y-22371428D01*
X93761950Y-22371428D02*
X93723855Y-22295238D01*
X93723855Y-22295238D02*
X93723855Y-22104761D01*
X93723855Y-22104761D02*
X93761950Y-21990476D01*
X94523855Y-21647618D02*
X93723855Y-21647618D01*
X93723855Y-21647618D02*
X93723855Y-21457142D01*
X93723855Y-21457142D02*
X93761950Y-21342856D01*
X93761950Y-21342856D02*
X93838140Y-21266666D01*
X93838140Y-21266666D02*
X93914331Y-21228571D01*
X93914331Y-21228571D02*
X94066712Y-21190475D01*
X94066712Y-21190475D02*
X94180998Y-21190475D01*
X94180998Y-21190475D02*
X94333379Y-21228571D01*
X94333379Y-21228571D02*
X94409569Y-21266666D01*
X94409569Y-21266666D02*
X94485760Y-21342856D01*
X94485760Y-21342856D02*
X94523855Y-21457142D01*
X94523855Y-21457142D02*
X94523855Y-21647618D01*
X93723855Y-20695237D02*
X93723855Y-20542856D01*
X93723855Y-20542856D02*
X93761950Y-20466666D01*
X93761950Y-20466666D02*
X93838140Y-20390475D01*
X93838140Y-20390475D02*
X93990521Y-20352380D01*
X93990521Y-20352380D02*
X94257188Y-20352380D01*
X94257188Y-20352380D02*
X94409569Y-20390475D01*
X94409569Y-20390475D02*
X94485760Y-20466666D01*
X94485760Y-20466666D02*
X94523855Y-20542856D01*
X94523855Y-20542856D02*
X94523855Y-20695237D01*
X94523855Y-20695237D02*
X94485760Y-20771428D01*
X94485760Y-20771428D02*
X94409569Y-20847618D01*
X94409569Y-20847618D02*
X94257188Y-20885714D01*
X94257188Y-20885714D02*
X93990521Y-20885714D01*
X93990521Y-20885714D02*
X93838140Y-20847618D01*
X93838140Y-20847618D02*
X93761950Y-20771428D01*
X93761950Y-20771428D02*
X93723855Y-20695237D01*
X96987664Y-21533332D02*
X97025760Y-21571428D01*
X97025760Y-21571428D02*
X97063855Y-21685713D01*
X97063855Y-21685713D02*
X97063855Y-21761904D01*
X97063855Y-21761904D02*
X97025760Y-21876190D01*
X97025760Y-21876190D02*
X96949569Y-21952380D01*
X96949569Y-21952380D02*
X96873379Y-21990475D01*
X96873379Y-21990475D02*
X96720998Y-22028571D01*
X96720998Y-22028571D02*
X96606712Y-22028571D01*
X96606712Y-22028571D02*
X96454331Y-21990475D01*
X96454331Y-21990475D02*
X96378140Y-21952380D01*
X96378140Y-21952380D02*
X96301950Y-21876190D01*
X96301950Y-21876190D02*
X96263855Y-21761904D01*
X96263855Y-21761904D02*
X96263855Y-21685713D01*
X96263855Y-21685713D02*
X96301950Y-21571428D01*
X96301950Y-21571428D02*
X96340045Y-21533332D01*
X97025760Y-21228571D02*
X97063855Y-21114285D01*
X97063855Y-21114285D02*
X97063855Y-20923809D01*
X97063855Y-20923809D02*
X97025760Y-20847618D01*
X97025760Y-20847618D02*
X96987664Y-20809523D01*
X96987664Y-20809523D02*
X96911474Y-20771428D01*
X96911474Y-20771428D02*
X96835283Y-20771428D01*
X96835283Y-20771428D02*
X96759093Y-20809523D01*
X96759093Y-20809523D02*
X96720998Y-20847618D01*
X96720998Y-20847618D02*
X96682902Y-20923809D01*
X96682902Y-20923809D02*
X96644807Y-21076190D01*
X96644807Y-21076190D02*
X96606712Y-21152380D01*
X96606712Y-21152380D02*
X96568617Y-21190475D01*
X96568617Y-21190475D02*
X96492426Y-21228571D01*
X96492426Y-21228571D02*
X96416236Y-21228571D01*
X96416236Y-21228571D02*
X96340045Y-21190475D01*
X96340045Y-21190475D02*
X96301950Y-21152380D01*
X96301950Y-21152380D02*
X96263855Y-21076190D01*
X96263855Y-21076190D02*
X96263855Y-20885713D01*
X96263855Y-20885713D02*
X96301950Y-20771428D01*
X7664286Y-53410117D02*
X7235714Y-53410117D01*
X7235714Y-53410117D02*
X7235714Y-52510117D01*
X7964285Y-53410117D02*
X7964285Y-52510117D01*
X7964285Y-52510117D02*
X8178571Y-52510117D01*
X8178571Y-52510117D02*
X8307142Y-52552974D01*
X8307142Y-52552974D02*
X8392857Y-52638688D01*
X8392857Y-52638688D02*
X8435714Y-52724402D01*
X8435714Y-52724402D02*
X8478571Y-52895831D01*
X8478571Y-52895831D02*
X8478571Y-53024402D01*
X8478571Y-53024402D02*
X8435714Y-53195831D01*
X8435714Y-53195831D02*
X8392857Y-53281545D01*
X8392857Y-53281545D02*
X8307142Y-53367260D01*
X8307142Y-53367260D02*
X8178571Y-53410117D01*
X8178571Y-53410117D02*
X7964285Y-53410117D01*
X8821428Y-52595831D02*
X8864285Y-52552974D01*
X8864285Y-52552974D02*
X8950000Y-52510117D01*
X8950000Y-52510117D02*
X9164285Y-52510117D01*
X9164285Y-52510117D02*
X9250000Y-52552974D01*
X9250000Y-52552974D02*
X9292857Y-52595831D01*
X9292857Y-52595831D02*
X9335714Y-52681545D01*
X9335714Y-52681545D02*
X9335714Y-52767260D01*
X9335714Y-52767260D02*
X9292857Y-52895831D01*
X9292857Y-52895831D02*
X8778571Y-53410117D01*
X8778571Y-53410117D02*
X9335714Y-53410117D01*
X10107143Y-52810117D02*
X10107143Y-53410117D01*
X9892857Y-52467260D02*
X9678571Y-53110117D01*
X9678571Y-53110117D02*
X10235714Y-53110117D01*
X11050000Y-53410117D02*
X10535714Y-53410117D01*
X10792857Y-53410117D02*
X10792857Y-52510117D01*
X10792857Y-52510117D02*
X10707143Y-52638688D01*
X10707143Y-52638688D02*
X10621428Y-52724402D01*
X10621428Y-52724402D02*
X10535714Y-52767260D01*
X11607143Y-52510117D02*
X11692857Y-52510117D01*
X11692857Y-52510117D02*
X11778571Y-52552974D01*
X11778571Y-52552974D02*
X11821429Y-52595831D01*
X11821429Y-52595831D02*
X11864286Y-52681545D01*
X11864286Y-52681545D02*
X11907143Y-52852974D01*
X11907143Y-52852974D02*
X11907143Y-53067260D01*
X11907143Y-53067260D02*
X11864286Y-53238688D01*
X11864286Y-53238688D02*
X11821429Y-53324402D01*
X11821429Y-53324402D02*
X11778571Y-53367260D01*
X11778571Y-53367260D02*
X11692857Y-53410117D01*
X11692857Y-53410117D02*
X11607143Y-53410117D01*
X11607143Y-53410117D02*
X11521429Y-53367260D01*
X11521429Y-53367260D02*
X11478571Y-53324402D01*
X11478571Y-53324402D02*
X11435714Y-53238688D01*
X11435714Y-53238688D02*
X11392857Y-53067260D01*
X11392857Y-53067260D02*
X11392857Y-52852974D01*
X11392857Y-52852974D02*
X11435714Y-52681545D01*
X11435714Y-52681545D02*
X11478571Y-52595831D01*
X11478571Y-52595831D02*
X11521429Y-52552974D01*
X11521429Y-52552974D02*
X11607143Y-52510117D01*
X12807143Y-53324402D02*
X12764286Y-53367260D01*
X12764286Y-53367260D02*
X12635714Y-53410117D01*
X12635714Y-53410117D02*
X12550000Y-53410117D01*
X12550000Y-53410117D02*
X12421429Y-53367260D01*
X12421429Y-53367260D02*
X12335714Y-53281545D01*
X12335714Y-53281545D02*
X12292857Y-53195831D01*
X12292857Y-53195831D02*
X12250000Y-53024402D01*
X12250000Y-53024402D02*
X12250000Y-52895831D01*
X12250000Y-52895831D02*
X12292857Y-52724402D01*
X12292857Y-52724402D02*
X12335714Y-52638688D01*
X12335714Y-52638688D02*
X12421429Y-52552974D01*
X12421429Y-52552974D02*
X12550000Y-52510117D01*
X12550000Y-52510117D02*
X12635714Y-52510117D01*
X12635714Y-52510117D02*
X12764286Y-52552974D01*
X12764286Y-52552974D02*
X12807143Y-52595831D01*
X11571428Y-9503998D02*
X11476190Y-9456379D01*
X11476190Y-9456379D02*
X11333333Y-9456379D01*
X11333333Y-9456379D02*
X11190476Y-9503998D01*
X11190476Y-9503998D02*
X11095238Y-9599236D01*
X11095238Y-9599236D02*
X11047619Y-9694474D01*
X11047619Y-9694474D02*
X11000000Y-9884950D01*
X11000000Y-9884950D02*
X11000000Y-10027807D01*
X11000000Y-10027807D02*
X11047619Y-10218283D01*
X11047619Y-10218283D02*
X11095238Y-10313521D01*
X11095238Y-10313521D02*
X11190476Y-10408760D01*
X11190476Y-10408760D02*
X11333333Y-10456379D01*
X11333333Y-10456379D02*
X11428571Y-10456379D01*
X11428571Y-10456379D02*
X11571428Y-10408760D01*
X11571428Y-10408760D02*
X11619047Y-10361140D01*
X11619047Y-10361140D02*
X11619047Y-10027807D01*
X11619047Y-10027807D02*
X11428571Y-10027807D01*
X12238095Y-9980188D02*
X12238095Y-10456379D01*
X11904762Y-9456379D02*
X12238095Y-9980188D01*
X12238095Y-9980188D02*
X12571428Y-9456379D01*
X12904762Y-10075426D02*
X13666667Y-10075426D01*
X14047619Y-9456379D02*
X14666666Y-9456379D01*
X14666666Y-9456379D02*
X14333333Y-9837331D01*
X14333333Y-9837331D02*
X14476190Y-9837331D01*
X14476190Y-9837331D02*
X14571428Y-9884950D01*
X14571428Y-9884950D02*
X14619047Y-9932569D01*
X14619047Y-9932569D02*
X14666666Y-10027807D01*
X14666666Y-10027807D02*
X14666666Y-10265902D01*
X14666666Y-10265902D02*
X14619047Y-10361140D01*
X14619047Y-10361140D02*
X14571428Y-10408760D01*
X14571428Y-10408760D02*
X14476190Y-10456379D01*
X14476190Y-10456379D02*
X14190476Y-10456379D01*
X14190476Y-10456379D02*
X14095238Y-10408760D01*
X14095238Y-10408760D02*
X14047619Y-10361140D01*
X15285714Y-9456379D02*
X15380952Y-9456379D01*
X15380952Y-9456379D02*
X15476190Y-9503998D01*
X15476190Y-9503998D02*
X15523809Y-9551617D01*
X15523809Y-9551617D02*
X15571428Y-9646855D01*
X15571428Y-9646855D02*
X15619047Y-9837331D01*
X15619047Y-9837331D02*
X15619047Y-10075426D01*
X15619047Y-10075426D02*
X15571428Y-10265902D01*
X15571428Y-10265902D02*
X15523809Y-10361140D01*
X15523809Y-10361140D02*
X15476190Y-10408760D01*
X15476190Y-10408760D02*
X15380952Y-10456379D01*
X15380952Y-10456379D02*
X15285714Y-10456379D01*
X15285714Y-10456379D02*
X15190476Y-10408760D01*
X15190476Y-10408760D02*
X15142857Y-10361140D01*
X15142857Y-10361140D02*
X15095238Y-10265902D01*
X15095238Y-10265902D02*
X15047619Y-10075426D01*
X15047619Y-10075426D02*
X15047619Y-9837331D01*
X15047619Y-9837331D02*
X15095238Y-9646855D01*
X15095238Y-9646855D02*
X15142857Y-9551617D01*
X15142857Y-9551617D02*
X15190476Y-9503998D01*
X15190476Y-9503998D02*
X15285714Y-9456379D01*
X16000000Y-9551617D02*
X16047619Y-9503998D01*
X16047619Y-9503998D02*
X16142857Y-9456379D01*
X16142857Y-9456379D02*
X16380952Y-9456379D01*
X16380952Y-9456379D02*
X16476190Y-9503998D01*
X16476190Y-9503998D02*
X16523809Y-9551617D01*
X16523809Y-9551617D02*
X16571428Y-9646855D01*
X16571428Y-9646855D02*
X16571428Y-9742093D01*
X16571428Y-9742093D02*
X16523809Y-9884950D01*
X16523809Y-9884950D02*
X15952381Y-10456379D01*
X15952381Y-10456379D02*
X16571428Y-10456379D01*
X18476190Y-9408760D02*
X17619048Y-10694474D01*
X19904762Y-9932569D02*
X20047619Y-9980188D01*
X20047619Y-9980188D02*
X20095238Y-10027807D01*
X20095238Y-10027807D02*
X20142857Y-10123045D01*
X20142857Y-10123045D02*
X20142857Y-10265902D01*
X20142857Y-10265902D02*
X20095238Y-10361140D01*
X20095238Y-10361140D02*
X20047619Y-10408760D01*
X20047619Y-10408760D02*
X19952381Y-10456379D01*
X19952381Y-10456379D02*
X19571429Y-10456379D01*
X19571429Y-10456379D02*
X19571429Y-9456379D01*
X19571429Y-9456379D02*
X19904762Y-9456379D01*
X19904762Y-9456379D02*
X20000000Y-9503998D01*
X20000000Y-9503998D02*
X20047619Y-9551617D01*
X20047619Y-9551617D02*
X20095238Y-9646855D01*
X20095238Y-9646855D02*
X20095238Y-9742093D01*
X20095238Y-9742093D02*
X20047619Y-9837331D01*
X20047619Y-9837331D02*
X20000000Y-9884950D01*
X20000000Y-9884950D02*
X19904762Y-9932569D01*
X19904762Y-9932569D02*
X19571429Y-9932569D01*
X20571429Y-10456379D02*
X20571429Y-9456379D01*
X20571429Y-9932569D02*
X21142857Y-9932569D01*
X21142857Y-10456379D02*
X21142857Y-9456379D01*
X22142857Y-10456379D02*
X21571429Y-10456379D01*
X21857143Y-10456379D02*
X21857143Y-9456379D01*
X21857143Y-9456379D02*
X21761905Y-9599236D01*
X21761905Y-9599236D02*
X21666667Y-9694474D01*
X21666667Y-9694474D02*
X21571429Y-9742093D01*
X22476191Y-9456379D02*
X23142857Y-9456379D01*
X23142857Y-9456379D02*
X22714286Y-10456379D01*
X24000000Y-9456379D02*
X23523810Y-9456379D01*
X23523810Y-9456379D02*
X23476191Y-9932569D01*
X23476191Y-9932569D02*
X23523810Y-9884950D01*
X23523810Y-9884950D02*
X23619048Y-9837331D01*
X23619048Y-9837331D02*
X23857143Y-9837331D01*
X23857143Y-9837331D02*
X23952381Y-9884950D01*
X23952381Y-9884950D02*
X24000000Y-9932569D01*
X24000000Y-9932569D02*
X24047619Y-10027807D01*
X24047619Y-10027807D02*
X24047619Y-10265902D01*
X24047619Y-10265902D02*
X24000000Y-10361140D01*
X24000000Y-10361140D02*
X23952381Y-10408760D01*
X23952381Y-10408760D02*
X23857143Y-10456379D01*
X23857143Y-10456379D02*
X23619048Y-10456379D01*
X23619048Y-10456379D02*
X23523810Y-10408760D01*
X23523810Y-10408760D02*
X23476191Y-10361140D01*
X24666667Y-9456379D02*
X24761905Y-9456379D01*
X24761905Y-9456379D02*
X24857143Y-9503998D01*
X24857143Y-9503998D02*
X24904762Y-9551617D01*
X24904762Y-9551617D02*
X24952381Y-9646855D01*
X24952381Y-9646855D02*
X25000000Y-9837331D01*
X25000000Y-9837331D02*
X25000000Y-10075426D01*
X25000000Y-10075426D02*
X24952381Y-10265902D01*
X24952381Y-10265902D02*
X24904762Y-10361140D01*
X24904762Y-10361140D02*
X24857143Y-10408760D01*
X24857143Y-10408760D02*
X24761905Y-10456379D01*
X24761905Y-10456379D02*
X24666667Y-10456379D01*
X24666667Y-10456379D02*
X24571429Y-10408760D01*
X24571429Y-10408760D02*
X24523810Y-10361140D01*
X24523810Y-10361140D02*
X24476191Y-10265902D01*
X24476191Y-10265902D02*
X24428572Y-10075426D01*
X24428572Y-10075426D02*
X24428572Y-9837331D01*
X24428572Y-9837331D02*
X24476191Y-9646855D01*
X24476191Y-9646855D02*
X24523810Y-9551617D01*
X24523810Y-9551617D02*
X24571429Y-9503998D01*
X24571429Y-9503998D02*
X24666667Y-9456379D01*
X51261904Y-15670664D02*
X51738094Y-15670664D01*
X51166666Y-15956379D02*
X51499999Y-14956379D01*
X51499999Y-14956379D02*
X51833332Y-15956379D01*
X52166666Y-15956379D02*
X52166666Y-14956379D01*
X52166666Y-14956379D02*
X52738094Y-15956379D01*
X52738094Y-15956379D02*
X52738094Y-14956379D01*
X53071428Y-14956379D02*
X53642856Y-14956379D01*
X53357142Y-15956379D02*
X53357142Y-14956379D01*
X53976190Y-15432569D02*
X54309523Y-15432569D01*
X54452380Y-15956379D02*
X53976190Y-15956379D01*
X53976190Y-15956379D02*
X53976190Y-14956379D01*
X53976190Y-14956379D02*
X54452380Y-14956379D01*
X54880952Y-15956379D02*
X54880952Y-14956379D01*
X54880952Y-14956379D02*
X55452380Y-15956379D01*
X55452380Y-15956379D02*
X55452380Y-14956379D01*
X55928571Y-15956379D02*
X55928571Y-14956379D01*
X55928571Y-14956379D02*
X56499999Y-15956379D01*
X56499999Y-15956379D02*
X56499999Y-14956379D01*
X56928571Y-15670664D02*
X57404761Y-15670664D01*
X56833333Y-15956379D02*
X57166666Y-14956379D01*
X57166666Y-14956379D02*
X57499999Y-15956379D01*
X58452381Y-15051617D02*
X58642857Y-14908760D01*
X58642857Y-14908760D02*
X58833333Y-15051617D01*
X48904762Y-32456379D02*
X48904762Y-31456379D01*
X48904762Y-31456379D02*
X49476190Y-32456379D01*
X49476190Y-32456379D02*
X49476190Y-31456379D01*
X50476190Y-32456379D02*
X49904762Y-32456379D01*
X50190476Y-32456379D02*
X50190476Y-31456379D01*
X50190476Y-31456379D02*
X50095238Y-31599236D01*
X50095238Y-31599236D02*
X50000000Y-31694474D01*
X50000000Y-31694474D02*
X49904762Y-31742093D01*
X51333333Y-31456379D02*
X51142857Y-31456379D01*
X51142857Y-31456379D02*
X51047619Y-31503998D01*
X51047619Y-31503998D02*
X51000000Y-31551617D01*
X51000000Y-31551617D02*
X50904762Y-31694474D01*
X50904762Y-31694474D02*
X50857143Y-31884950D01*
X50857143Y-31884950D02*
X50857143Y-32265902D01*
X50857143Y-32265902D02*
X50904762Y-32361140D01*
X50904762Y-32361140D02*
X50952381Y-32408760D01*
X50952381Y-32408760D02*
X51047619Y-32456379D01*
X51047619Y-32456379D02*
X51238095Y-32456379D01*
X51238095Y-32456379D02*
X51333333Y-32408760D01*
X51333333Y-32408760D02*
X51380952Y-32361140D01*
X51380952Y-32361140D02*
X51428571Y-32265902D01*
X51428571Y-32265902D02*
X51428571Y-32027807D01*
X51428571Y-32027807D02*
X51380952Y-31932569D01*
X51380952Y-31932569D02*
X51333333Y-31884950D01*
X51333333Y-31884950D02*
X51238095Y-31837331D01*
X51238095Y-31837331D02*
X51047619Y-31837331D01*
X51047619Y-31837331D02*
X50952381Y-31884950D01*
X50952381Y-31884950D02*
X50904762Y-31932569D01*
X50904762Y-31932569D02*
X50857143Y-32027807D01*
X52428571Y-32456379D02*
X52095238Y-31980188D01*
X51857143Y-32456379D02*
X51857143Y-31456379D01*
X51857143Y-31456379D02*
X52238095Y-31456379D01*
X52238095Y-31456379D02*
X52333333Y-31503998D01*
X52333333Y-31503998D02*
X52380952Y-31551617D01*
X52380952Y-31551617D02*
X52428571Y-31646855D01*
X52428571Y-31646855D02*
X52428571Y-31789712D01*
X52428571Y-31789712D02*
X52380952Y-31884950D01*
X52380952Y-31884950D02*
X52333333Y-31932569D01*
X52333333Y-31932569D02*
X52238095Y-31980188D01*
X52238095Y-31980188D02*
X51857143Y-31980188D01*
X53000000Y-31884950D02*
X52904762Y-31837331D01*
X52904762Y-31837331D02*
X52857143Y-31789712D01*
X52857143Y-31789712D02*
X52809524Y-31694474D01*
X52809524Y-31694474D02*
X52809524Y-31646855D01*
X52809524Y-31646855D02*
X52857143Y-31551617D01*
X52857143Y-31551617D02*
X52904762Y-31503998D01*
X52904762Y-31503998D02*
X53000000Y-31456379D01*
X53000000Y-31456379D02*
X53190476Y-31456379D01*
X53190476Y-31456379D02*
X53285714Y-31503998D01*
X53285714Y-31503998D02*
X53333333Y-31551617D01*
X53333333Y-31551617D02*
X53380952Y-31646855D01*
X53380952Y-31646855D02*
X53380952Y-31694474D01*
X53380952Y-31694474D02*
X53333333Y-31789712D01*
X53333333Y-31789712D02*
X53285714Y-31837331D01*
X53285714Y-31837331D02*
X53190476Y-31884950D01*
X53190476Y-31884950D02*
X53000000Y-31884950D01*
X53000000Y-31884950D02*
X52904762Y-31932569D01*
X52904762Y-31932569D02*
X52857143Y-31980188D01*
X52857143Y-31980188D02*
X52809524Y-32075426D01*
X52809524Y-32075426D02*
X52809524Y-32265902D01*
X52809524Y-32265902D02*
X52857143Y-32361140D01*
X52857143Y-32361140D02*
X52904762Y-32408760D01*
X52904762Y-32408760D02*
X53000000Y-32456379D01*
X53000000Y-32456379D02*
X53190476Y-32456379D01*
X53190476Y-32456379D02*
X53285714Y-32408760D01*
X53285714Y-32408760D02*
X53333333Y-32361140D01*
X53333333Y-32361140D02*
X53380952Y-32265902D01*
X53380952Y-32265902D02*
X53380952Y-32075426D01*
X53380952Y-32075426D02*
X53333333Y-31980188D01*
X53333333Y-31980188D02*
X53285714Y-31932569D01*
X53285714Y-31932569D02*
X53190476Y-31884950D01*
X55285714Y-31408760D02*
X54428572Y-32694474D01*
X56809524Y-31789712D02*
X56809524Y-32456379D01*
X56571429Y-31408760D02*
X56333334Y-32123045D01*
X56333334Y-32123045D02*
X56952381Y-32123045D01*
X57761905Y-31789712D02*
X57761905Y-32456379D01*
X57523810Y-31408760D02*
X57285715Y-32123045D01*
X57285715Y-32123045D02*
X57904762Y-32123045D01*
X59047620Y-32456379D02*
X59047620Y-31456379D01*
X59047620Y-31456379D02*
X59428572Y-31456379D01*
X59428572Y-31456379D02*
X59523810Y-31503998D01*
X59523810Y-31503998D02*
X59571429Y-31551617D01*
X59571429Y-31551617D02*
X59619048Y-31646855D01*
X59619048Y-31646855D02*
X59619048Y-31789712D01*
X59619048Y-31789712D02*
X59571429Y-31884950D01*
X59571429Y-31884950D02*
X59523810Y-31932569D01*
X59523810Y-31932569D02*
X59428572Y-31980188D01*
X59428572Y-31980188D02*
X59047620Y-31980188D01*
X60047620Y-32456379D02*
X60047620Y-31456379D01*
X60523810Y-32456379D02*
X60523810Y-31456379D01*
X60523810Y-31456379D02*
X61095238Y-32456379D01*
X61095238Y-32456379D02*
X61095238Y-31456379D01*
X50595238Y-60456379D02*
X50595238Y-61265902D01*
X50595238Y-61265902D02*
X50642857Y-61361140D01*
X50642857Y-61361140D02*
X50690476Y-61408760D01*
X50690476Y-61408760D02*
X50785714Y-61456379D01*
X50785714Y-61456379D02*
X50976190Y-61456379D01*
X50976190Y-61456379D02*
X51071428Y-61408760D01*
X51071428Y-61408760D02*
X51119047Y-61361140D01*
X51119047Y-61361140D02*
X51166666Y-61265902D01*
X51166666Y-61265902D02*
X51166666Y-60456379D01*
X51595238Y-61408760D02*
X51738095Y-61456379D01*
X51738095Y-61456379D02*
X51976190Y-61456379D01*
X51976190Y-61456379D02*
X52071428Y-61408760D01*
X52071428Y-61408760D02*
X52119047Y-61361140D01*
X52119047Y-61361140D02*
X52166666Y-61265902D01*
X52166666Y-61265902D02*
X52166666Y-61170664D01*
X52166666Y-61170664D02*
X52119047Y-61075426D01*
X52119047Y-61075426D02*
X52071428Y-61027807D01*
X52071428Y-61027807D02*
X51976190Y-60980188D01*
X51976190Y-60980188D02*
X51785714Y-60932569D01*
X51785714Y-60932569D02*
X51690476Y-60884950D01*
X51690476Y-60884950D02*
X51642857Y-60837331D01*
X51642857Y-60837331D02*
X51595238Y-60742093D01*
X51595238Y-60742093D02*
X51595238Y-60646855D01*
X51595238Y-60646855D02*
X51642857Y-60551617D01*
X51642857Y-60551617D02*
X51690476Y-60503998D01*
X51690476Y-60503998D02*
X51785714Y-60456379D01*
X51785714Y-60456379D02*
X52023809Y-60456379D01*
X52023809Y-60456379D02*
X52166666Y-60503998D01*
X52928571Y-60932569D02*
X53071428Y-60980188D01*
X53071428Y-60980188D02*
X53119047Y-61027807D01*
X53119047Y-61027807D02*
X53166666Y-61123045D01*
X53166666Y-61123045D02*
X53166666Y-61265902D01*
X53166666Y-61265902D02*
X53119047Y-61361140D01*
X53119047Y-61361140D02*
X53071428Y-61408760D01*
X53071428Y-61408760D02*
X52976190Y-61456379D01*
X52976190Y-61456379D02*
X52595238Y-61456379D01*
X52595238Y-61456379D02*
X52595238Y-60456379D01*
X52595238Y-60456379D02*
X52928571Y-60456379D01*
X52928571Y-60456379D02*
X53023809Y-60503998D01*
X53023809Y-60503998D02*
X53071428Y-60551617D01*
X53071428Y-60551617D02*
X53119047Y-60646855D01*
X53119047Y-60646855D02*
X53119047Y-60742093D01*
X53119047Y-60742093D02*
X53071428Y-60837331D01*
X53071428Y-60837331D02*
X53023809Y-60884950D01*
X53023809Y-60884950D02*
X52928571Y-60932569D01*
X52928571Y-60932569D02*
X52595238Y-60932569D01*
X53595238Y-61075426D02*
X54357143Y-61075426D01*
X55404761Y-61361140D02*
X55357142Y-61408760D01*
X55357142Y-61408760D02*
X55214285Y-61456379D01*
X55214285Y-61456379D02*
X55119047Y-61456379D01*
X55119047Y-61456379D02*
X54976190Y-61408760D01*
X54976190Y-61408760D02*
X54880952Y-61313521D01*
X54880952Y-61313521D02*
X54833333Y-61218283D01*
X54833333Y-61218283D02*
X54785714Y-61027807D01*
X54785714Y-61027807D02*
X54785714Y-60884950D01*
X54785714Y-60884950D02*
X54833333Y-60694474D01*
X54833333Y-60694474D02*
X54880952Y-60599236D01*
X54880952Y-60599236D02*
X54976190Y-60503998D01*
X54976190Y-60503998D02*
X55119047Y-60456379D01*
X55119047Y-60456379D02*
X55214285Y-60456379D01*
X55214285Y-60456379D02*
X55357142Y-60503998D01*
X55357142Y-60503998D02*
X55404761Y-60551617D01*
X56500000Y-61456379D02*
X57023809Y-60789712D01*
X56500000Y-60789712D02*
X57023809Y-61456379D01*
X57357143Y-60551617D02*
X57404762Y-60503998D01*
X57404762Y-60503998D02*
X57500000Y-60456379D01*
X57500000Y-60456379D02*
X57738095Y-60456379D01*
X57738095Y-60456379D02*
X57833333Y-60503998D01*
X57833333Y-60503998D02*
X57880952Y-60551617D01*
X57880952Y-60551617D02*
X57928571Y-60646855D01*
X57928571Y-60646855D02*
X57928571Y-60742093D01*
X57928571Y-60742093D02*
X57880952Y-60884950D01*
X57880952Y-60884950D02*
X57309524Y-61456379D01*
X57309524Y-61456379D02*
X57928571Y-61456379D01*
X59023810Y-60789712D02*
X59261905Y-61456379D01*
X59261905Y-61456379D02*
X59500000Y-60789712D01*
X87107143Y-49502640D02*
X87107143Y-48402640D01*
X87107143Y-48402640D02*
X87473810Y-49188355D01*
X87473810Y-49188355D02*
X87840477Y-48402640D01*
X87840477Y-48402640D02*
X87840477Y-49502640D01*
X89097620Y-49607402D02*
X88992858Y-49555021D01*
X88992858Y-49555021D02*
X88888096Y-49450260D01*
X88888096Y-49450260D02*
X88730953Y-49293117D01*
X88730953Y-49293117D02*
X88626191Y-49240736D01*
X88626191Y-49240736D02*
X88521429Y-49240736D01*
X88573810Y-49502640D02*
X88469048Y-49450260D01*
X88469048Y-49450260D02*
X88364286Y-49345498D01*
X88364286Y-49345498D02*
X88311905Y-49135974D01*
X88311905Y-49135974D02*
X88311905Y-48769307D01*
X88311905Y-48769307D02*
X88364286Y-48559783D01*
X88364286Y-48559783D02*
X88469048Y-48455021D01*
X88469048Y-48455021D02*
X88573810Y-48402640D01*
X88573810Y-48402640D02*
X88783334Y-48402640D01*
X88783334Y-48402640D02*
X88888096Y-48455021D01*
X88888096Y-48455021D02*
X88992858Y-48559783D01*
X88992858Y-48559783D02*
X89045239Y-48769307D01*
X89045239Y-48769307D02*
X89045239Y-49135974D01*
X89045239Y-49135974D02*
X88992858Y-49345498D01*
X88992858Y-49345498D02*
X88888096Y-49450260D01*
X88888096Y-49450260D02*
X88783334Y-49502640D01*
X88783334Y-49502640D02*
X88573810Y-49502640D01*
X90930953Y-48455021D02*
X90826191Y-48402640D01*
X90826191Y-48402640D02*
X90669048Y-48402640D01*
X90669048Y-48402640D02*
X90511905Y-48455021D01*
X90511905Y-48455021D02*
X90407143Y-48559783D01*
X90407143Y-48559783D02*
X90354762Y-48664545D01*
X90354762Y-48664545D02*
X90302381Y-48874069D01*
X90302381Y-48874069D02*
X90302381Y-49031212D01*
X90302381Y-49031212D02*
X90354762Y-49240736D01*
X90354762Y-49240736D02*
X90407143Y-49345498D01*
X90407143Y-49345498D02*
X90511905Y-49450260D01*
X90511905Y-49450260D02*
X90669048Y-49502640D01*
X90669048Y-49502640D02*
X90773810Y-49502640D01*
X90773810Y-49502640D02*
X90930953Y-49450260D01*
X90930953Y-49450260D02*
X90983334Y-49397879D01*
X90983334Y-49397879D02*
X90983334Y-49031212D01*
X90983334Y-49031212D02*
X90773810Y-49031212D01*
X91402381Y-49188355D02*
X91926191Y-49188355D01*
X91297619Y-49502640D02*
X91664286Y-48402640D01*
X91664286Y-48402640D02*
X92030953Y-49502640D01*
X92345238Y-49450260D02*
X92502381Y-49502640D01*
X92502381Y-49502640D02*
X92764286Y-49502640D01*
X92764286Y-49502640D02*
X92869048Y-49450260D01*
X92869048Y-49450260D02*
X92921429Y-49397879D01*
X92921429Y-49397879D02*
X92973810Y-49293117D01*
X92973810Y-49293117D02*
X92973810Y-49188355D01*
X92973810Y-49188355D02*
X92921429Y-49083593D01*
X92921429Y-49083593D02*
X92869048Y-49031212D01*
X92869048Y-49031212D02*
X92764286Y-48978831D01*
X92764286Y-48978831D02*
X92554762Y-48926450D01*
X92554762Y-48926450D02*
X92450000Y-48874069D01*
X92450000Y-48874069D02*
X92397619Y-48821688D01*
X92397619Y-48821688D02*
X92345238Y-48716926D01*
X92345238Y-48716926D02*
X92345238Y-48612164D01*
X92345238Y-48612164D02*
X92397619Y-48507402D01*
X92397619Y-48507402D02*
X92450000Y-48455021D01*
X92450000Y-48455021D02*
X92554762Y-48402640D01*
X92554762Y-48402640D02*
X92816667Y-48402640D01*
X92816667Y-48402640D02*
X92973810Y-48455021D01*
X95069048Y-48350260D02*
X94126190Y-49764545D01*
X96273809Y-49502640D02*
X96273809Y-48402640D01*
X96273809Y-48926450D02*
X96902381Y-48926450D01*
X96902381Y-49502640D02*
X96902381Y-48402640D01*
X97635714Y-48402640D02*
X97845238Y-48402640D01*
X97845238Y-48402640D02*
X97950000Y-48455021D01*
X97950000Y-48455021D02*
X98054762Y-48559783D01*
X98054762Y-48559783D02*
X98107143Y-48769307D01*
X98107143Y-48769307D02*
X98107143Y-49135974D01*
X98107143Y-49135974D02*
X98054762Y-49345498D01*
X98054762Y-49345498D02*
X97950000Y-49450260D01*
X97950000Y-49450260D02*
X97845238Y-49502640D01*
X97845238Y-49502640D02*
X97635714Y-49502640D01*
X97635714Y-49502640D02*
X97530952Y-49450260D01*
X97530952Y-49450260D02*
X97426190Y-49345498D01*
X97426190Y-49345498D02*
X97373809Y-49135974D01*
X97373809Y-49135974D02*
X97373809Y-48769307D01*
X97373809Y-48769307D02*
X97426190Y-48559783D01*
X97426190Y-48559783D02*
X97530952Y-48455021D01*
X97530952Y-48455021D02*
X97635714Y-48402640D01*
X98421428Y-48402640D02*
X99050000Y-48402640D01*
X98735714Y-49502640D02*
X98735714Y-48402640D01*
X90142857Y-9920331D02*
X90314285Y-9977474D01*
X90314285Y-9977474D02*
X90371428Y-10034617D01*
X90371428Y-10034617D02*
X90428571Y-10148902D01*
X90428571Y-10148902D02*
X90428571Y-10320331D01*
X90428571Y-10320331D02*
X90371428Y-10434617D01*
X90371428Y-10434617D02*
X90314285Y-10491760D01*
X90314285Y-10491760D02*
X90200000Y-10548902D01*
X90200000Y-10548902D02*
X89742857Y-10548902D01*
X89742857Y-10548902D02*
X89742857Y-9348902D01*
X89742857Y-9348902D02*
X90142857Y-9348902D01*
X90142857Y-9348902D02*
X90257143Y-9406045D01*
X90257143Y-9406045D02*
X90314285Y-9463188D01*
X90314285Y-9463188D02*
X90371428Y-9577474D01*
X90371428Y-9577474D02*
X90371428Y-9691760D01*
X90371428Y-9691760D02*
X90314285Y-9806045D01*
X90314285Y-9806045D02*
X90257143Y-9863188D01*
X90257143Y-9863188D02*
X90142857Y-9920331D01*
X90142857Y-9920331D02*
X89742857Y-9920331D01*
X90942857Y-10548902D02*
X90942857Y-9348902D01*
X90942857Y-9348902D02*
X91342857Y-10206045D01*
X91342857Y-10206045D02*
X91742857Y-9348902D01*
X91742857Y-9348902D02*
X91742857Y-10548902D01*
X92314286Y-9920331D02*
X92714286Y-9920331D01*
X92885714Y-10548902D02*
X92314286Y-10548902D01*
X92314286Y-10548902D02*
X92314286Y-9348902D01*
X92314286Y-9348902D02*
X92885714Y-9348902D01*
X93914286Y-9348902D02*
X93685714Y-9348902D01*
X93685714Y-9348902D02*
X93571428Y-9406045D01*
X93571428Y-9406045D02*
X93514286Y-9463188D01*
X93514286Y-9463188D02*
X93400000Y-9634617D01*
X93400000Y-9634617D02*
X93342857Y-9863188D01*
X93342857Y-9863188D02*
X93342857Y-10320331D01*
X93342857Y-10320331D02*
X93400000Y-10434617D01*
X93400000Y-10434617D02*
X93457143Y-10491760D01*
X93457143Y-10491760D02*
X93571428Y-10548902D01*
X93571428Y-10548902D02*
X93800000Y-10548902D01*
X93800000Y-10548902D02*
X93914286Y-10491760D01*
X93914286Y-10491760D02*
X93971428Y-10434617D01*
X93971428Y-10434617D02*
X94028571Y-10320331D01*
X94028571Y-10320331D02*
X94028571Y-10034617D01*
X94028571Y-10034617D02*
X93971428Y-9920331D01*
X93971428Y-9920331D02*
X93914286Y-9863188D01*
X93914286Y-9863188D02*
X93800000Y-9806045D01*
X93800000Y-9806045D02*
X93571428Y-9806045D01*
X93571428Y-9806045D02*
X93457143Y-9863188D01*
X93457143Y-9863188D02*
X93400000Y-9920331D01*
X93400000Y-9920331D02*
X93342857Y-10034617D01*
X94714285Y-9863188D02*
X94600000Y-9806045D01*
X94600000Y-9806045D02*
X94542857Y-9748902D01*
X94542857Y-9748902D02*
X94485714Y-9634617D01*
X94485714Y-9634617D02*
X94485714Y-9577474D01*
X94485714Y-9577474D02*
X94542857Y-9463188D01*
X94542857Y-9463188D02*
X94600000Y-9406045D01*
X94600000Y-9406045D02*
X94714285Y-9348902D01*
X94714285Y-9348902D02*
X94942857Y-9348902D01*
X94942857Y-9348902D02*
X95057143Y-9406045D01*
X95057143Y-9406045D02*
X95114285Y-9463188D01*
X95114285Y-9463188D02*
X95171428Y-9577474D01*
X95171428Y-9577474D02*
X95171428Y-9634617D01*
X95171428Y-9634617D02*
X95114285Y-9748902D01*
X95114285Y-9748902D02*
X95057143Y-9806045D01*
X95057143Y-9806045D02*
X94942857Y-9863188D01*
X94942857Y-9863188D02*
X94714285Y-9863188D01*
X94714285Y-9863188D02*
X94600000Y-9920331D01*
X94600000Y-9920331D02*
X94542857Y-9977474D01*
X94542857Y-9977474D02*
X94485714Y-10091760D01*
X94485714Y-10091760D02*
X94485714Y-10320331D01*
X94485714Y-10320331D02*
X94542857Y-10434617D01*
X94542857Y-10434617D02*
X94600000Y-10491760D01*
X94600000Y-10491760D02*
X94714285Y-10548902D01*
X94714285Y-10548902D02*
X94942857Y-10548902D01*
X94942857Y-10548902D02*
X95057143Y-10491760D01*
X95057143Y-10491760D02*
X95114285Y-10434617D01*
X95114285Y-10434617D02*
X95171428Y-10320331D01*
X95171428Y-10320331D02*
X95171428Y-10091760D01*
X95171428Y-10091760D02*
X95114285Y-9977474D01*
X95114285Y-9977474D02*
X95057143Y-9920331D01*
X95057143Y-9920331D02*
X94942857Y-9863188D01*
X95857142Y-9863188D02*
X95742857Y-9806045D01*
X95742857Y-9806045D02*
X95685714Y-9748902D01*
X95685714Y-9748902D02*
X95628571Y-9634617D01*
X95628571Y-9634617D02*
X95628571Y-9577474D01*
X95628571Y-9577474D02*
X95685714Y-9463188D01*
X95685714Y-9463188D02*
X95742857Y-9406045D01*
X95742857Y-9406045D02*
X95857142Y-9348902D01*
X95857142Y-9348902D02*
X96085714Y-9348902D01*
X96085714Y-9348902D02*
X96200000Y-9406045D01*
X96200000Y-9406045D02*
X96257142Y-9463188D01*
X96257142Y-9463188D02*
X96314285Y-9577474D01*
X96314285Y-9577474D02*
X96314285Y-9634617D01*
X96314285Y-9634617D02*
X96257142Y-9748902D01*
X96257142Y-9748902D02*
X96200000Y-9806045D01*
X96200000Y-9806045D02*
X96085714Y-9863188D01*
X96085714Y-9863188D02*
X95857142Y-9863188D01*
X95857142Y-9863188D02*
X95742857Y-9920331D01*
X95742857Y-9920331D02*
X95685714Y-9977474D01*
X95685714Y-9977474D02*
X95628571Y-10091760D01*
X95628571Y-10091760D02*
X95628571Y-10320331D01*
X95628571Y-10320331D02*
X95685714Y-10434617D01*
X95685714Y-10434617D02*
X95742857Y-10491760D01*
X95742857Y-10491760D02*
X95857142Y-10548902D01*
X95857142Y-10548902D02*
X96085714Y-10548902D01*
X96085714Y-10548902D02*
X96200000Y-10491760D01*
X96200000Y-10491760D02*
X96257142Y-10434617D01*
X96257142Y-10434617D02*
X96314285Y-10320331D01*
X96314285Y-10320331D02*
X96314285Y-10091760D01*
X96314285Y-10091760D02*
X96257142Y-9977474D01*
X96257142Y-9977474D02*
X96200000Y-9920331D01*
X96200000Y-9920331D02*
X96085714Y-9863188D01*
X49428572Y-28901974D02*
X49928572Y-28901974D01*
X50142858Y-29687688D02*
X49428572Y-29687688D01*
X49428572Y-29687688D02*
X49428572Y-28187688D01*
X49428572Y-28187688D02*
X50142858Y-28187688D01*
X50714287Y-29616260D02*
X50928573Y-29687688D01*
X50928573Y-29687688D02*
X51285715Y-29687688D01*
X51285715Y-29687688D02*
X51428573Y-29616260D01*
X51428573Y-29616260D02*
X51500001Y-29544831D01*
X51500001Y-29544831D02*
X51571430Y-29401974D01*
X51571430Y-29401974D02*
X51571430Y-29259117D01*
X51571430Y-29259117D02*
X51500001Y-29116260D01*
X51500001Y-29116260D02*
X51428573Y-29044831D01*
X51428573Y-29044831D02*
X51285715Y-28973402D01*
X51285715Y-28973402D02*
X51000001Y-28901974D01*
X51000001Y-28901974D02*
X50857144Y-28830545D01*
X50857144Y-28830545D02*
X50785715Y-28759117D01*
X50785715Y-28759117D02*
X50714287Y-28616260D01*
X50714287Y-28616260D02*
X50714287Y-28473402D01*
X50714287Y-28473402D02*
X50785715Y-28330545D01*
X50785715Y-28330545D02*
X50857144Y-28259117D01*
X50857144Y-28259117D02*
X51000001Y-28187688D01*
X51000001Y-28187688D02*
X51357144Y-28187688D01*
X51357144Y-28187688D02*
X51571430Y-28259117D01*
X52214286Y-29687688D02*
X52214286Y-28187688D01*
X52214286Y-28187688D02*
X52785715Y-28187688D01*
X52785715Y-28187688D02*
X52928572Y-28259117D01*
X52928572Y-28259117D02*
X53000001Y-28330545D01*
X53000001Y-28330545D02*
X53071429Y-28473402D01*
X53071429Y-28473402D02*
X53071429Y-28687688D01*
X53071429Y-28687688D02*
X53000001Y-28830545D01*
X53000001Y-28830545D02*
X52928572Y-28901974D01*
X52928572Y-28901974D02*
X52785715Y-28973402D01*
X52785715Y-28973402D02*
X52214286Y-28973402D01*
X53571429Y-28187688D02*
X54500001Y-28187688D01*
X54500001Y-28187688D02*
X54000001Y-28759117D01*
X54000001Y-28759117D02*
X54214286Y-28759117D01*
X54214286Y-28759117D02*
X54357144Y-28830545D01*
X54357144Y-28830545D02*
X54428572Y-28901974D01*
X54428572Y-28901974D02*
X54500001Y-29044831D01*
X54500001Y-29044831D02*
X54500001Y-29401974D01*
X54500001Y-29401974D02*
X54428572Y-29544831D01*
X54428572Y-29544831D02*
X54357144Y-29616260D01*
X54357144Y-29616260D02*
X54214286Y-29687688D01*
X54214286Y-29687688D02*
X53785715Y-29687688D01*
X53785715Y-29687688D02*
X53642858Y-29616260D01*
X53642858Y-29616260D02*
X53571429Y-29544831D01*
X55071429Y-28330545D02*
X55142857Y-28259117D01*
X55142857Y-28259117D02*
X55285715Y-28187688D01*
X55285715Y-28187688D02*
X55642857Y-28187688D01*
X55642857Y-28187688D02*
X55785715Y-28259117D01*
X55785715Y-28259117D02*
X55857143Y-28330545D01*
X55857143Y-28330545D02*
X55928572Y-28473402D01*
X55928572Y-28473402D02*
X55928572Y-28616260D01*
X55928572Y-28616260D02*
X55857143Y-28830545D01*
X55857143Y-28830545D02*
X55000000Y-29687688D01*
X55000000Y-29687688D02*
X55928572Y-29687688D01*
X56571428Y-29116260D02*
X57714286Y-29116260D01*
X58357143Y-29616260D02*
X58571429Y-29687688D01*
X58571429Y-29687688D02*
X58928571Y-29687688D01*
X58928571Y-29687688D02*
X59071429Y-29616260D01*
X59071429Y-29616260D02*
X59142857Y-29544831D01*
X59142857Y-29544831D02*
X59214286Y-29401974D01*
X59214286Y-29401974D02*
X59214286Y-29259117D01*
X59214286Y-29259117D02*
X59142857Y-29116260D01*
X59142857Y-29116260D02*
X59071429Y-29044831D01*
X59071429Y-29044831D02*
X58928571Y-28973402D01*
X58928571Y-28973402D02*
X58642857Y-28901974D01*
X58642857Y-28901974D02*
X58500000Y-28830545D01*
X58500000Y-28830545D02*
X58428571Y-28759117D01*
X58428571Y-28759117D02*
X58357143Y-28616260D01*
X58357143Y-28616260D02*
X58357143Y-28473402D01*
X58357143Y-28473402D02*
X58428571Y-28330545D01*
X58428571Y-28330545D02*
X58500000Y-28259117D01*
X58500000Y-28259117D02*
X58642857Y-28187688D01*
X58642857Y-28187688D02*
X59000000Y-28187688D01*
X59000000Y-28187688D02*
X59214286Y-28259117D01*
X59714285Y-28187688D02*
X60642857Y-28187688D01*
X60642857Y-28187688D02*
X60142857Y-28759117D01*
X60142857Y-28759117D02*
X60357142Y-28759117D01*
X60357142Y-28759117D02*
X60500000Y-28830545D01*
X60500000Y-28830545D02*
X60571428Y-28901974D01*
X60571428Y-28901974D02*
X60642857Y-29044831D01*
X60642857Y-29044831D02*
X60642857Y-29401974D01*
X60642857Y-29401974D02*
X60571428Y-29544831D01*
X60571428Y-29544831D02*
X60500000Y-29616260D01*
X60500000Y-29616260D02*
X60357142Y-29687688D01*
X60357142Y-29687688D02*
X59928571Y-29687688D01*
X59928571Y-29687688D02*
X59785714Y-29616260D01*
X59785714Y-29616260D02*
X59714285Y-29544831D01*
%TO.C,Q1*%
X95240000Y-34440000D02*
X96760000Y-34440000D01*
X95240000Y-34490000D02*
X95240000Y-34440000D01*
X95240000Y-36390000D02*
X95240000Y-35610000D01*
X95240000Y-37560000D02*
X95240000Y-37510000D01*
X96760000Y-34440000D02*
X96760000Y-35440000D01*
X96760000Y-36560000D02*
X96760000Y-37560000D01*
X96760000Y-37560000D02*
X95240000Y-37560000D01*
X94940000Y-35950000D02*
X94460000Y-35950000D01*
X94700000Y-35620000D01*
X94940000Y-35950000D01*
G36*
X94940000Y-35950000D02*
G01*
X94460000Y-35950000D01*
X94700000Y-35620000D01*
X94940000Y-35950000D01*
G37*
%TO.C,D1*%
X29715000Y-85865000D02*
X29715000Y-88135000D01*
X29715000Y-88135000D02*
X33600000Y-88135000D01*
X33600000Y-85865000D02*
X29715000Y-85865000D01*
%TO.C,Q2*%
X102240000Y-78440000D02*
X103760000Y-78440000D01*
X102240000Y-78490000D02*
X102240000Y-78440000D01*
X102240000Y-80390000D02*
X102240000Y-79610000D01*
X102240000Y-81560000D02*
X102240000Y-81510000D01*
X103760000Y-78440000D02*
X103760000Y-79440000D01*
X103760000Y-80560000D02*
X103760000Y-81560000D01*
X103760000Y-81560000D02*
X102240000Y-81560000D01*
X101940000Y-79950000D02*
X101460000Y-79950000D01*
X101700000Y-79620000D01*
X101940000Y-79950000D01*
G36*
X101940000Y-79950000D02*
G01*
X101460000Y-79950000D01*
X101700000Y-79620000D01*
X101940000Y-79950000D01*
G37*
%TO.C,R10*%
X27772936Y-54090000D02*
X29227064Y-54090000D01*
X27772936Y-55910000D02*
X29227064Y-55910000D01*
%TO.C,U1*%
X26690000Y-40390000D02*
X31310000Y-40390000D01*
X26690000Y-40590000D02*
X26690000Y-40390000D01*
X26690000Y-45610000D02*
X26690000Y-45410000D01*
X31310000Y-40390000D02*
X31310000Y-40590000D01*
X31310000Y-45410000D02*
X31310000Y-45610000D01*
X31310000Y-45610000D02*
X26690000Y-45610000D01*
X26050000Y-40590000D02*
X25710000Y-40120000D01*
X26390000Y-40120000D01*
X26050000Y-40590000D01*
G36*
X26050000Y-40590000D02*
G01*
X25710000Y-40120000D01*
X26390000Y-40120000D01*
X26050000Y-40590000D01*
G37*
%TO.C,R1*%
X101272936Y-31090000D02*
X102727064Y-31090000D01*
X101272936Y-32910000D02*
X102727064Y-32910000D01*
%TO.C,JP1*%
X7950000Y-29800000D02*
X7950000Y-29200000D01*
X8500000Y-31000000D02*
X9100000Y-31000000D01*
X8600000Y-28500000D02*
X11400000Y-28500000D01*
X8800000Y-30700000D02*
X8500000Y-31000000D01*
X8800000Y-30700000D02*
X9100000Y-31000000D01*
X11400000Y-30500000D02*
X8600000Y-30500000D01*
X12050000Y-29200000D02*
X12050000Y-29800000D01*
X7950000Y-29200000D02*
G75*
G02*
X8650000Y-28500000I699999J1D01*
G01*
X8650000Y-30500000D02*
G75*
G02*
X7950000Y-29800000I-1J699999D01*
G01*
X11350000Y-28500000D02*
G75*
G02*
X12050000Y-29200000I0J-700000D01*
G01*
X12050000Y-29800000D02*
G75*
G02*
X11350000Y-30500000I-700000J0D01*
G01*
%TO.C,C11*%
X27288748Y-28090000D02*
X28711252Y-28090000D01*
X27288748Y-29910000D02*
X28711252Y-29910000D01*
D11*
%TO.C,J10*%
X76600000Y-30600000D02*
X79400000Y-30600000D01*
X76600000Y-38480000D02*
X76600000Y-30600000D01*
X79400000Y-30600000D02*
X79400000Y-38480000D01*
X79400000Y-38480000D02*
X76600000Y-38480000D01*
D10*
%TO.C,R4*%
X86272936Y-35090000D02*
X87727064Y-35090000D01*
X86272936Y-36910000D02*
X87727064Y-36910000D01*
D11*
%TO.C,J3*%
X82600000Y-23600000D02*
X98100000Y-23600000D01*
X82600000Y-26400000D02*
X82600000Y-23600000D01*
X98100000Y-23600000D02*
X98100000Y-26400000D01*
X98100000Y-26400000D02*
X82600000Y-26400000D01*
D10*
%TO.C,C7*%
X26090000Y-64711252D02*
X26090000Y-63288748D01*
X27910000Y-64711252D02*
X27910000Y-63288748D01*
%TO.C,R5*%
X86272936Y-39090000D02*
X87727064Y-39090000D01*
X86272936Y-40910000D02*
X87727064Y-40910000D01*
%TO.C,R2*%
X25272936Y-20090000D02*
X26727064Y-20090000D01*
X25272936Y-21910000D02*
X26727064Y-21910000D01*
%TO.C,R12*%
X17272936Y-37090000D02*
X18727064Y-37090000D01*
X17272936Y-38910000D02*
X18727064Y-38910000D01*
%TO.C,R17*%
X6272936Y-45090000D02*
X7727064Y-45090000D01*
X6272936Y-46910000D02*
X7727064Y-46910000D01*
D11*
%TO.C,JP3*%
X78600000Y-76600000D02*
X86480000Y-76600000D01*
X78600000Y-79400000D02*
X78600000Y-76600000D01*
X86480000Y-76600000D02*
X86480000Y-79400000D01*
X86480000Y-79400000D02*
X78600000Y-79400000D01*
D10*
%TO.C,R16*%
X31272936Y-83090000D02*
X32727064Y-83090000D01*
X31272936Y-84910000D02*
X32727064Y-84910000D01*
D11*
%TO.C,J11*%
X76600000Y-40600000D02*
X79400000Y-40600000D01*
X76600000Y-48480000D02*
X76600000Y-40600000D01*
X79400000Y-40600000D02*
X79400000Y-48480000D01*
X79400000Y-48480000D02*
X76600000Y-48480000D01*
%TO.C,J7*%
X30600000Y-10600000D02*
X33400000Y-10600000D01*
X30600000Y-21020000D02*
X30600000Y-10600000D01*
X33400000Y-10600000D02*
X33400000Y-21020000D01*
X33400000Y-21020000D02*
X30600000Y-21020000D01*
D10*
%TO.C,C6*%
X31090000Y-64711252D02*
X31090000Y-63288748D01*
X32910000Y-64711252D02*
X32910000Y-63288748D01*
%TO.C,R18*%
X31090000Y-69727064D02*
X31090000Y-68272936D01*
X32910000Y-69727064D02*
X32910000Y-68272936D01*
%TO.C,Q3*%
X31240000Y-78440000D02*
X32760000Y-78440000D01*
X31240000Y-78490000D02*
X31240000Y-78440000D01*
X31240000Y-80390000D02*
X31240000Y-79610000D01*
X31240000Y-81560000D02*
X31240000Y-81510000D01*
X32760000Y-78440000D02*
X32760000Y-79440000D01*
X32760000Y-80560000D02*
X32760000Y-81560000D01*
X32760000Y-81560000D02*
X31240000Y-81560000D01*
X30940000Y-79950000D02*
X30460000Y-79950000D01*
X30700000Y-79620000D01*
X30940000Y-79950000D01*
G36*
X30940000Y-79950000D02*
G01*
X30460000Y-79950000D01*
X30700000Y-79620000D01*
X30940000Y-79950000D01*
G37*
%TO.C,C9*%
X105288748Y-71590000D02*
X106711252Y-71590000D01*
X105288748Y-73410000D02*
X106711252Y-73410000D01*
%TO.C,C2*%
X28288748Y-36090000D02*
X29711252Y-36090000D01*
X28288748Y-37910000D02*
X29711252Y-37910000D01*
%TO.C,J13*%
X15340000Y-74680000D02*
X25740000Y-74680000D01*
X15340000Y-77700000D02*
X25740000Y-77700000D01*
X15340000Y-82600000D02*
X25740000Y-82600000D01*
X15340000Y-84100000D02*
X25740000Y-84100000D01*
X15340000Y-84720000D02*
X15340000Y-74680000D01*
X17700000Y-84720000D02*
X15340000Y-84720000D01*
X25740000Y-74680000D02*
X25740000Y-84720000D01*
X25740000Y-84720000D02*
X18300000Y-84720000D01*
X18440000Y-85330000D02*
X17560000Y-85330000D01*
X18000000Y-84720000D01*
X18440000Y-85330000D01*
G36*
X18440000Y-85330000D02*
G01*
X17560000Y-85330000D01*
X18000000Y-84720000D01*
X18440000Y-85330000D01*
G37*
%TO.C,R21*%
X101272936Y-45090000D02*
X102727064Y-45090000D01*
X101272936Y-46910000D02*
X102727064Y-46910000D01*
D11*
%TO.C,J4*%
X22600000Y-50600000D02*
X25400000Y-50600000D01*
X22600000Y-63560000D02*
X22600000Y-50600000D01*
X25400000Y-50600000D02*
X25400000Y-63560000D01*
X25400000Y-63560000D02*
X22600000Y-63560000D01*
%TO.C,J5*%
X83600000Y-68600000D02*
X94020000Y-68600000D01*
X83600000Y-71400000D02*
X83600000Y-68600000D01*
X94020000Y-68600000D02*
X94020000Y-71400000D01*
X94020000Y-71400000D02*
X83600000Y-71400000D01*
%TO.C,J12*%
X6600000Y-71600000D02*
X14480000Y-71600000D01*
X6600000Y-74400000D02*
X6600000Y-71600000D01*
X14480000Y-71600000D02*
X14480000Y-74400000D01*
X14480000Y-74400000D02*
X6600000Y-74400000D01*
D10*
%TO.C,R6*%
X101272936Y-39090000D02*
X102727064Y-39090000D01*
X101272936Y-40910000D02*
X102727064Y-40910000D01*
%TO.C,C10*%
X21288748Y-28090000D02*
X22711252Y-28090000D01*
X21288748Y-29910000D02*
X22711252Y-29910000D01*
%TO.C,R13*%
X17272936Y-41090000D02*
X18727064Y-41090000D01*
X17272936Y-42910000D02*
X18727064Y-42910000D01*
D11*
%TO.C,J1*%
X40900000Y-6220000D02*
X43700001Y-6220000D01*
X40900000Y-62360000D02*
X40900000Y-6220000D01*
X43700001Y-6220000D02*
X43700001Y-62360000D01*
X43700001Y-62360000D02*
X40900000Y-62360000D01*
X66299999Y-6220000D02*
X69100000Y-6220000D01*
X66299999Y-62360000D02*
X66299999Y-6220000D01*
X69100000Y-6220000D02*
X69100000Y-62360000D01*
X69100000Y-62360000D02*
X66299999Y-62360000D01*
%TO.C,J9*%
X76600000Y-16600000D02*
X79400000Y-16600000D01*
X76600000Y-24480000D02*
X76600000Y-16600000D01*
X79400000Y-16600000D02*
X79400000Y-24480000D01*
X79400000Y-24480000D02*
X76600000Y-24480000D01*
D10*
%TO.C,R8*%
X96272936Y-31090000D02*
X97727064Y-31090000D01*
X96272936Y-32910000D02*
X97727064Y-32910000D01*
%TO.C,C4*%
X73288748Y-81090000D02*
X74711252Y-81090000D01*
X73288748Y-82910000D02*
X74711252Y-82910000D01*
%TO.C,R20*%
X27272936Y-33090000D02*
X28727064Y-33090000D01*
X27272936Y-34910000D02*
X28727064Y-34910000D01*
%TO.C,C3*%
X79749759Y-81161000D02*
X80379759Y-81161000D01*
X80064759Y-80846000D02*
X80064759Y-81476000D01*
X83250000Y-79770000D02*
X83250000Y-86230000D01*
X83290000Y-79770000D02*
X83290000Y-86230000D01*
X83330000Y-79771000D02*
X83330000Y-86229000D01*
X83370000Y-79772000D02*
X83370000Y-86228000D01*
X83410000Y-79774000D02*
X83410000Y-86226000D01*
X83450000Y-79776000D02*
X83450000Y-86224000D01*
X83490000Y-79779000D02*
X83490000Y-81960000D01*
X83490000Y-84040000D02*
X83490000Y-86221000D01*
X83530000Y-79782000D02*
X83530000Y-81960000D01*
X83530000Y-84040000D02*
X83530000Y-86218000D01*
X83570000Y-79786000D02*
X83570000Y-81960000D01*
X83570000Y-84040000D02*
X83570000Y-86214000D01*
X83610000Y-79790000D02*
X83610000Y-81960000D01*
X83610000Y-84040000D02*
X83610000Y-86210000D01*
X83650000Y-79795000D02*
X83650000Y-81960000D01*
X83650000Y-84040000D02*
X83650000Y-86205000D01*
X83690000Y-79800000D02*
X83690000Y-81960000D01*
X83690000Y-84040000D02*
X83690000Y-86200000D01*
X83730000Y-79805000D02*
X83730000Y-81960000D01*
X83730000Y-84040000D02*
X83730000Y-86195000D01*
X83770000Y-79812000D02*
X83770000Y-81960000D01*
X83770000Y-84040000D02*
X83770000Y-86188000D01*
X83810000Y-79818000D02*
X83810000Y-81960000D01*
X83810000Y-84040000D02*
X83810000Y-86182000D01*
X83850000Y-79826000D02*
X83850000Y-81960000D01*
X83850000Y-84040000D02*
X83850000Y-86174000D01*
X83890000Y-79833000D02*
X83890000Y-81960000D01*
X83890000Y-84040000D02*
X83890000Y-86167000D01*
X83930000Y-79841000D02*
X83930000Y-81960000D01*
X83930000Y-84040000D02*
X83930000Y-86159000D01*
X83970000Y-79850000D02*
X83970000Y-81960000D01*
X83970000Y-84040000D02*
X83970000Y-86150000D01*
X84010000Y-79860000D02*
X84010000Y-81960000D01*
X84010000Y-84040000D02*
X84010000Y-86140000D01*
X84050000Y-79869000D02*
X84050000Y-81960000D01*
X84050000Y-84040000D02*
X84050000Y-86131000D01*
X84090000Y-79880000D02*
X84090000Y-81960000D01*
X84090000Y-84040000D02*
X84090000Y-86120000D01*
X84130000Y-79891000D02*
X84130000Y-81960000D01*
X84130000Y-84040000D02*
X84130000Y-86109000D01*
X84170000Y-79902000D02*
X84170000Y-81960000D01*
X84170000Y-84040000D02*
X84170000Y-86098000D01*
X84210000Y-79914000D02*
X84210000Y-81960000D01*
X84210000Y-84040000D02*
X84210000Y-86086000D01*
X84250000Y-79927000D02*
X84250000Y-81960000D01*
X84250000Y-84040000D02*
X84250000Y-86073000D01*
X84290000Y-79940000D02*
X84290000Y-81960000D01*
X84290000Y-84040000D02*
X84290000Y-86060000D01*
X84330000Y-79953000D02*
X84330000Y-81960000D01*
X84330000Y-84040000D02*
X84330000Y-86047000D01*
X84370000Y-79968000D02*
X84370000Y-81960000D01*
X84370000Y-84040000D02*
X84370000Y-86032000D01*
X84410000Y-79983000D02*
X84410000Y-81960000D01*
X84410000Y-84040000D02*
X84410000Y-86017000D01*
X84450000Y-79998000D02*
X84450000Y-81960000D01*
X84450000Y-84040000D02*
X84450000Y-86002000D01*
X84490000Y-80014000D02*
X84490000Y-81960000D01*
X84490000Y-84040000D02*
X84490000Y-85986000D01*
X84530000Y-80031000D02*
X84530000Y-81960000D01*
X84530000Y-84040000D02*
X84530000Y-85969000D01*
X84570000Y-80048000D02*
X84570000Y-81960000D01*
X84570000Y-84040000D02*
X84570000Y-85952000D01*
X84610000Y-80066000D02*
X84610000Y-81960000D01*
X84610000Y-84040000D02*
X84610000Y-85934000D01*
X84650000Y-80085000D02*
X84650000Y-81960000D01*
X84650000Y-84040000D02*
X84650000Y-85915000D01*
X84690000Y-80104000D02*
X84690000Y-81960000D01*
X84690000Y-84040000D02*
X84690000Y-85896000D01*
X84730000Y-80124000D02*
X84730000Y-81960000D01*
X84730000Y-84040000D02*
X84730000Y-85876000D01*
X84770000Y-80145000D02*
X84770000Y-81960000D01*
X84770000Y-84040000D02*
X84770000Y-85855000D01*
X84810000Y-80166000D02*
X84810000Y-81960000D01*
X84810000Y-84040000D02*
X84810000Y-85834000D01*
X84850000Y-80188000D02*
X84850000Y-81960000D01*
X84850000Y-84040000D02*
X84850000Y-85812000D01*
X84890000Y-80211000D02*
X84890000Y-81960000D01*
X84890000Y-84040000D02*
X84890000Y-85789000D01*
X84930000Y-80235000D02*
X84930000Y-81960000D01*
X84930000Y-84040000D02*
X84930000Y-85765000D01*
X84970000Y-80259000D02*
X84970000Y-81960000D01*
X84970000Y-84040000D02*
X84970000Y-85741000D01*
X85010000Y-80284000D02*
X85010000Y-81960000D01*
X85010000Y-84040000D02*
X85010000Y-85716000D01*
X85050000Y-80310000D02*
X85050000Y-81960000D01*
X85050000Y-84040000D02*
X85050000Y-85690000D01*
X85090000Y-80337000D02*
X85090000Y-81960000D01*
X85090000Y-84040000D02*
X85090000Y-85663000D01*
X85130000Y-80364000D02*
X85130000Y-81960000D01*
X85130000Y-84040000D02*
X85130000Y-85636000D01*
X85170000Y-80393000D02*
X85170000Y-81960000D01*
X85170000Y-84040000D02*
X85170000Y-85607000D01*
X85210000Y-80423000D02*
X85210000Y-81960000D01*
X85210000Y-84040000D02*
X85210000Y-85577000D01*
X85250000Y-80453000D02*
X85250000Y-81960000D01*
X85250000Y-84040000D02*
X85250000Y-85547000D01*
X85290000Y-80484000D02*
X85290000Y-81960000D01*
X85290000Y-84040000D02*
X85290000Y-85516000D01*
X85330000Y-80517000D02*
X85330000Y-81960000D01*
X85330000Y-84040000D02*
X85330000Y-85483000D01*
X85370000Y-80550000D02*
X85370000Y-81960000D01*
X85370000Y-84040000D02*
X85370000Y-85450000D01*
X85410000Y-80585000D02*
X85410000Y-81960000D01*
X85410000Y-84040000D02*
X85410000Y-85415000D01*
X85450000Y-80621000D02*
X85450000Y-81960000D01*
X85450000Y-84040000D02*
X85450000Y-85379000D01*
X85490000Y-80658000D02*
X85490000Y-81960000D01*
X85490000Y-84040000D02*
X85490000Y-85342000D01*
X85530000Y-80696000D02*
X85530000Y-81960000D01*
X85530000Y-84040000D02*
X85530000Y-85304000D01*
X85570000Y-80736000D02*
X85570000Y-85264000D01*
X85610000Y-80777000D02*
X85610000Y-85223000D01*
X85650000Y-80819000D02*
X85650000Y-85181000D01*
X85690000Y-80863000D02*
X85690000Y-85137000D01*
X85730000Y-80909000D02*
X85730000Y-85091000D01*
X85770000Y-80956000D02*
X85770000Y-85044000D01*
X85810000Y-81005000D02*
X85810000Y-84995000D01*
X85850000Y-81057000D02*
X85850000Y-84943000D01*
X85890000Y-81110000D02*
X85890000Y-84890000D01*
X85930000Y-81166000D02*
X85930000Y-84834000D01*
X85970000Y-81225000D02*
X85970000Y-84775000D01*
X86010000Y-81286000D02*
X86010000Y-84714000D01*
X86050000Y-81351000D02*
X86050000Y-84649000D01*
X86090000Y-81419000D02*
X86090000Y-84581000D01*
X86130000Y-81491000D02*
X86130000Y-84509000D01*
X86170000Y-81568000D02*
X86170000Y-84432000D01*
X86210000Y-81650000D02*
X86210000Y-84350000D01*
X86250000Y-81739000D02*
X86250000Y-84261000D01*
X86290000Y-81835000D02*
X86290000Y-84165000D01*
X86330000Y-81942000D02*
X86330000Y-84058000D01*
X86370000Y-82061000D02*
X86370000Y-83939000D01*
X86410000Y-82199000D02*
X86410000Y-83801000D01*
X86450000Y-82367000D02*
X86450000Y-83633000D01*
X86490000Y-82598000D02*
X86490000Y-83402000D01*
X86520000Y-83000000D02*
G75*
G02*
X79980000Y-83000000I-3270000J0D01*
G01*
X79980000Y-83000000D02*
G75*
G02*
X86520000Y-83000000I3270000J0D01*
G01*
%TO.C,R3*%
X25272936Y-24090000D02*
X26727064Y-24090000D01*
X25272936Y-25910000D02*
X26727064Y-25910000D01*
%TO.C,C12*%
X11288748Y-86090000D02*
X12711252Y-86090000D01*
X11288748Y-87910000D02*
X12711252Y-87910000D01*
%TO.C,R7*%
X103272936Y-42090000D02*
X104727064Y-42090000D01*
X103272936Y-43910000D02*
X104727064Y-43910000D01*
%TO.C,R11*%
X27772936Y-58090000D02*
X29227064Y-58090000D01*
X27772936Y-59910000D02*
X29227064Y-59910000D01*
%TO.C,C13*%
X18288748Y-87090000D02*
X19711252Y-87090000D01*
X18288748Y-88910000D02*
X19711252Y-88910000D01*
%TO.C,D2*%
X10715000Y-44865000D02*
X10715000Y-47135000D01*
X10715000Y-47135000D02*
X14600000Y-47135000D01*
X14600000Y-44865000D02*
X10715000Y-44865000D01*
D11*
%TO.C,J2*%
X7600000Y-23600000D02*
X20560000Y-23600000D01*
X7600000Y-26400000D02*
X7600000Y-23600000D01*
X20560000Y-23600000D02*
X20560000Y-26400000D01*
X20560000Y-26400000D02*
X7600000Y-26400000D01*
D10*
%TO.C,JP2*%
X85950000Y-32300000D02*
X85950000Y-31700000D01*
X86500000Y-33500000D02*
X87100000Y-33500000D01*
X86600000Y-31000000D02*
X89400000Y-31000000D01*
X86800000Y-33200000D02*
X86500000Y-33500000D01*
X86800000Y-33200000D02*
X87100000Y-33500000D01*
X89400000Y-33000000D02*
X86600000Y-33000000D01*
X90050000Y-31700000D02*
X90050000Y-32300000D01*
X85950000Y-31700000D02*
G75*
G02*
X86650000Y-31000000I699999J1D01*
G01*
X86650000Y-33000000D02*
G75*
G02*
X85950000Y-32300000I-1J699999D01*
G01*
X89350000Y-31000000D02*
G75*
G02*
X90050000Y-31700000I0J-700000D01*
G01*
X90050000Y-32300000D02*
G75*
G02*
X89350000Y-33000000I-700000J0D01*
G01*
%TO.C,C5*%
X73288748Y-85090000D02*
X74711252Y-85090000D01*
X73288748Y-86910000D02*
X74711252Y-86910000D01*
D11*
%TO.C,J8*%
X76600000Y-6600000D02*
X79400000Y-6600000D01*
X76600000Y-14480000D02*
X76600000Y-6600000D01*
X79400000Y-6600000D02*
X79400000Y-14480000D01*
X79400000Y-14480000D02*
X76600000Y-14480000D01*
D10*
%TO.C,R9*%
X27772936Y-50090000D02*
X29227064Y-50090000D01*
X27772936Y-51910000D02*
X29227064Y-51910000D01*
%TO.C,C8*%
X99288748Y-71590000D02*
X100711252Y-71590000D01*
X99288748Y-73410000D02*
X100711252Y-73410000D01*
%TO.C,R15*%
X75272936Y-54090000D02*
X76727064Y-54090000D01*
X75272936Y-55910000D02*
X76727064Y-55910000D01*
%TO.C,J6*%
X87340000Y-76680000D02*
X97740000Y-76680000D01*
X87340000Y-79700000D02*
X97740000Y-79700000D01*
X87340000Y-84600000D02*
X97740000Y-84600000D01*
X87340000Y-86100000D02*
X97740000Y-86100000D01*
X87340000Y-86720000D02*
X87340000Y-76680000D01*
X89700000Y-86720000D02*
X87340000Y-86720000D01*
X97740000Y-76680000D02*
X97740000Y-86720000D01*
X97740000Y-86720000D02*
X90300000Y-86720000D01*
X90440000Y-87330000D02*
X89560000Y-87330000D01*
X90000000Y-86720000D01*
X90440000Y-87330000D01*
G36*
X90440000Y-87330000D02*
G01*
X89560000Y-87330000D01*
X90000000Y-86720000D01*
X90440000Y-87330000D01*
G37*
%TO.C,R14*%
X17272936Y-45090000D02*
X18727064Y-45090000D01*
X17272936Y-46910000D02*
X18727064Y-46910000D01*
%TO.C,C1*%
X93288748Y-39090000D02*
X94711252Y-39090000D01*
X93288748Y-40910000D02*
X94711252Y-40910000D01*
%TO.C,R19*%
X24272936Y-69090000D02*
X25727064Y-69090000D01*
X24272936Y-70910000D02*
X25727064Y-70910000D01*
%TD*%
M02*
