M48
; DRILL file {KiCad 9.0.9} date 2026-10-02T14:55:21+0800
; FORMAT={-:-/ absolute / metric / decimal}
; #@! TF.CreationDate,2026-10-02T14:55:21+08:00
; #@! TF.GenerationSoftware,Kicad,Pcbnew,9.0.9
; #@! TF.FileFunction,Plated,1,2,PTH
FMAT,2
METRIC
; #@! TA.AperFunction,Plated,PTH,ViaDrill
T1C0.400
; #@! TA.AperFunction,Plated,PTH,ViaDrill
T2C0.600
; #@! TA.AperFunction,Plated,PTH,ComponentDrill
T3C0.700
; #@! TA.AperFunction,Plated,PTH,ComponentDrill
T4C0.800
; #@! TA.AperFunction,Plated,PTH,ComponentDrill
T5C1.000
; #@! TA.AperFunction,Plated,PTH,ComponentDrill
T6C1.300
%
G90
G05
T1
X2.0Y-20.0
X2.0Y-37.0
X2.0Y-70.0
X11.25Y-29.7
X12.927Y-46.323
X20.0Y-3.0
X20.95Y-45.509
X21.1Y-44.226
X25.433Y-31.505
X26.137Y-45.791
X27.636Y-42.211
X28.771Y-43.774
X30.0Y-4.0
X30.0Y-83.25
X34.632Y-37.661
X36.0Y-34.0
X36.0Y-48.0
X36.45Y-30.9
X36.9Y-43.2
X37.0Y-84.0
X37.03Y-48.762
X38.1Y-29.25
X40.069Y-27.455
X69.703Y-43.278
X73.0Y-29.0
X73.0Y-51.0
X77.0Y-88.0
X78.0Y-3.0
X87.0Y-35.999
X88.35Y-67.05
X91.62Y-11.81
X108.0Y-18.0
X108.0Y-27.0
X108.0Y-44.0
X108.0Y-60.0
X108.0Y-71.0
T2
X18.677Y-40.262
X21.779Y-43.048
X32.7Y-80.25
X54.45Y-63.0
T3
X32.0Y-8.0
X32.0Y-22.5
X32.0Y-25.0
X32.0Y-29.0
X32.0Y-51.0
X32.0Y-55.0
X32.0Y-59.0
X100.0Y-88.0
X107.0Y-32.0
X107.0Y-36.0
X107.0Y-40.0
T4
X82.0Y-83.0
X84.5Y-83.0
T5
X8.0Y-73.0
X9.0Y-25.0
X10.54Y-73.0
X11.54Y-25.0
X13.08Y-73.0
X14.08Y-25.0
X16.62Y-25.0
X19.16Y-25.0
X24.0Y-52.0
X24.0Y-54.54
X24.0Y-57.08
X24.0Y-59.62
X24.0Y-62.16
X32.0Y-12.0
X32.0Y-14.54
X32.0Y-17.08
X32.0Y-19.62
X42.3Y-7.62
X42.3Y-10.16
X42.3Y-12.7
X42.3Y-15.24
X42.3Y-17.78
X42.3Y-20.32
X42.3Y-22.86
X42.3Y-25.4
X42.3Y-27.94
X42.3Y-30.48
X42.3Y-33.02
X42.3Y-35.56
X42.3Y-38.1
X42.3Y-40.64
X42.3Y-43.18
X42.3Y-45.72
X42.3Y-48.26
X42.3Y-50.8
X42.3Y-53.34
X42.3Y-55.88
X42.3Y-58.42
X42.3Y-60.96
X67.7Y-7.62
X67.7Y-10.16
X67.7Y-12.7
X67.7Y-15.24
X67.7Y-17.78
X67.7Y-20.32
X67.7Y-22.86
X67.7Y-25.4
X67.7Y-27.94
X67.7Y-30.48
X67.7Y-33.02
X67.7Y-35.56
X67.7Y-38.1
X67.7Y-40.64
X67.7Y-43.18
X67.7Y-45.72
X67.7Y-48.26
X67.7Y-50.8
X67.7Y-53.34
X67.7Y-55.88
X67.7Y-58.42
X67.7Y-60.96
X78.0Y-8.0
X78.0Y-10.54
X78.0Y-13.08
X78.0Y-18.0
X78.0Y-20.54
X78.0Y-23.08
X78.0Y-32.0
X78.0Y-34.54
X78.0Y-37.08
X78.0Y-42.0
X78.0Y-44.54
X78.0Y-47.08
X80.0Y-78.0
X82.54Y-78.0
X84.0Y-25.0
X85.0Y-70.0
X85.08Y-78.0
X86.54Y-25.0
X87.54Y-70.0
X89.08Y-25.0
X90.08Y-70.0
X91.62Y-25.0
X92.62Y-70.0
X94.16Y-25.0
X96.7Y-25.0
T6
X18.0Y-80.0
X23.08Y-80.0
X90.0Y-82.0
X95.08Y-82.0
M30
